<?xml version="1.0" encoding="UTF-8"?>
<svg width="100px" height="100px" viewBox="0 0 100 100" version="1.1" xmlns="http://www.w3.org/2000/svg" xmlns:xlink="http://www.w3.org/1999/xlink">
    <title>logo</title>
    <g id="logo" stroke="none" stroke-width="1" fill="none" fill-rule="evenodd">
        <g id="Group" transform="translate(0.000000, 7.000000)"></g>
        <path d="M79.7131705,7 L79.7131705,7.50265124 C74.3480586,7.50265124 71.8331624,11.5238612 71.8331624,19.901382 L71.8331624,57.9353262 C71.8331624,84.4082917 73.6774196,90.7752075 81.389768,90.7752075 C86.0104706,90.7752075 87.6390504,86.6070893 89.1044234,82.6056959 L89.3289593,81.9919969 C90.5983567,78.5284487 91.8539717,75.3605693 94.9702076,75.3605693 C98.1557428,75.3605693 100,77.2036239 100,80.3870818 C100,87.2566488 92.6229711,92.4507116 82.5633862,92.4507116 C67.4740089,92.4507116 61.6059178,82.7327876 61.6059178,57.9353262 L61.6059178,19.901382 C61.6059178,13.0165692 59.794152,9.07395579 56.1706206,7.88754503 C55.1506361,8.17112125 54.236541,8.77080571 53.4274674,9.68532709 C52.2523906,11.0135534 51.2699494,12.8133963 50.4801436,15.0848557 C49.6903379,17.3563152 49.1124313,20.0223926 48.7464238,23.083088 C48.3804162,26.1437834 48.1974125,29.3873506 48.1974125,32.8137894 L48.1974125,32.8137894 L48.1974125,65.2687103 C48.1974125,68.8876458 48.3418891,72.2659605 48.6308424,75.4036545 C48.9197958,78.5413485 49.4302799,81.2651749 50.162295,83.5751337 C50.8943101,85.8850925 51.8671195,87.704185 53.0807235,89.0324113 C54.2943274,90.3606376 55.8065164,91.0247508 57.6172905,91.0247508 L57.6172905,91.0247508 L57.6172905,91.6599895 L28.2596339,91.6599895 L28.2596339,91.0247508 C31.5729652,91.0247508 33.961646,89.3500307 35.4256761,86.0005904 C36.8897062,82.6511502 37.6217213,77.8002367 37.6217213,71.4478501 C37.6217213,69.0608927 37.0823417,66.8953063 36.0035827,64.951091 C34.9248237,63.0068757 33.5089524,61.1781583 31.755969,59.4649389 C30.0029856,57.7517195 27.999576,56.1154987 25.7457401,54.5562765 C23.4919043,52.9970543 21.1802778,51.4474569 18.8108606,49.9074844 C16.4414435,48.3675119 14.129817,46.7986649 11.8759811,45.2009434 C9.6221453,43.6032219 7.61873567,41.8803776 5.86575224,40.0324106 C4.11276881,38.1844436 2.69689758,36.1921041 1.61813855,34.0553923 C0.539379516,31.9186804 0,29.5413478 0,26.9233945 C0,24.2669419 0.62606551,21.7356121 1.87819653,19.329405 C3.13032755,16.9231979 4.89294275,14.8057357 7.16604214,12.9770184 C9.43914153,11.148301 12.1938298,9.69495192 15.4301069,8.61697115 C18.666384,7.53899038 22.249405,7 26.1791701,7 L26.1791701,7 L79.7131705,7 Z M25.4856821,8.3282263 C23.6363809,8.3282263 21.7870797,8.82871737 19.9377785,9.82969951 C18.0884773,10.8306817 16.4318117,12.1974073 14.9677816,13.9298764 C13.5037515,15.6623454 12.3094111,17.6931842 11.3847605,20.0223926 C10.4601099,22.3516011 9.9977846,24.8444316 9.9977846,27.5008842 C9.9977846,30.5038306 10.2771061,33.1025343 10.8357492,35.2969951 C11.3943923,37.491456 12.1649344,39.397172 13.1473757,41.0141431 C14.129817,42.6311143 15.2663667,44.0267144 16.5570248,45.2009434 C17.8476829,46.3751724 19.2346588,47.4531532 20.7179525,48.4348857 C22.2012462,49.4166182 23.7230669,50.379101 25.2834148,51.3223342 C26.8437627,52.2655674 28.3655835,53.295424 29.8488772,54.4119041 C31.3321708,55.5283841 32.7480421,56.7988615 34.0964908,58.223336 C35.4449396,59.6478106 36.63928,61.3610301 37.6795119,63.3629943 L37.6795119,63.3629943 L37.6795119,32.8137894 C37.6795119,28.3093698 37.3327679,24.4979378 36.63928,21.3794934 C35.945792,18.2610491 35.040405,15.7393441 33.9231189,13.8143784 C32.8058327,11.8894128 31.5055428,10.4938127 30.0222491,9.62757812 C28.5389555,8.76134357 27.0267665,8.3282263 25.4856821,8.3282263 Z" id="Mask" fill="#444444" fill-rule="nonzero"></path>
    </g>
</svg>