<svg xmlns="http://www.w3.org/2000/svg" xmlns:xlink="http://www.w3.org/1999/xlink" width="1024" height="718">
  <defs>
    <path id="a" d="M0 0h1024v718H0z" />
    <path id="c"
      d="m1134.462 228.251 1.145.987.92.81 1.117.998.796.72 1.269 1.159.662.61 1.348 1.256 1.379 1.299.7.665 1.423 1.364a365.953 365.953 0 0 1 3.678 3.598l1.518 1.514 1.544 1.556 1.568 1.599a435.164 435.164 0 0 1 41.93 50.003c34.634 48.27 56.788 100.139 60.469 153.892 4.638 67.732-20.58 133.926-81.452 196.898l-1.856 1.907c-23.277 23.772-35.114 48.11-37.083 73.893-1.602 20.984 3.238 42.747 14.068 67.258l.834 1.866c.282.625.568 1.25.857 1.878l.88 1.889a366.653 366.653 0 0 0 2.644 5.502l1.005 2.029.952 1.89.967 1.888.986 1.893 1.008 1.906 1.035 1.924.528.97 1.357 2.462 1.127 2.01.87 1.537 1.508 2.623.94 1.616 1.297 2.21 1.352 2.28 1.772 2.957 1.49 2.46 2.767 4.53 2.993 4.846 3.722 5.972 3.02 4.813 5.504 8.727 5.491 8.7 4.372 6.978 2.779 4.474 2.927 4.76 2.041 3.358 1.613 2.68 1.542 2.59 1.189 2.015 1.436 2.463 1.39 2.415.79 1.39.514.908c.597 1.057 1.185 2.11 1.767 3.161l.498.902a477.483 477.483 0 0 1 2.961 5.463c10.108 18.932 17.155 35.852 21.337 52.186 9.908 38.7 3.393 73.792-23.224 108.314-33.774 43.803-89.451 61.05-169.674 57.632l-1.226-.054-2.463-.116c-.412-.02-.824-.042-1.237-.064l-2.486-.135-2.5-.148-2.518-.161-2.534-.173-2.55-.186-2.567-.199-1.29-.104-2.592-.217-2.61-.23-2.628-.242-2.646-.255-2.664-.267-1.34-.138-2.692-.287-2.712-.298-2.73-.311-2.751-.324-2.77-.336-2.791-.35-2.812-.36-2.832-.374-2.853-.386-2.874-.4-2.897-.41-2.918-.424-2.94-.437-2.963-.448-1.49-.23-2.997-.467-1.507-.238-4.558-.735-3.067-.505-3.092-.517-1.555-.264-4.702-.809-3.166-.555-3.19-.567-1.606-.288-3.23-.587-3.255-.598-3.281-.611-3.684-.695-4-.76-3.929-.756-3.882-.754-3.858-.758-5.015-1-5.454-1.104-8.005-1.653-6.694-1.41-6.147-1.314-6.483-1.403-7.898-1.727-10.743-2.376-16.987-3.798-16.704-3.765-42.307-9.569-17.45-3.9-6.939-1.534-8.468-1.855-6.617-1.435-4.873-1.049-4.8-1.025-7.843-1.657-3.084-.645-4.571-.949-4.508-.927-4.445-.905-4.386-.883-2.893-.578-2.867-.568-4.257-.835-5.594-1.082-4.14-.788-4.091-.769-4.048-.75-4.005-.73-2.648-.477-3.94-.7-2.606-.457-2.591-.449-2.576-.44-3.838-.648-3.808-.63-3.782-.615-2.506-.4-3.74-.587-3.72-.572-3.7-.556-3.684-.541-3.668-.527-2.44-.343-3.42-.471-3.4-.457-3.379-.441-3.357-.427-3.336-.411-1.66-.2-3.305-.39c-1.647-.19-3.287-.375-4.919-.554l-3.253-.35-3.233-.336-3.213-.32-3.193-.306-3.173-.29-3.153-.274-1.569-.131-3.124-.251-1.554-.12-3.095-.227-3.075-.213-1.53-.1-3.048-.189-3.028-.173-3.01-.157c-22-1.097-42.504-.922-61.765.594-57.193 4.509-108.63 21.163-154.602 48.269-39.252 23.144-73.612 53.352-103.367 88.932-25.33 30.288-45.942 62.74-62.202 95.19a469.409 469.409 0 0 0-7.83 16.395l-1.004 2.23-.976 2.202c-.32.729-.636 1.452-.947 2.17l-.92 2.141c-.302.708-.599 1.411-.891 2.109l-.864 2.077c-.142.343-.282.686-.421 1.026l-.7 1.722-.549 1.374-.777 1.973-.72 1.866-.663 1.758-.678 1.843-.62 1.741-.216.631-.475-.158.275-.798.44-1.24.596-1.63.646-1.725.462-1.21.487-1.26.513-1.305.537-1.353.564-1.398c.411-1.016.833-2.043 1.266-3.083l.878-2.096a402.023 402.023 0 0 1 1.841-4.285l.963-2.189.492-1.106 1.005-2.233c.51-1.124 1.03-2.259 1.562-3.404l1.076-2.305c.364-.773.732-1.55 1.105-2.332l1.134-2.36a488.68 488.68 0 0 1 2.961-6.011c16.278-32.484 36.91-64.968 62.266-95.287 29.79-35.622 64.193-65.868 103.497-89.043 46.036-27.144 97.547-43.822 154.817-48.337 16.214-1.276 33.306-1.602 51.427-1.022l2.947.102c.986.037 1.974.077 2.966.118l2.984.134c.998.048 1.999.097 3.003.15l3.02.165 3.04.181 3.06.197c2.557.17 5.133.357 7.73.56l3.126.251 3.146.267c1.578.137 3.163.28 4.755.429l3.196.305 3.215.32c.537.055 1.076.11 1.615.167l3.245.343 3.266.359c1.092.122 2.188.247 3.287.374l3.307.389c1.106.132 2.215.267 3.328.404l3.349.42 3.37.434 3.392.449c1.134.152 2.271.307 3.412.464l4.155.581 3.67.527 2.454.36 2.462.365 3.708.562 3.727.576 3.75.593 2.513.404 3.791.62 3.82.636 2.562.434 2.577.441 2.592.45 2.607.456 2.623.465 2.64.473 3.993.725 4.035.743 2.714.506 2.733.515 5.53 1.056 4.206.815 2.833.554 4.293.85 4.35.869 4.406.891 5.97 1.222 4.55.941 4.616.964 6.26 1.321 6.386 1.362 8.167 1.761 6.687 1.457 6.83 1.501 7.41 1.641 13.2 2.951 25.42 5.744 18.128 4.103 20.07 4.522 13.743 3.07 10.122 2.242 11.229 2.454 8.427 1.814 7.044 1.49 6.731 1.4 6.521 1.331 6.414 1.284 5.339 1.048 5.484 1.061 3.719.71 5.442 1.028 3.28.611 3.253.598 4.832.875 3.19.567 1.585.279 3.152.548 3.127.536 3.102.524 3.078.51 3.054.499 1.519.245 3.018.48 2.996.467 2.973.455 2.95.442 2.927.43 2.906.417 2.883.405 1.434.198 2.851.386 2.83.373 2.81.361 2.79.349 1.386.17 2.76.33 2.738.316 2.72.305 2.7.292 2.681.28 2.663.267 2.644.255 1.315.123 2.617.235 2.6.224 2.582.21 2.565.199 2.548.186 2.532.173 2.515.16 2.5.149 2.483.135 2.469.123c.82.04 1.638.076 2.453.11 80.077 3.412 135.601-13.788 169.257-57.438 26.52-34.397 33.006-69.33 23.136-107.884-4.086-15.958-10.918-32.486-20.68-50.92l-.614-1.155-.492-.92-.738-1.37-.739-1.36-.494-.905-1.484-2.688-1.249-2.23-1.276-2.247-.78-1.362-1.064-1.837-1.09-1.867-1.41-2.387-1.465-2.457-1.845-3.06-2.97-4.862-2.5-4.049-3.092-4.963-5.169-8.225-7.33-11.606-3.536-5.625-2.747-4.393-3.562-5.738-2.81-4.572-1.76-2.889-1.263-2.089-1.613-2.691-1.16-1.954-1.12-1.901-1.434-2.463-1.373-2.389-.992-1.748-.963-1.717-.936-1.69-.911-1.665-.89-1.647-.868-1.631-.851-1.62-.56-1.076-.826-1.612-.545-1.074-.809-1.614-.802-1.621-1.06-2.18-.794-1.655-.793-1.675c-12.662-26.905-18.417-50.467-16.685-73.142 1.958-25.646 13.63-49.862 36.527-73.49l.697-.715c62.117-63.441 87.84-130.15 83.166-198.42-3.674-53.65-25.792-105.436-60.376-153.635a434.667 434.667 0 0 0-41.882-49.946l-1.566-1.596a401.92 401.92 0 0 0-.774-.783l-1.529-1.533-1.503-1.49-.741-.73-1.463-1.426-1.435-1.384-1.406-1.34-.692-.654-1.36-1.275-1.331-1.231-1.267-1.157-.794-.718-1.114-.995-1.338-1.173-.717-.616.321-.383Zm-87.673-22.807.897.75.798.68 1.176 1.016.846.741 1.359 1.206 1.362 1.225 1.395 1.271 1.427 1.317.725.675 1.474 1.385 1.503 1.43 1.533 1.475a376.94 376.94 0 0 1 2.35 2.296l1.601 1.586a411.054 411.054 0 0 1 40.567 47.065c33.29 45.162 54.67 93.747 58.435 144.185 4.79 64.152-19.446 126.994-78.392 186.937-32.766 33.374-41.417 67.877-30.95 107.436 3.248 12.278 8.298 25.03 15.297 39.097l1.064 2.12 1.094 2.14a372.48 372.48 0 0 0 2.276 4.344l1.111 2.078.962 1.782.72 1.32 1.326 2.408 1.354 2.422 1.395 2.459 1.242 2.16 1.52 2.61 2.334 3.954 2.306 3.852 2.837 4.69 3.516 5.762 6.406 10.42 5.496 8.923 2.988 4.883 3.13 5.15 1.817 3.014 2.052 3.433 1.615 2.726 1.836 3.133 2.021 3.499 1.377 2.418 1.33 2.368 1.547 2.798.967 1.774c.72 1.329 1.432 2.655 2.14 3.993l1.179 2.243.236.453c9.362 17.972 15.893 34.024 19.77 49.498 9.188 36.662 3.17 69.78-21.455 102.18-31.272 40.99-82.802 57.103-157.16 53.88l-2.422-.11-2.438-.125-1.226-.067-2.462-.145-2.48-.158-1.246-.083-2.505-.178-2.523-.191-2.54-.205-2.56-.217-2.577-.231-1.295-.12-2.606-.251-2.625-.265-2.645-.277-2.665-.29-1.34-.151-2.696-.31-2.716-.325c-.454-.055-.91-.11-1.366-.167l-2.748-.343-2.77-.357-2.792-.37-2.814-.384-2.837-.397-2.86-.41-1.438-.21-2.894-.43-1.457-.22-2.93-.45-1.474-.23-2.967-.47-2.992-.483-3.017-.497-3.042-.51-3.068-.522-3.094-.536-1.557-.274-3.133-.556-3.16-.569-3.189-.582-3.215-.596-3.243-.61-7.21-1.376-5.414-1.052-5.327-1.052-4.426-.889-6.263-1.28-5.513-1.147-6.705-1.421-5.031-1.083-6.374-1.387-5.643-1.241-11.06-2.46-9.541-2.142-23.806-5.391-40.014-9.104-17.805-3.994-7.728-1.71-4.692-1.03-7.67-1.668-3.018-.65-4.473-.959-4.41-.937-5.79-1.217-5.686-1.181-5.588-1.146-4.13-.836-5.426-1.084-2.681-.53-5.3-1.034-3.92-.753-2.591-.493-3.85-.723-5.073-.937-3.76-.682-2.487-.445-3.7-.653-3.67-.637-2.427-.415-3.618-.609-2.396-.397-3.571-.582-4.724-.752-4.683-.724-3.489-.526-3.47-.51-3.453-.497-2.294-.323-2.288-.317a916.94 916.94 0 0 0-5.273-.708l-3.485-.45c-.579-.075-1.157-.148-1.734-.22l-3.45-.425c-16.619-2.013-32.424-3.423-47.507-4.205l-3.11-.153c-19.116-.887-37.066-.748-54.037.47-53.15 3.805-101.014 18.997-143.852 43.986-36.545 21.318-68.58 49.249-96.36 82.202-23.446 27.813-42.581 57.613-57.724 87.414a435.09 435.09 0 0 0-7.296 15.054l-1.008 2.205c-.33.73-.656 1.455-.977 2.174l-.947 2.141c-.155.354-.31.707-.462 1.058l-.902 2.092-.872 2.057-.425 1.016-.703 1.703-.551 1.355-.524 1.305-.497 1.255-.694 1.787-.633 1.67-.583 1.583-.404 1.133-.046.135-.474-.162.258-.733.53-1.457.456-1.219.43-1.129.456-1.18.484-1.232.511-1.283.539-1.332.566-1.382a385.26 385.26 0 0 1 8.673-19.421l1.116-2.313a450.375 450.375 0 0 1 3.534-7.107c15.159-29.832 34.314-59.665 57.787-87.51 27.815-32.994 59.892-60.963 96.49-82.311 42.903-25.026 90.84-40.242 144.069-44.052 23.418-1.681 48.693-1.31 76.319.974l3.261.277 3.283.295 3.305.313a776.158 776.158 0 0 1 16.862 1.824l3.44.417c3.453.425 6.94.877 10.464 1.353l2.908.398 2.292.32 3.45.492 2.309.336 3.477.516 3.497.531 3.517.546 4.725.752 4.77.78 3.61.604 3.638.62 3.67.637 4.944.875 2.495.45 3.774.687 3.811.706 3.852.723 3.894.742 3.938.76 3.983.779 4.03.798 2.715.542 5.496 1.11 2.783.57 7.063 1.46 4.313.902 5.843 1.236 4.453.951 7.564 1.633 6.182 1.35 10.228 2.257 14.096 3.155 15.486 3.507 35.617 8.11 17.66 3.994 11.027 2.473 11.79 2.614 7.997 1.747 5.818 1.254 6.312 1.34 6.046 1.26 5.148 1.055 5.086 1.025 2.495.496 4.748.933 3.208.623 3.26.628 4.96.945 3.241.608 3.214.596 1.596.292 3.172.576 3.146.562 3.118.55 3.093.535 3.066.523 3.04.51 1.511.249 3.002.49 2.978.476 2.953.463 2.929.45 2.905.436 2.88.423 1.433.207 2.846.403 1.414.197 2.813.383 1.398.187 2.779.363 2.757.35 2.735.337 2.715.324 2.693.31 2.674.298 2.652.284 1.32.137 2.623.264 1.304.127 2.594.244 1.29.117 2.567.224 2.547.21 2.53.198 2.512.184 2.494.171 2.478.158 2.46.145 2.444.13 2.428.118 1.209.054c74.21 3.216 125.587-12.849 156.74-53.684 24.531-32.275 30.52-65.236 21.369-101.755-3.867-15.432-10.384-31.449-19.73-49.39a466.415 466.415 0 0 0-1.885-3.582l-1.187-2.215-1.445-2.657-.983-1.782-1.512-2.705-1.039-1.836-1.069-1.869-1.383-2.395-1.444-2.472-.899-1.526-1.877-3.162-2.687-4.479-2.548-4.205-3.582-5.863-12.43-20.204-3.94-6.458-2.336-3.861-2.392-3.994-1.714-2.894-1.829-3.126-.87-1.506-1.675-2.93-.63-1.118-1.47-2.631-1.033-1.876-1.029-1.89-.62-1.147-1.25-2.337c-9.357-17.583-15.864-33.033-19.773-47.808-10.405-39.33-1.986-73.718 30.098-106.91l.98-1.005c58.847-59.842 83.028-122.544 78.25-186.55-3.758-50.331-25.1-98.832-58.34-143.924a410.558 410.558 0 0 0-40.517-47.008l-1.598-1.584-.79-.775-1.558-1.517c-.257-.25-.513-.497-.768-.742l-1.516-1.45c-.25-.239-.5-.475-.747-.71l-1.472-1.382-1.44-1.337-1.41-1.292-.692-.629-1.36-1.223-.915-.815-1.284-1.128-1.173-1.014-.587-.5-1.1-.922.317-.387Zm-87.738-22.809 1.07.868.935.775 1.172.987 1.278 1.093.45.388c.688.596 1.39 1.21 2.104 1.84l1.448 1.288.737.662 1.498 1.36 1.531 1.406c.516.477 1.037.962 1.563 1.454l1.593 1.501a367.71 367.71 0 0 1 2.445 2.34c13.362 12.903 26.725 27.681 39.197 44.1 31.938 42.045 52.537 87.341 56.387 134.467 4.843 59.295-17.343 117.57-71.794 173.426l-1.66 1.692c-6.434 6.533-11.875 13.146-16.364 19.855-17.628 26.346-20.618 53.885-11.518 85.25 3.84 13.237 9.785 27.117 18.112 42.956l.988 1.87 1.035 1.943.364.677a451.651 451.651 0 0 0 1.83 3.368l.746 1.354 1.56 2.797 1.46 2.577 1.785 3.11 2.196 3.776 2.443 4.156 3.724 6.278 6.4 10.704 3.483 5.818 3.955 6.649 2.509 4.25 2.318 3.964 2.15 3.718 1.728 3.021 1.367 2.42 1.052 1.882 1.02 1.843 1.237 2.26.962 1.782 1.178 2.207.925 1.758 1.144 2.2 1.364 2.665.228.449c8.616 17.018 14.628 32.207 18.198 46.83 8.456 34.641 2.916 65.806-19.753 96.107-28.78 38.194-76.186 53.176-144.714 50.14-.792-.035-1.588-.072-2.386-.112l-2.403-.127c-.803-.044-1.61-.091-2.42-.14l-2.437-.155-2.456-.17-2.474-.182a493.16 493.16 0 0 1-1.244-.097l-2.503-.205c-.837-.07-1.678-.143-2.522-.218l-2.541-.233-1.278-.121-2.572-.254a569.5 569.5 0 0 1-2.592-.268l-2.614-.282-2.635-.297c-.882-.1-1.767-.204-2.656-.31l-2.68-.325c-.896-.11-1.796-.223-2.7-.338l-2.725-.353-2.747-.367-2.771-.381-1.395-.196-2.807-.403-2.832-.416a808.7 808.7 0 0 1-1.426-.214l-2.87-.437-1.444-.224-2.908-.46-2.934-.472-2.96-.487-1.491-.25-3.001-.508c-.503-.086-1.006-.172-1.51-.26l-3.043-.529-3.07-.543-3.1-.558-3.127-.572-3.157-.586-3.186-.6-4.947-.948-5.06-.984-5.72-1.13-4.835-.971-4.038-.825-5.752-1.197-4.238-.896-7.127-1.534-6.705-1.469-6.19-1.372-10.224-2.294-14.354-3.255-27.217-6.23-24.77-5.677-10.904-2.475-11.29-2.532-5.436-1.206-3.427-.755-5.716-1.25-5.643-1.22c-4.672-1.004-9.27-1.978-13.795-2.92l-5.396-1.117c-79.535-16.34-136.646-22.897-188.557-19.614-49.078 3.096-93.345 16.828-133.031 39.705-33.824 19.498-63.521 45.16-89.318 75.495-21.557 25.35-39.208 52.512-53.228 79.674a420 420 0 0 0-1.732 3.392l-1.116 2.228-1.085 2.2a385.191 385.191 0 0 0-3.074 6.426l-.964 2.082-.934 2.05c-.46 1.018-.907 2.023-1.344 3.016l-.86 1.97c-.28.65-.557 1.295-.829 1.935l-.67 1.588-.512 1.235-.487 1.19-.684 1.698-.424 1.074-.59 1.522-.394 1.041-.57 1.557-.471-.165.344-.952.485-1.295.527-1.37.412-1.052.667-1.667.723-1.771.78-1.873c.934-2.22 1.929-4.513 2.985-6.871l.92-2.037.471-1.031.966-2.085.995-2.115 1.026-2.145 1.056-2.174a412.954 412.954 0 0 1 3.939-7.83c14.036-27.194 31.708-54.387 53.291-79.769 25.833-30.377 55.573-56.076 89.449-75.604 39.752-22.915 84.093-36.67 133.25-39.771 51.38-3.25 107.826 3.127 186.008 19.074l5.364 1.102 5.433 1.132c4.556.956 9.185 1.942 13.89 2.96l5.682 1.235 6.296 1.384 9.571 2.13 14.814 3.344 19.569 4.476 24.644 5.653 18.346 4.182 14.418 3.251 9.218 2.048 6.874 1.504 6.411 1.38 4.75 1.006 6.556 1.36 3.87.788 2.414.487 3.055.609 4.648.915 4.784.929 3.247.624 3.199.607 3.17.593 3.14.578 3.11.565 3.084.55 3.054.537 3.027.522 2.999.508 2.972.494 2.946.48 2.919.465c.969.153 1.933.304 2.893.452l2.868.437c.952.144 1.9.285 2.842.424l2.818.409 2.794.395 2.769.38 1.375.186 2.734.36c.908.117 1.811.232 2.711.345l2.688.331c.892.108 1.781.214 2.666.318l2.643.303 2.623.289 2.6.275 1.293.132 2.57.253 2.549.24 1.267.114 2.52.219 1.252.104 2.491.197 2.472.183 2.454.169 1.22.079 2.426.147 1.207.069 2.4.126 2.384.113c68.38 3.03 115.631-11.904 144.292-49.942 22.576-30.176 28.09-61.187 19.667-95.688-3.56-14.58-9.558-29.736-18.158-46.722a450.48 450.48 0 0 0-1.363-2.67l-1.14-2.2-1.165-2.215-1.477-2.764-.757-1.396-1.558-2.84-1.63-2.925-1.136-2.013-1.788-3.132-1.578-2.734-2.01-3.452-2.53-4.3-2.342-3.954-4.306-7.219-8.134-13.596-3.111-5.24-2.742-4.654-2.436-4.184-2.195-3.825-1.821-3.229-1.336-2.406-1.108-2.023-.366-.674c-.447-.823-.89-1.648-1.337-2.482l-1.038-1.954-.743-1.408c-8.342-15.866-14.3-29.776-18.15-43.049-9.14-31.5-6.133-59.192 11.583-85.668 4.31-6.443 9.494-12.795 15.587-19.072l.837-.856c55.56-56.27 78.19-114.981 73.31-174.726-3.84-47.019-24.401-92.23-56.286-134.205-12.456-16.398-25.801-31.157-39.147-44.044a364.371 364.371 0 0 0-3.24-3.091l-1.575-1.475a330.49 330.49 0 0 0-2.305-2.125l-1.497-1.357c-.246-.222-.491-.443-.735-.66l-1.445-1.286-.71-.625-1.392-1.213-.885-.762-1.24-1.055-.768-.645-1.133-.938-.861-.696.31-.393Zm-87.675-22.808.838.653 1.098.876 1.132.918.811.668.857.71.668.56 1.364 1.154 1.397 1.199c.472.407.948.821 1.43 1.243l1.463 1.288.743.66 1.509 1.355c.254.23.509.46.765.694l1.553 1.42c.522.48 1.049.968 1.58 1.463 12.9 12.02 25.8 25.798 37.841 41.119 30.594 38.928 50.42 80.94 54.353 124.757 4.994 55.643-16.154 110.515-68.548 163.316-26.868 27.18-35.094 55.86-28.384 88.769 2.833 13.895 8.274 28.508 16.472 45.216l1.005 2.038.499 1 .859 1.71.907 1.783 1.104 2.139 1.46 2.778 1.535 2.865 1.217 2.237 1.96 3.547 2.664 4.744 1.88 3.31 3.948 6.883L929.4 690.26l3.05 5.308 3.09 5.43 2.186 3.887 1.744 3.138 1.639 2.991.786 1.45 1.016 1.892 1.47 2.774 1.182 2.269.681 1.323.887 1.742.988 1.963 1.199 2.42.218.444c7.88 16.07 13.378 30.394 16.641 44.155 7.732 32.603 2.658 61.763-18.088 89.88-26.19 35.491-69.413 49.38-132.087 46.527-.767-.035-1.537-.072-2.31-.112l-2.326-.127-1.17-.069-2.354-.149-2.372-.163-2.391-.179c-.4-.03-.801-.062-1.203-.094l-2.42-.2-1.218-.106-2.45-.223-2.472-.237c-.414-.04-.828-.082-1.243-.124l-2.503-.26c-.838-.088-1.68-.18-2.525-.273l-2.547-.289-2.569-.303c-.86-.104-1.724-.21-2.592-.318l-2.616-.333a612.3 612.3 0 0 1-1.316-.172l-2.652-.355-1.334-.183-2.689-.377-1.353-.194-2.726-.4a722.5 722.5 0 0 1-2.751-.413l-2.778-.429c-.465-.072-.931-.146-1.399-.22l-2.817-.45-2.845-.466-1.433-.238-2.886-.487-2.914-.503-1.468-.256-2.958-.525c-.495-.088-.992-.178-1.49-.268l-3.001-.546-3.032-.561-3.062-.576-3.092-.591-3.124-.606-4.159-.815-5.316-1.057-5.823-1.18-5.352-1.11-5.487-1.162-6.426-1.39-6.233-1.375-9.226-2.07-13.468-3.07-21.103-4.867-33.66-7.799-14.19-3.249-8.288-1.873-9.958-2.216-4.324-.95-5.306-1.154-4.816-1.035a1902.92 1902.92 0 0 0-4.761-1.011l-4.708-.987-2.334-.484-4.629-.95c-5.37-1.096-10.636-2.14-15.803-3.137l-4.404-.841-2.185-.412-4.333-.805-2.15-.393-4.263-.769c-53.016-9.454-95.441-13.203-134.52-11.094-45.028 2.42-85.719 14.7-122.272 35.455-31.12 17.67-58.497 41.045-82.326 68.737-19.699 22.892-35.888 47.42-48.8 71.948-.589 1.12-1.166 2.229-1.73 3.327l-1.113 2.182-1.08 2.152c-.885 1.781-1.737 3.53-2.555 5.245l-.965 2.041-.933 2.008c-.916 1.991-1.784 3.93-2.604 5.815l-.673 1.558-.512 1.204-.484 1.156-.457 1.108-.43 1.058-.403 1.008-.442 1.126-.644 1.705-.47-.17.32-.86.45-1.17.32-.815.617-1.535.677-1.647.739-1.756.526-1.23c.269-.623.543-1.252.822-1.888l.853-1.923a320.12 320.12 0 0 1 2.754-5.981l.983-2.061a368.382 368.382 0 0 1 5.992-11.89c12.928-24.56 29.138-49.119 48.863-72.042 23.865-27.733 51.285-51.144 82.458-68.845 36.62-20.793 77.385-33.096 122.492-35.52 40.164-2.167 83.844 1.845 138.89 11.869l4.312.793a1404.375 1404.375 0 0 1 19.997 3.87l4.58.927 4.632.951 4.684.975 4.736 1 4.79 1.023 2.417.521 6.028 1.312 4.328.952 8.572 1.908 10.573 2.39 10.823 2.48 17.632 4.078 29.621 6.86 15.711 3.606 11.583 2.622 7.45 1.66 7.387 1.614 5.752 1.229 4.998 1.046 3.89.8 3.688.746 2.492.499 3.82.757 3.962.777 3.122.605 3.09.59 3.06.576 3.03.56 3 .547 1.488.267 2.956.525 2.927.509 2.898.494 2.87.48 1.425.235 2.83.457 2.801.443c.93.146 1.855.288 2.776.429l2.75.413 1.365.202 2.71.391 2.687.377c.89.123 1.778.244 2.661.362l2.637.347 2.614.333c.867.108 1.73.214 2.59.318l2.567.303c.426.05.85.098 1.275.146l2.533.28c.42.047.84.092 1.259.136l2.5.259 1.243.124 2.469.237 1.226.113 2.439.215 1.211.102 2.408.193c.8.061 1.596.12 2.39.178l2.37.163 2.35.149c.781.047 1.559.092 2.334.134l2.315.12 1.152.053c62.523 2.847 105.588-10.991 131.662-46.324 20.655-27.994 25.702-57.003 18.004-89.467-3.254-13.721-8.74-28.012-16.604-44.05a424.53 424.53 0 0 0-1.963-3.952l-.66-1.305-.91-1.781-.946-1.83-1.46-2.78-1.266-2.37-1.59-2.934-1.397-2.543-1.472-2.65-1.237-2.208-2.658-4.694-2.932-5.125-4.551-7.884-6.178-10.67-2.624-4.557-3.206-5.61-2.568-4.548-1.856-3.33-1.084-1.97-1.634-3.006-1.159-2.167-1.115-2.117-.745-1.433-.643-1.248-1-1.963-1.086-2.165-.85-1.715-.429-.872c-8.215-16.744-13.67-31.395-16.513-45.337-6.743-33.07 1.532-61.921 28.519-89.22 52.293-52.7 73.386-107.428 68.405-162.92-3.924-43.709-23.709-85.635-54.248-124.494-12.024-15.299-24.906-29.058-37.79-41.061l-.791-.736-1.564-1.44c-.517-.472-1.029-.938-1.536-1.396l-1.506-1.352-.742-.66-1.46-1.285c-.481-.421-.958-.835-1.428-1.241l-1.395-1.197-1.361-1.151-1.1-.92-.832-.687-1.164-.95-1.059-.85-1.23-.964.302-.398Zm-87.675-22.888.996.747 1.224.94 1.124.88 1.223.973.644.518 1.315 1.068 1.348 1.11c.682.565 1.375 1.146 2.08 1.742l1.426 1.213c.48.411.965.83 1.455 1.254l1.483 1.295 1.51 1.335.765.683c12.44 11.135 24.88 23.909 36.49 38.128 29.25 35.82 48.3 74.549 52.318 115.051 5.096 51.387-14.515 102.254-63.647 151.443-24.74 24.956-32.403 51.607-26.396 82.453 2.537 13.025 7.46 26.764 14.903 42.512l.775 1.631.876 1.825.656 1.35.99 2.011.668 1.343.858 1.701.904 1.77.938 1.812.98 1.871 1.242 2.344 1.789 3.33 1.97 3.623 2.182 3.974 2.747 4.965 2.736 4.92 4.732 8.482 3.42 6.164 2.392 4.351 2.78 5.116 1.143 2.128 1.621 3.053 1.525 2.915 1.446 2.81.928 1.832.906 1.81.888 1.799.862 1.768.427.886.427.89c.284.594.568 1.19.852 1.792 7.136 15.107 12.117 28.56 15.072 41.457 7 30.555 2.397 57.728-16.41 83.711-23.671 32.723-62.743 45.491-119.57 42.827l-2.223-.111-2.242-.127c-.75-.045-1.503-.092-2.26-.142l-2.279-.157-2.298-.173c-.385-.03-.77-.06-1.157-.092l-2.328-.195-2.35-.211a433.01 433.01 0 0 1-3.563-.345l-2.403-.25c-1.61-.17-3.233-.352-4.873-.543l-2.471-.295a520.905 520.905 0 0 1-3.752-.471l-2.532-.333-2.556-.349-1.288-.18-2.595-.372-2.62-.386-2.648-.403-2.674-.417-2.703-.433-1.361-.222-2.744-.456-2.773-.472-2.802-.486-2.832-.503-2.862-.517-1.443-.264-2.908-.54-2.94-.557a998.55 998.55 0 0 1-1.481-.284l-2.987-.578-4.213-.832-5.695-1.14-4.331-.881-4.89-1.014-4.514-.957-5.22-1.131-6.185-1.37-6.87-1.55-7.785-1.783-13.42-3.109-46.207-10.805-9.319-2.157-7.764-1.779-8.083-1.828-6.915-1.54-5.22-1.147-4.434-.962-5.949-1.272-3.967-.837-3.929-.818-1.95-.402-3.873-.79c-1.285-.26-2.564-.517-3.837-.771l-3.801-.752-3.765-.734-3.73-.715-1.853-.35-3.679-.686-3.645-.668-3.612-.648-3.58-.63a964.51 964.51 0 0 0-5.31-.909l-3.5-.582c-41.24-6.777-76.02-9.556-108.255-8.16-40.928 1.775-78.004 12.617-111.395 31.249-28.396 15.844-53.438 36.921-75.291 61.953-17.852 20.448-32.588 42.357-44.396 64.266a330.755 330.755 0 0 0-6.177 12.028l-.916 1.897c-.75 1.567-1.467 3.1-2.15 4.597l-.805 1.778-.657 1.48-.511 1.169-.711 1.657-.437 1.04-.407.987-.467 1.154-.55 1.414-.47-.175.207-.54.482-1.216.335-.826.624-1.504.69-1.623.497-1.147.528-1.197a293.745 293.745 0 0 1 6.704-14.053l1.03-2.009 1.064-2.038c.54-1.026 1.092-2.063 1.657-3.11 11.825-21.94 26.582-43.88 44.46-64.358 21.889-25.073 46.974-46.187 75.423-62.06 33.459-18.67 70.61-29.534 111.618-31.312 27.725-1.201 57.325.683 91.284 5.537l3.354.487c2.246.331 4.51.675 6.795 1.032l3.442.544 3.472.564 3.503.582 3.534.602 1.779.308 3.581.63c.6.106 1.201.214 1.804.322l3.63.658 3.665.678 3.698.696c1.239.235 2.483.474 3.733.715l3.767.734 1.897.374 3.821.762 3.858.781 3.894.8 1.96.407 3.95.828 3.479.737 5.206 1.117 6.001 1.307 8.494 1.883 6.47 1.458 8.58 1.958 9.288 2.145 11.236 2.62 30.115 7.051 16.328 3.797 6.855 1.58 7.79 1.775 6.883 1.541 5.567 1.223 3.303.712 4.495.952 5.742 1.187 3.26.662 6.885 1.377 3.018.594 2.985.578 2.953.563 2.922.548 2.89.533 2.86.517 1.419.252 2.815.494 2.785.48c.924.156 1.843.31 2.757.462l2.728.448 1.353.219 2.686.425 2.659.41 2.632.393 1.306.192 2.592.371c.86.121 1.716.24 2.567.356l2.542.34 2.517.326c.835.106 1.666.21 2.493.31l2.469.295 2.446.28 1.214.133 2.411.256 2.39.242c1.19.116 2.37.227 3.544.333l2.336.203 2.316.187c.769.06 1.534.118 2.296.173l2.277.157c1.133.075 2.26.144 3.379.207l2.23.119 1.108.054c56.675 2.657 95.586-10.06 119.142-42.62 18.717-25.862 23.296-52.888 16.326-83.308-2.946-12.858-7.914-26.277-15.036-41.355l-.851-1.79-.854-1.773-.429-.884c-.502-1.03-1.01-2.06-1.526-3.095l-1.122-2.234-1.16-2.274-1.456-2.808-1.016-1.934-1.33-2.504-1.118-2.084-1.473-2.721-1.564-2.868-3.078-5.588-2.656-4.784-7.045-12.64-3.603-6.512-2.357-4.302-1.659-3.06-1.944-3.63-1.39-2.639-1.486-2.868-1.405-2.767-.337-.674a363.267 363.267 0 0 1-1.656-3.358l-.328-.676c-.602-1.241-1.203-2.5-1.817-3.799-7.46-15.782-12.396-29.558-14.941-42.63-6.039-31.006 1.672-57.824 26.531-82.9 49.03-49.088 68.585-99.808 63.504-151.042-4.006-40.39-23.014-79.033-52.207-114.784-11.593-14.198-24.015-26.953-36.436-38.071l-1.521-1.354-1.495-1.313c-.74-.646-1.47-1.277-2.189-1.893l-1.423-1.21-1.392-1.17-1.362-1.13-1.328-1.086-1.296-1.045-1.22-.97-1.12-.878-1.408-1.08-.8-.598.294-.404Zm-87.676-22.81.778.555 1.104.806 1.198.892.865.654 1.113.85 1.347 1.045a259.34 259.34 0 0 1 3.52 2.802l1.468 1.196.745.614 1.514 1.26.768.645 1.558 1.323c11.977 10.238 23.955 21.998 35.134 35.106 27.897 32.707 46.167 68.158 50.267 105.36 5.196 47.154-12.872 94.052-58.725 139.68-22.637 22.685-29.744 47.28-24.439 76.059 2.24 12.153 6.649 25.02 13.34 39.814l.468 1.028.923 2.014.919 1.976.93 1.967.962 2.001.997 2.04 1.59 3.19 1.74 3.425 1.486 2.88 2.883 5.513 3.395 6.415 6.775 12.71 2.915 5.504 1.672 3.184 1.87 3.591 1.737 3.37.822 1.613 1.308 2.593 1.48 2.98.94 1.92.682 1.413.666 1.394 1.079 2.29.839 1.814.613 1.342.802 1.782.398.893.792 1.8.197.453c6.797 15.616 11.203 29.496 13.247 42.766 3.884 25.221-.928 47.96-16.163 69.538-21.162 29.975-56.096 41.625-107.1 39.138l-1.028-.052-2.068-.115-1.04-.063-2.095-.137c-.702-.049-1.406-.1-2.114-.152l-2.132-.167c-.714-.059-1.431-.12-2.152-.182l-2.171-.197-1.094-.104-2.202-.22-2.224-.234c-.372-.04-.746-.08-1.12-.122l-2.256-.257-2.278-.271-2.302-.287-2.325-.301-2.348-.317-2.373-.331-1.196-.172-2.41-.353-2.437-.37c-.816-.125-1.636-.253-2.462-.383l-2.488-.4-2.516-.413-2.543-.43-2.571-.443-2.6-.46-2.628-.473-2.658-.49-2.689-.504-1.355-.258-2.734-.526-2.765-.542-2.797-.557-7.495-1.522-4.792-.992-3.493-.738-3.493-.751-5.9-1.302-5.63-1.274-7.596-1.752-12.788-2.997-44.286-10.493-9.285-2.178-7.7-1.786-4.58-1.052-6.16-1.398-5.904-1.322-4.09-.903-4.797-1.044-5.483-1.173-3.869-.813-3.686-.765-2.947-.603-1.475-.3c-1.051-.212-2.098-.423-3.142-.63l-3.117-.618-1.55-.304-3.081-.597-1.532-.293-3.047-.575c-.506-.095-1.01-.19-1.515-.283l-3.012-.555-1.498-.272-2.98-.534-2.956-.52c-.983-.17-1.961-.339-2.936-.505l-2.914-.491c-.968-.162-1.932-.321-2.893-.478l-2.872-.463-2.852-.45-2.831-.434-1.409-.212-2.801-.414c-.931-.135-1.858-.268-2.783-.399l-2.763-.385-1.375-.187-2.735-.363-1.36-.177-2.708-.342-2.69-.327a592.99 592.99 0 0 0-1.338-.159l-2.664-.306-2.646-.291c-.44-.048-.878-.094-1.317-.14l-2.62-.27a529.284 529.284 0 0 0-3.902-.378l-2.58-.233-1.285-.112-2.557-.211c-.425-.034-.85-.068-1.273-.1l-2.534-.19a466.369 466.369 0 0 0-3.774-.258l-2.499-.153c-2.49-.145-4.96-.27-7.411-.37l-2.444-.095a379.069 379.069 0 0 0-24.945-.09c-36.855 1.123-70.342 10.522-100.595 27.028-25.688 14.015-48.412 32.793-68.302 55.163-16.012 18.008-29.297 37.303-40.002 56.597l-1.106 2.011c-3.266 5.99-6.055 11.574-8.381 16.638l-.526 1.155-.494 1.1-.461 1.046-.429.99-.647 1.531-.505 1.244-.466-.18.395-.979.366-.878.397-.936.43-.992.463-1.049.495-1.103.528-1.157c.776-1.692 1.605-3.44 2.485-5.244l.898-1.82c1.83-3.676 3.869-7.561 6.12-11.62 10.722-19.324 24.029-38.649 40.066-56.686 19.927-22.41 42.694-41.226 68.437-55.27 30.32-16.543 63.883-25.964 100.819-27.088 9.676-.293 19.603-.192 29.878.292l2.473.124 2.487.139 2.5.153 1.256.082 2.522.175c.843.061 1.689.124 2.537.19l2.552.205c.427.035.854.07 1.282.107l2.575.227 1.293.118 2.6.249c1.303.127 2.612.26 3.928.4l2.64.284 1.327.147 2.665.307c.892.104 1.786.21 2.683.32l2.701.335 1.358.173 2.728.357 1.37.183 2.757.378c.922.129 1.847.26 2.775.393l2.794.407 1.405.208 2.823.428 2.844.443c.951.15 1.906.302 2.864.456l2.885.47 1.45.241 2.916.492 1.466.251 2.949.513 1.482.262 2.981.534 3.004.548 3.026.563 3.049.576 3.072.59 1.544.3 3.108.61 3.131.626 1.575.317c1.231.25 2.46.5 3.687.752l2.21.456c1.475.305 2.951.613 4.434.925l4.498.955 3.903.841 6.394 1.401 6.64 1.483 7.854 1.785 6.454 1.487 8.826 2.058 11.736 2.768 34.905 8.276 14.354 3.37 7.625 1.764 5.285 1.201 4.775 1.064 4.462.972 3.802.809 4.406.918 7.146 1.458 3.453.694 2.78.55 2.747.534 2.716.518 2.686.504 1.332.247 2.64.48 2.613.467 1.295.227 2.569.444 2.54.429 1.26.208 2.5.407 2.473.39c.82.129 1.636.254 2.447.377l2.42.36c.804.119 1.602.234 2.396.347l2.371.331 1.176.16 2.334.309 2.311.293 1.147.142 2.276.27c.377.045.754.088 1.13.13l2.242.25c.744.08 1.485.158 2.221.234l2.2.219c.73.07 1.457.138 2.18.204l2.159.189 1.072.089 2.13.167c.706.053 1.41.104 2.11.152l2.092.137 1.04.063 2.065.114 1.026.052c50.85 2.48 85.621-9.115 106.667-38.926 15.158-21.469 19.943-44.077 16.078-69.174-2.037-13.222-6.43-27.063-13.211-42.642l-.593-1.354-.396-.896a336.982 336.982 0 0 0-1.603-3.561l-.618-1.343-1.063-2.276-.878-1.846-.905-1.879-1.18-2.407-1.238-2.49-1.308-2.592-1.674-3.27-1.49-2.881-1.589-3.042-2.403-4.562-3.843-7.227-6.079-11.415-3.503-6.647-1.643-3.155-2.107-4.099-1.336-2.645-1.074-2.16-.676-1.376-.647-1.332-.79-1.646a380.542 380.542 0 0 1-3.24-6.988c-6.708-14.829-11.129-27.731-13.377-39.93-5.335-28.937 1.82-53.698 24.577-76.502 45.75-45.526 63.76-92.275 58.58-139.272-4.086-37.089-22.312-72.453-50.15-105.091-11.16-13.086-23.12-24.828-35.078-35.05a305.55 305.55 0 0 0-3.082-2.599l-1.495-1.236-1.464-1.194c-.483-.39-.96-.774-1.432-1.15l-1.397-1.109-1.363-1.064-.667-.516-1.11-.849-1.275-.96-1.153-.854-.9-.653-.6-.427.285-.41ZM608.35 91.322l.466.311.984.674.728.507 1.19.842.857.615 1.363.992 1.403 1.038 1.44 1.082 1.478 1.128c.25.191.5.385.752.58l1.53 1.194c1.032.81 2.086 1.65 3.16 2.52 11.507 9.31 23.015 20.026 33.756 31.994 26.517 29.546 43.99 61.693 48.173 95.605 5.241 42.503-10.878 85.065-52.458 126.847l-1.268 1.266c-20.547 20.391-27.107 42.921-22.505 69.635 1.943 11.282 5.836 23.28 11.777 37.125l.392.91.774 1.782.945 2.142.778 1.732 1.08 2.362.889 1.91.696 1.477 1.232 2.574 1.062 2.19 1.443 2.94 1.592 3.21 2.73 5.453 7.508 14.872 2.176 4.346 1.031 2.075 1.64 3.322.94 1.917 1.492 3.077 1.133 2.362.816 1.719.787 1.676 1.01 2.174.964 2.11.923 2.054.667 1.507.646 1.482.626 1.46.808 1.917.586 1.419.57 1.406.74 1.86.539 1.388.702 1.846.514 1.385.506 1.389.664 1.862.49 1.408c12.139 35.153 10.897 63.88-7.527 90.749-18.655 27.246-49.454 37.78-94.658 35.463l-1.95-.107-1.968-.123c-.659-.043-1.32-.09-1.986-.138l-2.005-.153-2.026-.17-1.02-.09-2.055-.192c-.689-.066-1.381-.135-2.077-.207l-2.098-.223-1.058-.118-2.131-.246a369.82 369.82 0 0 1-1.075-.129l-2.166-.27a392.46 392.46 0 0 1-1.093-.14l-2.202-.293-1.11-.152-2.24-.317c-.376-.054-.752-.108-1.13-.164l-2.278-.34c-.382-.057-.765-.116-1.15-.175l-2.318-.363-2.345-.379-2.374-.394-1.197-.203-2.416-.418-2.445-.434-1.234-.222-2.49-.457-2.521-.473-1.272-.242-2.568-.497-2.6-.512-2.633-.528-1.328-.27-6.994-1.446-5.606-1.177-3.657-.788-2.31-.51-3.874-.872-4.823-1.114-7.944-1.872-9.643-2.305-40.255-9.692-7.921-1.888-7.502-1.768-6.128-1.426-5.879-1.35-4.727-1.07-4.587-1.024-3.58-.788-3.509-.762-4.298-.918-5.048-1.056-4.135-.845-2.457-.494-2.34-.464-1.556-.305c-2.07-.404-4.13-.799-6.19-1.186l-1.546-.29c-1.288-.24-2.577-.477-3.869-.713l-3.367-.606-3.34-.586a744.344 744.344 0 0 0-6.6-1.114l-3.261-.528c-29.235-4.657-55.377-6.907-79.805-6.556-32.732.5-62.591 8.457-89.679 22.808-22.962 12.166-43.354 28.608-61.276 48.266-14.182 15.556-26.024 32.225-35.63 48.893a251.577 251.577 0 0 0-7.328 13.634l-.816 1.661-.662 1.375-.508 1.076-.473 1.019-.437.958-.518 1.164-.569 1.326-.462-.189.358-.846.332-.759.403-.901.439-.962.474-1.021.51-1.08.269-.561c2.34-4.872 5.188-10.3 8.556-16.144 9.622-16.697 21.484-33.395 35.693-48.98 17.958-19.698 38.395-36.176 61.411-48.37 27.156-14.389 57.092-22.365 89.906-22.867 24.459-.351 50.627 1.9 79.887 6.562l3.264.528 1.642.271 3.303.558c2.21.378 4.44.77 6.686 1.174l1.688.305 1.55.284c1.548.285 3.093.573 4.64.865l3.075.587 3.835.747 2.313.458 3.105.624 3.133.641 2.374.492 4.009.844 4.086.876 5.025 1.097 6.057 1.35 4.475 1.012 7.454 1.714 6.855 1.601 8.264 1.955 12.206 2.926 39.295 9.455 9.34 2.215 6.79 1.574 5.329 1.195 2.116.461 3.18.681 8.449 1.765 2.096.433 2.663.543 1.32.266 2.613.52 2.582.503 2.55.488 2.518.472c.417.078.833.154 1.248.23l2.473.45 2.443.432 2.413.418 2.385.402 2.357.386 2.33.37 1.154.18 2.289.347c2.276.34 4.512.655 6.712.948l2.188.285 2.164.27c1.076.13 2.144.255 3.202.374l2.107.23 2.085.216 2.063.2 1.024.093 2.032.177 2.012.16 1.993.146.99.067 1.965.122 1.947.107c45.047 2.31 75.68-8.167 94.22-35.246 18.323-26.722 19.558-55.287 7.467-90.303a246.207 246.207 0 0 0-1.32-3.727l-.508-1.384-.517-1.382-.705-1.844-.543-1.387-.368-.929-.565-1.4-.58-1.413-.597-1.427-.613-1.444-.632-1.465-.874-1.99-.68-1.524-.703-1.553-.975-2.124-.504-1.085-.778-1.661-1.08-2.28-1.423-2.963-1.509-3.103-1.273-2.59-2.025-4.085-2.174-4.342-1.537-3.05-6.927-13.727-3.093-6.205-2.024-4.125-1.615-3.353-.668-1.406-1.264-2.706-1.041-2.275-.568-1.262-.843-1.896-.7-1.603-.852-1.97c-5.956-13.88-9.86-25.912-11.811-37.238-4.582-26.601 1.848-49.111 22.03-69.459l.616-.616c42.414-42.084 58.856-84.924 53.582-127.697-4.168-33.796-21.595-65.856-48.05-95.332-10.721-11.947-22.21-22.644-33.698-31.94-.536-.433-1.067-.86-1.593-1.28l-1.56-1.235a247.873 247.873 0 0 0-7.276-5.512l-1.529-1.103-.804-.57-1.108-.775-1.44-.979.274-.417Zm-87.677-22.81.843.532.893.578 1.5.991.822.554 1.31.894c.442.304.891.616 1.347.934l1.384.976c.934.664 1.892 1.355 2.872 2.072l1.486 1.097c.751.558 1.514 1.131 2.288 1.72 11.053 8.4 22.107 18.085 32.424 28.925 25.172 26.449 41.87 55.334 46.135 85.959 5.337 38.336-9.282 76.975-47.678 115.213l-1.17 1.159c-18.43 18.137-24.43 38.634-20.53 63.303 1.647 10.42 5.024 21.556 10.212 34.459l1.03 2.537 1.02 2.46 1.04 2.454.952 2.193 1.313 2.96 1.283 2.838 1.425 3.102 2.695 5.779 8.596 18.197 1.747 3.734 1.86 4.018 1.225 2.678 1.147 2.542.87 1.95 1.031 2.35.789 1.823.946 2.226.91 2.188.563 1.376.371.916c.492 1.222.976 2.446 1.46 3.689 15.092 38.812 15.892 68.151-2.084 95.402-16.163 24.512-42.826 33.921-82.233 31.774l-.878-.05-1.768-.11-.891-.06-1.795-.133-1.813-.147-1.832-.163-.924-.086-1.861-.185-.939-.098-1.892-.207c-.634-.072-1.272-.146-1.914-.222l-1.935-.237c-.65-.082-1.302-.166-1.958-.252l-1.981-.267c-.665-.092-1.333-.186-2.005-.282l-2.029-.298-2.054-.312-2.079-.327-2.105-.343-2.132-.358-2.159-.372a483.95 483.95 0 0 1-1.09-.193l-2.2-.395-2.23-.411-2.26-.426-2.288-.442-2.319-.456-2.35-.472-2.382-.488-2.414-.502-2.447-.519-2.64-.568-2.682-.585-3.65-.811-4.712-1.068-4.91-1.135-4.092-.961-5.352-1.275-11.034-2.677-30.083-7.398-6.078-1.48-5.875-1.417-5.682-1.355-3.322-.784-4.331-1.013-5.266-1.215-5.112-1.16-2.998-.67-3.92-.865-2.888-.627-2.843-.61-2.803-.592-2.764-.575-3.63-.742-3.571-.713-3.519-.685-2.608-.497-3.44-.64-2.557-.464-1.693-.302-2.527-.441-2.513-.429-2.501-.416-2.492-.405-1.657-.263-2.482-.385-2.479-.375-2.478-.364-2.586-.369-.88-.123-1.764-.242c-19.28-2.624-37.322-4.02-54.506-4.094-28.608-.13-54.846 6.374-78.782 18.566-20.245 10.313-38.32 24.415-54.29 41.359-12.358 13.112-22.758 27.162-31.263 41.211-2.977 4.917-5.504 9.483-7.59 13.58l-.693 1.378-.423.858-.575 1.193-.472 1.009-.32.705-.458-.2.417-.916.566-1.199.393-.81.424-.862.696-1.384c2.091-4.107 4.624-8.683 7.607-13.61 8.523-14.079 18.943-28.156 31.328-41.296 16.006-16.983 34.126-31.121 54.426-41.461 24.006-12.228 50.322-18.752 79.012-18.62 17.206.073 35.27 1.47 54.57 4.097 2.944.401 5.873.82 8.805 1.263l2.575.394 2.45.385 1.635.263 2.461.404 3.297.557 2.488.432 2.504.445 2.521.458 3.394.632 2.571.49 3.47.676 2.635.524 2.666.54 3.608.744 1.827.383 3.707.788 2.827.611 4.81 1.057 3.943.882 4.032.915 5.175 1.192 5.334 1.247 5.505 1.304 5.685 1.363 5.878 1.423 39.68 9.74 6.034 1.453 5.296 1.257 3.053.716 3.943.913 2.87.656 2.804.632 2.746.612 2.695.592 3.527.76 2.445.518 2.411.502 1.194.246 2.364.479 2.332.464 2.301.448 2.271.433 2.242.419 2.213.402c.366.066.731.132 1.095.196l2.17.38 1.075.185 2.13.357c.705.116 1.406.23 2.102.342l2.077.327c.688.106 1.371.21 2.05.312l2.027.297c1.007.144 2.005.283 2.994.417l1.967.26.975.123 1.932.237c.961.114 1.914.223 2.859.327l1.879.2 1.858.184 1.84.17 1.819.154 1.8.14.894.064 1.775.117 1.756.103c39.247 2.138 65.739-7.211 81.788-31.55 17.871-27.09 17.075-56.27 2.036-94.946l-.363-.928-.728-1.84-.534-1.329-.54-1.329-.736-1.78-.757-1.8-.584-1.37-.602-1.393-.83-1.9-.87-1.962-1.147-2.554-.974-2.14-1.837-3.987-2.336-5.004-2.979-6.31-5.588-11.823-2.393-5.125-1.33-2.883-1.206-2.649-1.256-2.804-.874-1.99-.833-1.926-.664-1.562c-.315-.749-.627-1.496-.939-2.25l-.723-1.766-.648-1.6c-5.201-12.935-8.588-24.105-10.242-34.568-3.884-24.575 2.003-45.069 20.12-63.189l.553-.548c39.16-38.51 54.072-77.388 48.704-115.947-4.248-30.506-20.896-59.304-46.002-85.683-10.298-10.82-21.331-20.488-32.365-28.873a272.21 272.21 0 0 0-1.53-1.154l-1.498-1.114-1.467-1.074a233.855 233.855 0 0 0-4.195-2.981l-1.326-.912-1.064-.722-1.176-.785-1.065-.697-1.383-.88.262-.426ZM432.929 45.7l1.02.596.646.388 1.06.646 1.166.724 1.347.851c1.14.727 2.322 1.498 3.545 2.312l1.486.998c1.253.849 2.544 1.74 3.87 2.674 10.599 7.473 21.198 16.111 31.091 25.808 23.818 23.345 39.736 48.97 44.081 76.316 5.432 34.185-7.683 68.924-42.88 103.648l-1.074 1.052c-16.333 15.907-21.785 34.39-18.594 57.035 1.308 9.285 4.039 19.244 8.252 30.762l.696 1.883.61 1.626.569 1.493 1.063 2.73 1 2.502.664 1.63.85 2.054 1.582 3.753 3.102 7.211 6.547 15.02.996 2.302 2.018 4.708 1.009 2.386 1.125 2.7 1.055 2.571 1.005 2.5.328.825c.38.963.757 1.926 1.135 2.903l.765 1.997a275.79 275.79 0 0 1 3.133 8.68l.628 1.864c4.307 12.97 6.781 24.327 7.45 35.183 1.037 16.806-2.423 31.895-11.144 45.805-13.69 21.84-36.25 30.132-69.945 28.126l-1.59-.101a193.04 193.04 0 0 1-1.606-.116l-1.624-.131-.818-.071-1.651-.153c-.554-.054-1.11-.11-1.67-.168l-1.69-.183-1.711-.197-1.732-.213-1.753-.227-1.776-.243-1.8-.257-.908-.135-1.835-.28c-.308-.047-.617-.096-.927-.145l-1.873-.303-.946-.157-1.912-.325-1.938-.34a392.4 392.4 0 0 1-.98-.177l-1.98-.363-2.009-.379-2.037-.394-2.068-.41-2.098-.424-2.13-.44-2.16-.456-1.093-.233-2.21-.479-3.022-.668-3.151-.71-4.053-.934-4.216-.992-4.42-1.06-5.63-1.375-13.615-3.403-22.288-5.627-5.134-1.281-3.35-.829-3.3-.81-3.254-.792-3.208-.774-4.729-1.128-3.098-.73-3.057-.711-3.015-.695-2.976-.677-1.473-.332-2.919-.65-2.881-.635-2.846-.617-2.811-.6-1.393-.293-2.76-.575-2.73-.558-2.698-.541-1.338-.265-2.655-.516-1.316-.253-2.613-.492a619.46 619.46 0 0 0-2.586-.476l-2.562-.46c-.424-.076-.848-.15-1.271-.224l-2.526-.437c-.838-.143-1.672-.283-2.503-.42l-2.482-.405-1.233-.197-2.452-.381c-.814-.125-1.625-.247-2.433-.366l-2.416-.351a455.086 455.086 0 0 0-3.594-.498l-2.378-.313c-.79-.102-1.578-.201-2.364-.298l-2.352-.283-2.34-.269-2.33-.254-2.322-.239a387.605 387.605 0 0 0-24.111-1.665l-2.298-.08-1.15-.035c-45.57-1.34-83.858 17.139-115.093 48.773-10.553 10.687-19.52 22.138-26.93 33.588a183.4 183.4 0 0 0-6.268 10.394l-.609 1.105-.657 1.22-.394.75-.36.696-.41.815-.135.278-.452-.216.328-.663.4-.785.379-.726.414-.779.448-.83.237-.433c.246-.446.498-.9.757-1.36l.797-1.399c1.498-2.6 3.2-5.392 5.106-8.338 7.426-11.478 16.415-22.956 26.993-33.669 31.326-31.725 69.74-50.266 115.463-48.92 6.987.202 13.897.587 20.87 1.165l2.328.2c.776.07 1.554.14 2.333.215l2.34.23c.781.078 1.564.16 2.348.243l2.358.259 2.367.273 2.38.289c.795.099 1.593.2 2.392.304l2.407.319c2.413.327 4.85.676 7.313 1.05l2.474.381 2.493.397 2.514.413 2.536.429 2.559.445 1.289.229 2.595.47 2.622.485 1.321.25 2.664.51 2.692.528 2.722.544 1.372.278 2.77.57 1.397.291 2.819.595 2.853.613 1.44.312 2.908.639 2.946.656 2.984.674 3.024.69 3.065.71 3.107.727 3.15.745 4.81 1.152 4.913 1.193 5.02 1.235 3.41.846 33.31 8.394 5.073 1.26 5.693 1.393 3.59.866 2.598.618 3.356.789 3.251.75 3.168.719 1.559.348 2.24.493 2.208.479 2.175.462 2.142.448 2.111.431 2.08.417c.344.068.687.136 1.029.202l2.035.394 2.006.378.992.184 1.963.355 1.936.34 1.909.325 1.883.31.931.149 1.845.287.913.138 1.808.264 1.785.25 1.762.235 1.74.22c.287.035.575.07.861.103l1.707.198.846.093 1.677.175.831.082 1.648.152 1.63.138 1.611.124c.267.02.534.038.8.056l1.585.101c33.53 1.997 55.915-6.23 69.493-27.892 8.662-13.819 12.099-28.803 11.069-45.509-.762-12.355-3.875-25.374-9.383-40.712l-.7-1.93a306.816 306.816 0 0 0-1.477-3.933l-.87-2.248-.648-1.651-.993-2.484-1.034-2.54-.91-2.197-1.374-3.263-.848-1.992-1.865-4.335-8.122-18.656-1.877-4.374-1.457-3.449-1.15-2.774-1.05-2.586-.86-2.17-.806-2.078-.541-1.419-.63-1.677-.32-.86c-4.444-11.995-7.311-22.31-8.665-31.916-3.18-22.568 2.18-41.066 18.251-56.982l.49-.481c35.893-34.966 49.269-69.903 43.81-104.264-4.326-27.224-20.19-52.76-43.938-76.037-9.873-9.676-20.451-18.298-31.03-25.756-.793-.56-1.574-1.103-2.343-1.632l-1.518-1.037-1.483-.995-1.444-.954-1.406-.912c-.461-.298-.916-.588-1.364-.87l-1.065-.67-1.128-.695-.692-.421-1.23-.732-.425-.245.247-.435Zm-87.68-22.89.775.41 1.291.705 1.225.686 1.077.615 1.31.76.67.395 1.367.816c.694.417 1.401.848 2.121 1.293l1.458.908.742.467 1.507.962c10.151 6.534 20.303 14.113 29.78 22.652 22.472 20.25 37.614 42.622 42.04 66.69 5.523 30.038-6.1 60.865-38.124 92.039l-.977.944c-14.208 13.658-19.1 30.135-16.614 50.777l.175 1.395.124.921.13.917.136.912.143.909.227 1.36.16.906.17.908.176.909.184.912.194.916.202.922.211.928.221.935.231.944.241.954.252.964.262.977.273.99.431 1.51.302 1.027.476 1.573.333 1.071.346 1.091.543 1.676.38 1.145.595 1.763.414 1.206.65 1.859.92 2.577.482 1.334.755 2.059.792 2.134.83 2.211 1.168 3.077 1.562 4.064 1.679 4.322 1.801 4.598 2.684 6.842 1.543 3.979 1.19 3.107 1.087 2.892.72 1.942.71 1.941.355.984.694 1.945.672 1.915a272.187 272.187 0 0 1 3.818 11.784l.503 1.721c.493 1.71.952 3.385 1.379 5.032l.415 1.638c1.821 7.326 2.979 14.09 3.503 20.657 1.281 16.069-1.46 30.231-8.948 43.04-11.248 19.229-29.729 26.393-57.804 24.487l-.7-.05-1.41-.108-.712-.06-1.436-.131-1.454-.146-1.473-.16-1.493-.174-.754-.093-1.524-.197a204.49 204.49 0 0 1-.77-.104l-1.555-.22a223.56 223.56 0 0 1-1.58-.233l-1.601-.25-1.627-.264-1.651-.279c-.555-.095-1.114-.193-1.678-.294l-1.704-.31-1.731-.324-1.76-.34-1.789-.356-1.818-.37-1.85-.387-1.88-.402-1.912-.417-1.945-.433-1.98-.45-2.013-.464-2.931-.69-3.923-.943-3.415-.84-3.595-.9-5.418-1.377-31.844-8.29-4.028-1.032-5.257-1.33-3.862-.963-3.794-.933-2.493-.606-3.688-.885-2.425-.574-2.4-.56-3.551-.819-2.338-.53-2.314-.517-2.292-.505-2.27-.493-1.127-.242-2.239-.474-1.112-.233-2.21-.456-1.097-.224-2.182-.438-2.165-.427-2.148-.415-2.132-.403-2.116-.392-2.103-.38-2.089-.368-2.076-.357-1.033-.175-2.058-.34-2.048-.33-1.02-.16-2.032-.312-2.024-.302-2.015-.29-1.005-.142-2.005-.274-1.998-.264-.997-.128-1.99-.248-.994-.12-1.985-.232-.99-.112-1.98-.217c-.66-.07-1.32-.139-1.979-.206l-1.976-.196-1.977-.186-1.976-.176-1.978-.166-1.98-.156-1.982-.146-.993-.07-1.988-.132-.995-.062c-37.717-2.25-70.112 12.192-97.103 37.656a177.122 177.122 0 0 0-22.667 26.053 149.86 149.86 0 0 0-5.697 8.584l-.456.751-.417.7-.379.648-.65 1.15-.44-.237.245-.442.412-.721.381-.652.644-1.074.234-.384a150.357 150.357 0 0 1 5.716-8.613 177.618 177.618 0 0 1 22.731-26.126c27.084-25.553 59.607-40.051 97.476-37.792l.997.062 1.99.132 1.986.142c.662.049 1.323.1 1.983.151l1.981.161.99.085 1.98.176 1.978.186.99.097 1.979.201 1.98.212 1.984.222 1.986.232 1.99.243 1.996.253.999.131 2.003.27 1.005.138 2.013.286 2.022.296 2.03.307 2.039.319 2.049.33 2.06.34 1.034.174 2.078.358 2.091.369 1.05.188 2.112.386 2.126.398 1.069.203 2.15.416 2.165.426 1.09.218 2.193.445 2.211.457 2.23.469 2.252.48 2.272.494 2.293.505c.384.085.77.17 1.155.257l2.328.524 3.536.81 3.591.837 2.427.574 2.454.587 2.48.6 2.51.613 2.539.626 2.568.639 3.91.983 3.981 1.013 30.337 7.899 5.8 1.491 4.552 1.154 3.554.886 2.718.667 3.277.79 2.553.604 2.029.472 1.993.456 2.926.655 1.91.417 1.877.4 1.846.387 1.816.37 1.786.355.882.171 1.742.332c.288.054.575.108.86.16l1.702.31 1.674.293.828.142 1.636.27c.54.089 1.078.174 1.61.257l1.588.24c.262.04.524.078.785.116l1.553.219c.513.07 1.024.138 1.53.204l1.51.189.747.089 1.48.167.732.078 1.45.145 1.434.13 1.415.117 1.399.101c27.903 1.895 46.2-5.199 57.338-24.24 7.433-12.715 10.155-26.776 8.881-42.749-.56-7.026-1.85-14.281-3.906-22.22l-.437-1.652a208.863 208.863 0 0 0-1.965-6.822l-.547-1.763-.57-1.788-.59-1.813c-.201-.61-.406-1.223-.614-1.84l-.637-1.869-.327-.944-.67-1.911-.343-.966-.705-1.956-.709-1.94-1.214-3.263-1.16-3.057-1.69-4.38-2.265-5.79-1.988-5.06-2.061-5.29-1.279-3.316-1.205-3.158-.576-1.522-1.1-2.935-.78-2.112-.745-2.039-.936-2.61-.445-1.263-.64-1.842-.606-1.784-.575-1.73-.366-1.124-.353-1.103-.34-1.084-.327-1.064-.315-1.046-.303-1.029-.29-1.013-.415-1.493-.133-.491-.257-.973-.366-1.438-.231-.947-.222-.938-.212-.93-.202-.924-.194-.92-.185-.914-.09-.457-.173-.91-.244-1.364-.154-.91-.147-.911-.207-1.372-.13-.92-.125-.924-.118-.932-.057-.468c-2.478-20.573 2.332-37.076 16.319-50.766l.445-.431c32.649-31.385 44.501-62.367 38.955-92.533-4.043-21.987-17.094-42.576-36.546-61.424l-1.307-1.254a204.142 204.142 0 0 0-4.03-3.73c-9.455-8.52-19.585-16.083-29.716-22.603-.506-.326-1.008-.646-1.504-.96l-1.47-.924c-.728-.453-1.443-.892-2.144-1.317l-1.383-.833-1.346-.796c-.22-.13-.44-.257-.658-.384l-1.287-.74-1.264-.713-1.13-.624-1.315-.703.23-.444ZM257.568 0l.934.442.681.33.74.364 1.213.61c.655.332 1.326.678 2.014 1.039l1.397.739.714.383 1.458.794c1.232.677 2.505 1.393 3.813 2.146 9.719 5.595 19.437 12.114 28.509 19.493l.68.555 1.346 1.116c1.113.932 2.207 1.87 3.28 2.812l1.279 1.134a161.85 161.85 0 0 1 4.317 4.012l1.189 1.158c14.527 14.315 24.364 29.827 27.949 46.384 5.67 26.19-4.757 53.381-34.346 81.242-12.096 11.475-16.438 26.006-14.668 44.698.04.424.082.845.126 1.264l.09.836.095.83.1.829.146 1.126.212 1.5.173 1.126.122.753.194 1.134.137.761.143.766.149.77.236 1.168.166.788.262 1.196.278 1.217.295 1.24.313 1.266.33 1.294.35 1.325.496 1.82.532 1.884.57 1.957.298 1.007.467 1.55.658 2.14.7 2.232.744 2.33.992 3.059 1.287 3.902.918 2.75 1.472 4.367 3.535 10.393 1.54 4.593.869 2.636.5 1.54.614 1.91.593 1.874.574 1.841.553 1.809.533 1.777.514 1.747c.168.578.333 1.15.494 1.719l.475 1.69.455 1.663.436 1.638.417 1.612.201.798.389 1.578.37 1.556.35 1.535c1.139 5.084 1.967 9.839 2.505 14.45l.152 1.378c.072.688.138 1.372.197 2.055 1.296 14.96-.759 27.894-6.793 39.338-8.847 16.833-23.304 22.876-46.021 20.97l-1.181-.106-1.197-.119c-.401-.042-.805-.086-1.212-.132l-1.23-.147-.622-.078-1.258-.167a147.36 147.36 0 0 1-.636-.09l-1.288-.188c-.433-.065-.87-.133-1.31-.202l-1.33-.217a180.1 180.1 0 0 1-.674-.114l-1.366-.239-1.391-.253-1.416-.268-1.443-.283-1.47-.298-1.498-.313-1.528-.327-1.558-.344-1.59-.358-1.621-.374-1.655-.39-2.547-.613-.867-.213-1.76-.436-2.893-.734-3.988-1.047-14.807-3.982-23.203-6.3-1.541-.409-3.052-.802-1.511-.393-2.992-.771-2.954-.751-2.918-.732-2.883-.711-1.43-.349-2.835-.683-1.405-.334-2.79-.654-1.385-.32-2.75-.626-2.723-.607-2.701-.589a550.19 550.19 0 0 0-5.338-1.123l-2.641-.535-2.625-.517-1.306-.252-2.603-.49a467.847 467.847 0 0 0-3.882-.705l-2.575-.449a442.84 442.84 0 0 0-5.129-.847l-2.557-.399-2.554-.383-2.552-.367a423.644 423.644 0 0 0-14.098-1.742c-29.83-3.168-56.384 7.163-79.216 26.338A143.831 143.831 0 0 0 6.743 391.7a118.93 118.93 0 0 0-4.725 6.093l-.442.619-.4.569-.723 1.067-.032.05-.421-.27.325-.489.256-.376.587-.84.445-.622a119.428 119.428 0 0 1 4.745-6.12 144.328 144.328 0 0 1 18.406-18.56c22.928-19.256 49.609-29.636 79.59-26.452a424.126 424.126 0 0 1 17.946 2.3l2.558.392c4.265.666 8.546 1.4 12.877 2.204l2.606.491 2.619.51c.438.085.876.172 1.315.26l2.643.535a567.12 567.12 0 0 1 9.407 2.015l2.738.617 2.765.636 1.393.325 2.806.664 2.837.683 2.87.703 1.446.358 2.92.732 2.957.752 2.994.772 1.512.393 3.054.803 3.948 1.057 30.632 8.305 7.34 1.954 2.71.701 1.795.452 2.622.648 1.704.413 2.49.589 1.62.373 1.586.358 1.555.342 1.525.328 1.495.312 1.467.297 1.44.282 1.412.268.697.128 1.375.245.678.117 1.34.224c.442.072.88.142 1.316.21l1.295.195 1.274.18c.21.03.42.058.63.086l1.244.16 1.226.145 1.209.133.598.06 1.185.112.586.051c22.535 1.891 36.794-4.07 45.538-20.704 5.986-11.352 8.025-24.192 6.737-39.062-.412-4.76-1.139-9.63-2.202-14.823l-.313-1.492c-.053-.25-.108-.502-.163-.754l-.34-1.52-.36-1.542-.378-1.563-.196-.79-.407-1.597-.425-1.621-.22-.82-.454-1.66-.474-1.686c-.161-.567-.326-1.138-.493-1.715l-.513-1.743-.264-.883-.542-1.79-.278-.906-.573-1.837-.896-2.82-.809-2.495-1.134-3.436-1.925-5.713-2.755-8.092-1.624-4.816-1.007-3.018-1.401-4.257-.864-2.67-.612-1.922-.771-2.457-.72-2.348-.342-1.134-.648-2.197-.602-2.107-.423-1.526-.268-.994-.258-.975-.248-.96-.354-1.408-.332-1.376-.311-1.347-.292-1.322-.183-.868-.176-.86-.248-1.276-.156-.843-.22-1.254-.138-.832-.131-.828-.185-1.24-.058-.414-.166-1.24-.153-1.246-.14-1.253-.13-1.264-.041-.425c-1.784-18.835 2.604-33.517 14.822-45.109 29.47-27.748 39.83-54.768 34.2-80.772-3.947-18.232-15.544-35.214-32.678-50.727l-1.263-1.132a181.369 181.369 0 0 0-5.926-5.03c-9.049-7.361-18.746-13.865-28.442-19.448a215.502 215.502 0 0 0-5.971-3.315l-1.394-.737c-.457-.24-.907-.473-1.35-.7l-1.478-.75-1.126-.557-1.456-.698-.148-.068.208-.455Z" />
  </defs>
  <g fill="none" fill-rule="evenodd">
    <mask id="b" fill="#fff">
      <use xlink:href="#a" />
    </mask>
    <g mask="url(#b)" opacity=".5">
      <g transform="translate(-154.21 -335.227)">
        <mask id="d" fill="#fff">
          <use xlink:href="#c" />
        </mask>
        <use xlink:href="#c" fill="#D09431" fill-rule="nonzero" />
        <g mask="url(#d)">
          <path d="M154.21 335.227h1024v718h-1024z" class="background-lines" />
        </g>
      </g>
    </g>
  </g>
</svg>
