<svg xmlns="http://www.w3.org/2000/svg" width="399" height="183">
  <path fill="#FFF" fill-rule="nonzero"
    d="m171.963 171.316.071.033c.161.071.327.134.498.187l.226.064-.386.44a4.657 4.657 0 0 0-.444.564.714.714 0 0 0-.108.372c0 .208.084.376.252.504.168.128.444.208.828.24l4.584.384c2.048.16 3.072 1.08 3.072 2.76 0 .992-.308 1.888-.924 2.688-.616.8-1.436 1.436-2.46 1.908s-2.168.708-3.432.708c-1.36 0-2.452-.272-3.276-.816-.824-.544-1.236-1.248-1.236-2.112 0-.336.092-.716.276-1.14.184-.424.548-.908 1.092-1.452l.97-.971-.083-.017a3.124 3.124 0 0 1-1.019-.44c-.456-.312-.684-.716-.684-1.212 0-.416.144-.76.432-1.032.288-.272.656-.616 1.104-1.032l.647-.628Zm-34.104 0 .071.033c.161.071.327.134.498.187l.226.064-.386.44a4.657 4.657 0 0 0-.444.564.714.714 0 0 0-.108.372c0 .208.084.376.252.504.168.128.444.208.828.24l4.584.384c2.048.16 3.072 1.08 3.072 2.76 0 .992-.308 1.888-.924 2.688-.616.8-1.436 1.436-2.46 1.908s-2.168.708-3.432.708c-1.36 0-2.452-.272-3.276-.816-.824-.544-1.236-1.248-1.236-2.112 0-.336.092-.716.276-1.14.184-.424.548-.908 1.092-1.452l.97-.971-.083-.017a3.124 3.124 0 0 1-1.019-.44c-.456-.312-.684-.716-.684-1.212 0-.416.144-.76.432-1.032.288-.272.656-.616 1.104-1.032l.647-.628Zm34.681 4.488-.097.116a19.47 19.47 0 0 0-.875 1.1c-.296.408-.444.836-.444 1.284 0 .72.348 1.268 1.044 1.644.696.376 1.652.564 2.868.564 1.344 0 2.396-.256 3.156-.768.76-.512 1.14-1.184 1.14-2.016 0-.528-.176-.912-.528-1.152-.352-.24-.992-.392-1.92-.456l-4.344-.316Zm-34.104 0-.097.116a19.47 19.47 0 0 0-.875 1.1c-.296.408-.444.836-.444 1.284 0 .72.348 1.268 1.044 1.644.696.376 1.652.564 2.868.564 1.344 0 2.396-.256 3.156-.768.76-.512 1.14-1.184 1.14-2.016 0-.528-.176-.912-.528-1.152-.352-.24-.992-.392-1.92-.456l-4.344-.316ZM349.924 156.8v16.176c0 .496.112.856.336 1.08.204.204.659.354 1.365.452l.219.028v.648l-3.672.864h-.336v-1.656h-.216c-.448.48-.9.856-1.356 1.128-.456.272-.904.46-1.344.564-.44.104-.876.156-1.308.156-1.088 0-2.056-.264-2.904-.792a5.395 5.395 0 0 1-1.98-2.184c-.472-.928-.708-1.984-.708-3.168 0-1.312.284-2.48.852-3.504a6.424 6.424 0 0 1 2.316-2.424c.976-.592 2.072-.888 3.288-.888.56 0 1.12.064 1.68.192.56.128 1.096.36 1.608.696v-4.152c0-.512-.112-.876-.336-1.092-.224-.216-.736-.372-1.536-.468v-.6l3.696-1.056h.336Zm-157.392 6.48c1.04 0 1.892.248 2.556.744.664.496.98 1.192.948 2.088l-.24 7.32c-.016.624.14 1.024.468 1.2.328.176.956.296 1.884.36v.552l-.84.216c-.512.16-.916.268-1.212.324a3.97 3.97 0 0 1-.684.084c-.432 0-.756-.096-.972-.288a1.576 1.576 0 0 1-.456-.672 5.094 5.094 0 0 1-.18-.624h-.192c-.688.672-1.332 1.116-1.932 1.332-.6.216-1.212.324-1.836.324-.72 0-1.284-.116-1.692-.348-.408-.232-.696-.528-.864-.888a2.56 2.56 0 0 1-.252-1.092c0-.544.196-1.092.588-1.644.392-.552 1.04-1.108 1.944-1.668.904-.56 2.124-1.112 3.66-1.656l.6-.216.072-2.376c.016-.592-.168-1.084-.552-1.476-.384-.392-.92-.588-1.608-.588-.544 0-1.024.184-1.44.552-.416.368-.712.944-.888 1.728-.032.16-.196.308-.492.444s-.684.204-1.164.204c-.272 0-.48-.032-.624-.096-.144-.064-.184-.208-.12-.432.256-.624.68-1.192 1.272-1.704a7.382 7.382 0 0 1 2.016-1.236 5.792 5.792 0 0 1 2.232-.468Zm48.696 0c1.04 0 1.892.248 2.556.744.664.496.98 1.192.948 2.088l-.24 7.32c-.016.624.14 1.024.468 1.2.328.176.956.296 1.884.36v.552l-.84.216c-.512.16-.916.268-1.212.324a3.97 3.97 0 0 1-.684.084c-.432 0-.756-.096-.972-.288a1.576 1.576 0 0 1-.456-.672 5.094 5.094 0 0 1-.18-.624h-.192c-.688.672-1.332 1.116-1.932 1.332-.6.216-1.212.324-1.836.324-.72 0-1.284-.116-1.692-.348-.408-.232-.696-.528-.864-.888a2.56 2.56 0 0 1-.252-1.092c0-.544.196-1.092.588-1.644.392-.552 1.04-1.108 1.944-1.668.904-.56 2.124-1.112 3.66-1.656l.6-.216.072-2.376c.016-.592-.168-1.084-.552-1.476-.384-.392-.92-.588-1.608-.588-.544 0-1.024.184-1.44.552-.416.368-.712.944-.888 1.728-.032.16-.196.308-.492.444s-.684.204-1.164.204c-.272 0-.48-.032-.624-.096-.144-.064-.184-.208-.12-.432.256-.624.68-1.192 1.272-1.704a7.382 7.382 0 0 1 2.016-1.236 5.792 5.792 0 0 1 2.232-.468Zm-155.88 0c1.264 0 2.28.36 3.048 1.08.768.72 1.152 1.768 1.152 3.144v.3c0 .104-.016.244-.048.42l-.048.336h-8.226v.035a8.774 8.774 0 0 0-.006.301c0 1.072.196 2.036.588 2.892.392.856.952 1.528 1.68 2.016s1.588.732 2.58.732a4.74 4.74 0 0 0 1.632-.288c.528-.192 1.088-.512 1.68-.96l.48.456c-.768.88-1.544 1.516-2.328 1.908a5.661 5.661 0 0 1-2.568.588c-1.184 0-2.224-.276-3.12-.828a5.613 5.613 0 0 1-2.076-2.244c-.488-.944-.732-2.008-.732-3.192 0-1.296.284-2.448.852-3.456a6.35 6.35 0 0 1 2.292-2.376 6.042 6.042 0 0 1 3.168-.864Zm231.192 0c1.04 0 1.892.248 2.556.744.664.496.98 1.192.948 2.088l-.24 7.32c-.016.624.14 1.024.468 1.2.328.176.956.296 1.884.36v.552l-.84.216c-.512.16-.916.268-1.212.324a3.97 3.97 0 0 1-.684.084c-.432 0-.756-.096-.972-.288a1.576 1.576 0 0 1-.456-.672 5.094 5.094 0 0 1-.18-.624h-.192c-.688.672-1.332 1.116-1.932 1.332-.6.216-1.212.324-1.836.324-.72 0-1.284-.116-1.692-.348-.408-.232-.696-.528-.864-.888a2.56 2.56 0 0 1-.252-1.092c0-.544.196-1.092.588-1.644.392-.552 1.04-1.108 1.944-1.668.904-.56 2.124-1.112 3.66-1.656l.6-.216.072-2.376c.016-.592-.168-1.084-.552-1.476-.384-.392-.92-.588-1.608-.588-.544 0-1.024.184-1.44.552-.416.368-.712.944-.888 1.728-.032.16-.196.308-.492.444s-.684.204-1.164.204c-.272 0-.48-.032-.624-.096-.144-.064-.184-.208-.12-.432.256-.624.68-1.192 1.272-1.704a7.382 7.382 0 0 1 2.016-1.236 5.792 5.792 0 0 1 2.232-.468Zm-104.136-1.776v2.016h-1.056v1.44h1.055l.001 7.368c0 .624.104 1.096.312 1.416.208.32.492.532.852.636.36.104.748.156 1.164.156.544 0 1.016-.08 1.416-.24.4-.16.776-.344 1.128-.552l.432.504a8.231 8.231 0 0 1-1.8 1.38c-.704.408-1.512.612-2.424.612-.992 0-1.784-.256-2.376-.768-.592-.512-.888-1.344-.888-2.496v-8.016h-1.512v-.72c1.248-.688 2.24-1.6 2.976-2.736h.72ZM52.276 163.28c1.04 0 1.892.248 2.556.744.664.496.98 1.192.948 2.088l-.24 7.32c-.016.624.14 1.024.468 1.2.328.176.956.296 1.884.36v.552l-.84.216c-.512.16-.916.268-1.212.324a3.97 3.97 0 0 1-.684.084c-.432 0-.756-.096-.972-.288a1.576 1.576 0 0 1-.456-.672 5.094 5.094 0 0 1-.18-.624h-.192c-.688.672-1.332 1.116-1.932 1.332-.6.216-1.212.324-1.836.324-.72 0-1.284-.116-1.692-.348-.408-.232-.696-.528-.864-.888a2.56 2.56 0 0 1-.252-1.092c0-.544.196-1.092.588-1.644.392-.552 1.04-1.108 1.944-1.668.904-.56 2.124-1.112 3.66-1.656l.6-.216.072-2.376c.016-.592-.168-1.084-.552-1.476-.384-.392-.92-.588-1.608-.588-.544 0-1.024.184-1.44.552-.416.368-.712.944-.888 1.728-.032.16-.196.308-.492.444s-.684.204-1.164.204c-.272 0-.48-.032-.624-.096-.144-.064-.184-.208-.12-.432.256-.624.68-1.192 1.272-1.704a7.382 7.382 0 0 1 2.016-1.236 5.792 5.792 0 0 1 2.232-.468Zm178.08 0c.592 0 1.148.064 1.668.192s.988.288 1.404.48v2.784h-.696a4.19 4.19 0 0 0-.48-1.272 2.724 2.724 0 0 0-.9-.936c-.376-.24-.852-.36-1.428-.36-.72 0-1.272.184-1.656.552a1.819 1.819 0 0 0-.576 1.368c0 .448.14.84.42 1.176.28.336.74.672 1.38 1.008l1.584.816c.896.448 1.572.912 2.028 1.392.456.48.684 1.12.684 1.92 0 .832-.216 1.532-.648 2.1-.432.568-.996 1-1.692 1.296a5.613 5.613 0 0 1-2.22.444 9.339 9.339 0 0 1-1.932-.216c-.68-.144-1.236-.336-1.668-.576v-3.24h.696c.176 1.12.564 1.924 1.164 2.412s1.284.732 2.052.732c.736 0 1.312-.192 1.728-.576.416-.384.624-.888.624-1.512 0-.56-.164-.996-.492-1.308-.328-.312-.772-.612-1.332-.9l-1.728-.912c-1.024-.544-1.704-1.088-2.04-1.632-.336-.544-.504-1.088-.504-1.632 0-.72.196-1.348.588-1.884.392-.536.932-.956 1.62-1.26.688-.304 1.472-.456 2.352-.456Zm59.448-6.48v8.328h.144a8.07 8.07 0 0 1 1.272-1.056 4.743 4.743 0 0 1 1.296-.6 5.22 5.22 0 0 1 1.44-.192c1.104 0 2.076.26 2.916.78a5.376 5.376 0 0 1 1.968 2.148c.472.912.708 1.976.708 3.192 0 1.328-.292 2.508-.876 3.54a6.376 6.376 0 0 1-2.388 2.424c-1.008.584-2.152.876-3.432.876a7.14 7.14 0 0 1-2.016-.288 5.435 5.435 0 0 1-1.752-.864l-.72 1.152h-.72v-16.224c0-.512-.112-.876-.336-1.092-.224-.216-.736-.372-1.536-.468v-.6l3.696-1.056h.336Zm-170.328 6.48c1.264 0 2.28.36 3.048 1.08.768.72 1.152 1.768 1.152 3.144v.3c0 .104-.016.244-.048.42l-.048.336h-8.226v.035a8.774 8.774 0 0 0-.006.301c0 1.072.196 2.036.588 2.892.392.856.952 1.528 1.68 2.016s1.588.732 2.58.732a4.74 4.74 0 0 0 1.632-.288c.528-.192 1.088-.512 1.68-.96l.48.456c-.768.88-1.544 1.516-2.328 1.908a5.661 5.661 0 0 1-2.568.588c-1.184 0-2.224-.276-3.12-.828a5.613 5.613 0 0 1-2.076-2.244c-.488-.944-.732-2.008-.732-3.192 0-1.296.284-2.448.852-3.456a6.35 6.35 0 0 1 2.292-2.376 6.042 6.042 0 0 1 3.168-.864Zm148.8 0c1.04 0 1.892.248 2.556.744.664.496.98 1.192.948 2.088l-.24 7.32c-.016.624.14 1.024.468 1.2.328.176.956.296 1.884.36v.552l-.84.216c-.512.16-.916.268-1.212.324a3.97 3.97 0 0 1-.684.084c-.432 0-.756-.096-.972-.288a1.576 1.576 0 0 1-.456-.672 5.094 5.094 0 0 1-.18-.624h-.192c-.688.672-1.332 1.116-1.932 1.332-.6.216-1.212.324-1.836.324-.72 0-1.284-.116-1.692-.348-.408-.232-.696-.528-.864-.888a2.56 2.56 0 0 1-.252-1.092c0-.544.196-1.092.588-1.644.392-.552 1.04-1.108 1.944-1.668.904-.56 2.124-1.112 3.66-1.656l.6-.216.072-2.376c.016-.592-.168-1.084-.552-1.476-.384-.392-.92-.588-1.608-.588-.544 0-1.024.184-1.44.552-.416.368-.712.944-.888 1.728-.032.16-.196.308-.492.444s-.684.204-1.164.204c-.272 0-.48-.032-.624-.096-.144-.064-.184-.208-.12-.432.256-.624.68-1.192 1.272-1.704a7.382 7.382 0 0 1 2.016-1.236 5.792 5.792 0 0 1 2.232-.468Zm-61.872.048c.576 0 1.012.12 1.308.36.296.24.444.552.444.936 0 .256-.1.488-.3.696-.2.208-.436.348-.708.42a1.026 1.026 0 0 1-.792-.108l-1.152-.672c-.192-.112-.424-.096-.696.048-.272.144-.54.332-.804.564a5.725 5.725 0 0 0-.66.672c-.176.216-.264.34-.264.372v7.128c0 .496.08.836.24 1.02.16.184.48.308.96.372l1.2.144v.72h-6.48v-.72l.72-.12c.496-.08.82-.212.972-.396.152-.184.228-.524.228-1.02v-7.152c0-.544-.124-.916-.372-1.116-.248-.2-.748-.348-1.5-.444v-.6l3.624-1.056h.336v1.92h.216c.4-.576.892-1.048 1.476-1.416.584-.368 1.252-.552 2.004-.552Zm-73.464 0c.576 0 1.012.12 1.308.36.296.24.444.552.444.936 0 .256-.1.488-.3.696-.2.208-.436.348-.708.42a1.026 1.026 0 0 1-.792-.108l-1.152-.672c-.192-.112-.424-.096-.696.048-.272.144-.54.332-.804.564a5.725 5.725 0 0 0-.66.672c-.176.216-.264.34-.264.372v7.128c0 .496.08.836.24 1.02.16.184.48.308.96.372l1.2.144v.72h-6.48v-.72l.72-.12c.496-.08.82-.212.972-.396.152-.184.228-.524.228-1.02v-7.152c0-.544-.124-.916-.372-1.116-.248-.2-.748-.348-1.5-.444v-.6l3.624-1.056h.336v1.92h.216c.4-.576.892-1.048 1.476-1.416.584-.368 1.252-.552 2.004-.552Zm175.704 0c.576 0 1.012.12 1.308.36.296.24.444.552.444.936 0 .256-.1.488-.3.696-.2.208-.436.348-.708.42a1.026 1.026 0 0 1-.792-.108l-1.152-.672c-.192-.112-.424-.096-.696.048-.272.144-.54.332-.804.564a5.725 5.725 0 0 0-.66.672c-.176.216-.264.34-.264.372v7.128c0 .496.08.836.24 1.02.16.184.48.308.96.372l1.2.144v.72h-6.48v-.72l.72-.12c.496-.08.82-.212.972-.396.152-.184.228-.524.228-1.02v-7.152c0-.544-.124-.916-.372-1.116-.248-.2-.748-.348-1.5-.444v-.6l3.624-1.056h.336v1.92h.216c.4-.576.892-1.048 1.476-1.416.584-.368 1.252-.552 2.004-.552Zm-86.472.048v10.368c0 .496.08.836.24 1.02.16.184.48.316.96.396l.72.12v.72h-6v-.72l.72-.12c.48-.08.8-.212.96-.396.16-.184.24-.524.24-1.02v-7.152c0-.512-.112-.876-.336-1.092-.224-.216-.736-.372-1.536-.468v-.6l3.696-1.056h.336Zm-70.848 0v10.368c0 .496.08.836.24 1.02.16.184.48.316.96.396l.72.12v.72h-6v-.72l.72-.12c.48-.08.8-.212.96-.396.16-.184.24-.524.24-1.02v-7.152c0-.512-.112-.876-.336-1.092-.224-.216-.736-.372-1.536-.468v-.6l3.696-1.056h.336Zm127.008-6.576v16.944c0 .496.08.836.24 1.02.16.184.48.316.96.396l.72.12v.72h-6v-.72l.72-.12c.48-.08.8-.212.96-.396.16-.184.24-.524.24-1.02v-13.728c0-.512-.112-.876-.336-1.092-.224-.216-.736-.372-1.536-.468v-.6l3.696-1.056h.336Zm-171.456 6.48c.592 0 1.128.092 1.608.276.48.184.864.488 1.152.912.288.424.432 1.012.432 1.764v7.512c0 .496.08.836.24 1.02.16.184.48.316.96.396l.72.12v.72h-6v-.72l.72-.12c.48-.08.8-.212.96-.396.16-.184.24-.524.24-1.02v-6.792c0-.64-.092-1.12-.276-1.44a1.333 1.333 0 0 0-.756-.636 3.571 3.571 0 0 0-1.104-.156c-.592 0-1.128.108-1.608.324-.48.216-.992.556-1.536 1.02v7.68c0 .496.08.836.24 1.02.16.184.48.316.96.396l.72.12v.72h-6v-.72l.72-.12c.48-.08.8-.212.96-.396.16-.184.24-.524.24-1.02v-6.792c0-.64-.092-1.12-.276-1.44a1.333 1.333 0 0 0-.756-.636 3.571 3.571 0 0 0-1.104-.156c-.592 0-1.136.108-1.632.324-.496.216-1 .556-1.512 1.02v7.68c0 .496.08.836.24 1.02.16.184.48.316.96.396l.72.12v.72h-6v-.72l.72-.12c.48-.08.8-.212.96-.396.16-.184.24-.524.24-1.02v-7.152c0-.512-.112-.876-.336-1.092-.224-.216-.736-.372-1.536-.468v-.6l3.624-1.056h.336v1.752h.144c.768-.672 1.472-1.148 2.112-1.428.64-.28 1.328-.42 2.064-.42.704 0 1.332.14 1.884.42.552.28.932.78 1.14 1.5h.12c.832-.704 1.572-1.2 2.22-1.488a5.054 5.054 0 0 1 2.076-.432Zm224.424 0c1.136 0 2.028.284 2.676.852.648.568.972 1.372.972 2.412v7.2c0 .496.08.836.24 1.02.16.184.48.316.96.396l.72.12v.72h-6v-.72l.72-.12c.48-.08.8-.212.96-.396.16-.184.24-.524.24-1.02v-6.48c0-.592-.104-1.072-.312-1.44a1.947 1.947 0 0 0-.924-.828c-.408-.184-.932-.276-1.572-.276-.624 0-1.184.108-1.68.324-.496.216-1 .556-1.512 1.02v7.68c0 .496.08.836.24 1.02.16.184.48.316.96.396l.72.12v.72h-6v-.72l.72-.12c.48-.08.8-.212.96-.396.16-.184.24-.524.24-1.02v-7.152c0-.512-.112-.876-.336-1.092-.224-.216-.736-.372-1.536-.468v-.6l3.624-1.056h.336v1.752h.144c.768-.672 1.48-1.148 2.136-1.428.656-.28 1.424-.42 2.304-.42Zm-75.312 0c1.136 0 2.028.284 2.676.852.648.568.972 1.372.972 2.412v7.2c0 .496.08.836.24 1.02.16.184.48.316.96.396l.72.12v.72h-6v-.72l.72-.12c.48-.08.8-.212.96-.396.16-.184.24-.524.24-1.02v-6.48c0-.592-.104-1.072-.312-1.44a1.947 1.947 0 0 0-.924-.828c-.408-.184-.932-.276-1.572-.276-.624 0-1.184.108-1.68.324-.496.216-1 .556-1.512 1.02v7.68c0 .496.08.836.24 1.02.16.184.48.316.96.396l.72.12v.72h-6v-.72l.72-.12c.48-.08.8-.212.96-.396.16-.184.24-.524.24-1.02v-7.152c0-.512-.112-.876-.336-1.092-.224-.216-.736-.372-1.536-.468v-.6l3.624-1.056h.336v1.752h.144c.768-.672 1.48-1.148 2.136-1.428.656-.28 1.424-.42 2.304-.42Zm-93.264 0c1.136 0 2.028.284 2.676.852.648.568.972 1.372.972 2.412v7.2c0 .496.08.836.24 1.02.16.184.48.316.96.396l.72.12v.72h-6v-.72l.72-.12c.48-.08.8-.212.96-.396.16-.184.24-.524.24-1.02v-6.48c0-.592-.104-1.072-.312-1.44a1.947 1.947 0 0 0-.924-.828c-.408-.184-.932-.276-1.572-.276-.624 0-1.184.108-1.68.324-.496.216-1 .556-1.512 1.02v7.68c0 .496.08.836.24 1.02.16.184.48.316.96.396l.72.12v.72h-6v-.72l.72-.12c.48-.08.8-.212.96-.396.16-.184.24-.524.24-1.02v-7.152c0-.512-.112-.876-.336-1.092-.224-.216-.736-.372-1.536-.468v-.6l3.624-1.056h.336v1.752h.144c.768-.672 1.48-1.148 2.136-1.428.656-.28 1.424-.42 2.304-.42Zm-95.688 0c1.136 0 2.028.284 2.676.852.648.568.972 1.372.972 2.412v7.2c0 .496.08.836.24 1.02.16.184.48.316.96.396l.72.12v.72h-6v-.72l.72-.12c.48-.08.8-.212.96-.396.16-.184.24-.524.24-1.02v-6.48c0-.592-.104-1.072-.312-1.44a1.947 1.947 0 0 0-.924-.828c-.408-.184-.932-.276-1.572-.276-.624 0-1.184.108-1.68.324-.496.216-1 .556-1.512 1.02v7.68c0 .496.08.836.24 1.02.16.184.48.316.96.396l.72.12v.72h-6v-.72l.72-.12c.48-.08.8-.212.96-.396.16-.184.24-.524.24-1.02v-7.152c0-.512-.112-.876-.336-1.092-.224-.216-.736-.372-1.536-.468v-.6l3.624-1.056h.336v1.752h.144c.768-.672 1.48-1.148 2.136-1.428.656-.28 1.424-.42 2.304-.42Zm70.776 12.048-.35.349.16.036c.083.016.169.03.257.041l.269.03.288.02.09-.103.198-.229-.912-.144Zm34.104 0-.35.349.16.036c.084.016.169.03.257.041l.269.03.288.02.09-.103.198-.229-.912-.144Zm121.08-10.488c-.592 0-1.16.108-1.704.324a4.385 4.385 0 0 0-1.488.996v5.448c0 .768.128 1.428.384 1.98s.636.98 1.14 1.284c.504.304 1.132.456 1.884.456 1.28 0 2.28-.436 3-1.308.72-.872 1.08-2.1 1.08-3.684 0-1.104-.172-2.068-.516-2.892-.344-.824-.836-1.464-1.476-1.92-.64-.456-1.408-.684-2.304-.684Zm51.312-.648c-1.312 0-2.312.416-3 1.248-.688.832-1.032 2.032-1.032 3.6 0 1.136.184 2.128.552 2.976.368.848.888 1.504 1.56 1.968.672.464 1.456.696 2.352.696.496 0 1-.092 1.512-.276.512-.184 1.016-.532 1.512-1.044v-5.568c0-.848-.168-1.536-.504-2.064-.336-.528-.764-.916-1.284-1.164a3.826 3.826 0 0 0-1.668-.372ZM242.5 169.544l-.192.072c-1.152.432-2.032.856-2.64 1.272-.608.416-1.02.816-1.236 1.2-.216.384-.324.736-.324 1.056 0 1.008.6 1.512 1.8 1.512.576 0 1.052-.092 1.428-.276.376-.184.716-.38 1.02-.588l.144-4.248Zm-188.952 0-.192.072c-1.152.432-2.032.856-2.64 1.272-.608.416-1.02.816-1.236 1.2-.216.384-.324.736-.324 1.056 0 1.008.6 1.512 1.8 1.512.576 0 1.052-.092 1.428-.276.376-.184.716-.38 1.02-.588l.144-4.248Zm140.256 0-.192.072c-1.152.432-2.032.856-2.64 1.272-.608.416-1.02.816-1.236 1.2-.216.384-.324.736-.324 1.056 0 1.008.6 1.512 1.8 1.512.576 0 1.052-.092 1.428-.276.376-.184.716-.38 1.02-.588l.144-4.248Zm75.744 0-.192.072c-1.152.432-2.032.856-2.64 1.272-.608.416-1.02.816-1.236 1.2-.216.384-.324.736-.324 1.056 0 1.008.6 1.512 1.8 1.512.576 0 1.052-.092 1.428-.276.376-.184.716-.38 1.02-.588l.144-4.248Zm48.264 0-.192.072c-1.152.432-2.032.856-2.64 1.272-.608.416-1.02.816-1.236 1.2-.216.384-.324.736-.324 1.056 0 1.008.6 1.512 1.8 1.512.576 0 1.052-.092 1.428-.276.376-.184.716-.38 1.02-.588l.144-4.248ZM180.7 162.128v1.512l-4.393-.001.223.095a4.331 4.331 0 0 1 1.398 1.01c.68.736 1.02 1.64 1.02 2.712 0 .832-.204 1.572-.612 2.22a4.31 4.31 0 0 1-1.692 1.536c-.72.376-1.536.564-2.448.564-.498 0-.966-.056-1.404-.167l-.034-.009.334-.376h-1.032l-.097.092-.167-.08a4.12 4.12 0 0 1-1.656-1.5c-.4-.64-.6-1.368-.6-2.184 0-.832.204-1.568.612-2.208a4.255 4.255 0 0 1 1.692-1.512c.72-.368 1.536-.552 2.448-.552l5.952-1.152h.456Zm-34.104 0v1.512l-4.393-.001.223.095a4.331 4.331 0 0 1 1.398 1.01c.68.736 1.02 1.64 1.02 2.712 0 .832-.204 1.572-.612 2.22a4.31 4.31 0 0 1-1.692 1.536c-.72.376-1.536.564-2.448.564-.498 0-.966-.056-1.404-.167l-.034-.009.334-.376h-1.032l-.097.092-.167-.08a4.12 4.12 0 0 1-1.656-1.5c-.4-.64-.6-1.368-.6-2.184 0-.832.204-1.568.612-2.208a4.255 4.255 0 0 1 1.692-1.512c.72-.368 1.536-.552 2.448-.552l5.952-1.152h.456Zm27.456 2.088c-.768 0-1.36.26-1.776.78-.416.52-.624 1.268-.624 2.244 0 .736.112 1.372.336 1.908.224.536.548.952.972 1.248.424.296.916.444 1.476.444.768 0 1.36-.26 1.776-.78.416-.52.624-1.268.624-2.244 0-.736-.112-1.372-.336-1.908-.224-.536-.544-.952-.96-1.248-.416-.296-.912-.444-1.488-.444Zm-34.104 0c-.768 0-1.36.26-1.776.78-.416.52-.624 1.268-.624 2.244 0 .736.112 1.372.336 1.908.224.536.548.952.972 1.248.424.296.916.444 1.476.444.768 0 1.36-.26 1.776-.78.416-.52.624-1.268.624-2.244 0-.736-.112-1.372-.336-1.908-.224-.536-.544-.952-.96-1.248-.416-.296-.912-.444-1.488-.444Zm-58.63 3.432h-.482v.912h.39l.014-.257c.014-.191.034-.377.061-.557l.016-.098Zm34.127 0h-.481v.912h.39l.014-.257c.014-.191.034-.377.061-.557l.016-.098Zm-30.625-3.432c-1.072 0-1.94.424-2.604 1.272-.427.545-.717 1.21-.869 1.992l-.03.168h5.855c.048-.32.072-.616.072-.888 0-.8-.208-1.424-.624-1.872-.416-.448-1.016-.672-1.8-.672Zm34.128 0c-1.072 0-1.94.424-2.604 1.272-.427.545-.717 1.21-.869 1.992l-.03.168h5.855c.048-.32.072-.616.072-.888 0-.8-.208-1.424-.624-1.872-.416-.448-1.016-.672-1.8-.672Zm98.472-.696v.36l-.624 1.08h-4.393v-1.44h5.017Zm-77.232-.24v.36l2.015-.001-.011-.004a5.165 5.165 0 0 0-.752-.23l-.268-.053-.984-.072Zm34.104 0v.36l2.015-.001-.011-.004a5.165 5.165 0 0 0-.752-.23l-.268-.053-.984-.072Zm-24.288-4.56c.384 0 .712.128.984.384s.408.592.408 1.008c0 .416-.136.756-.408 1.02-.272.264-.6.396-.984.396-.4 0-.736-.132-1.008-.396s-.408-.604-.408-1.02c0-.416.136-.752.408-1.008a1.415 1.415 0 0 1 1.008-.384Zm70.848 0c.384 0 .712.128.984.384s.408.592.408 1.008c0 .416-.136.756-.408 1.02-.272.264-.6.396-.984.396-.4 0-.736-.132-1.008-.396s-.408-.604-.408-1.02c0-.416.136-.752.408-1.008a1.415 1.415 0 0 1 1.008-.384Zm108.107-66.035 2.889 7.956h-.436c-2.08-5.334-4.213-7.326-7.982-7.409l-.248-.003h-6.105v12.862h3.816c2.806 0 3.966-.978 4.03-3.481l.003-.225h.436v7.956h-.436c0-2.594-1.08-3.645-3.79-3.703l-.243-.003h-3.816v12.644c2.602 0 5.75.248 7.974 1.408l.31.172 6.868 4.033c2.835 1.689 4.96 2.942 8.612 2.942 2.643 0 4.875-1.742 5.903-4.58l.092-.27h.273c-1.254 4.414-3.87 6.867-7.413 6.867-2.406 0-5.416-1.155-8.643-3.032l-.404-.238-6.105-3.597c-3.836-2.26-6.812-2.999-10-3.049l-.356-.003h-2.997v-.163c1.795 0 2.516-1.074 2.56-3.767l.001-.266V96.881c0-2.798-.665-3.96-2.39-4.03l-.171-.003v-.163h17.768Zm-86.062 0v.163c-1.744 0-2.616 1.308-2.616 4.033v12.37c0 8.066-1.908 11.226-6.813 11.226-3.27 0-5.669-1.689-5.669-3.923 0-1.036.6-1.635 1.636-1.635 2.234 0 1.526 5.013 4.414 5.013 2.508 0 3.107-2.07 3.107-10.68V96.88c0-2.725-.817-4.033-2.562-4.033v-.163h8.503Zm-137.36.605c0 1.324.005 2.648.013 3.972.008 1.324.012 2.656.012 3.997l.003 2.343.009 2.331c.008 1.55.012 3.108.012 4.675 0 1.437.077 2.648.23 3.633.153.985.396 1.78.727 2.385.33.606.743 1.042 1.235 1.308.493.267 1.078.4 1.756.4v.29c-1.728 0-3.286.142-4.675.424-1.389.283-2.608.658-3.658 1.127v-3.343a12.927 12.927 0 0 1-3.585 2.47c-1.324.614-2.77.905-4.336.873-1.26-.033-2.358-.226-3.294-.582-.937-.355-1.74-.84-2.41-1.453a7.86 7.86 0 0 1-1.66-2.168 12.5 12.5 0 0 1-1.03-2.712c-.25-.977-.423-2.01-.52-3.1-.097-1.09-.146-2.2-.146-3.33v-3.973c0-1.437-.032-2.652-.097-3.645-.064-.993-.197-1.792-.4-2.398-.201-.605-.504-1.041-.908-1.308-.403-.266-.944-.4-1.623-.4v-.266a22.5 22.5 0 0 0 2.326-.109 15.267 15.267 0 0 0 1.913-.315 14.225 14.225 0 0 0 1.66-.496 28.696 28.696 0 0 0 1.562-.63c0 .888-.004 1.671-.012 2.35a525.055 525.055 0 0 1-.048 3.209 60.03 60.03 0 0 0-.012 1.174v7.509c0 .855.028 1.74.084 2.652.057.912.154 1.804.291 2.676.137.872.335 1.704.594 2.495a8.05 8.05 0 0 0 1.005 2.083 5.057 5.057 0 0 0 1.49 1.44c.581.364 1.275.554 2.083.57a4.659 4.659 0 0 0 2.023-.412 7.982 7.982 0 0 0 1.89-1.199 11.515 11.515 0 0 0 1.695-1.78 20.126 20.126 0 0 0 1.441-2.131v-12.619c0-1.114-.093-2.063-.278-2.846-.186-.783-.449-1.425-.788-1.925-.339-.501-.755-.864-1.247-1.09a3.933 3.933 0 0 0-1.66-.34v-.266c1.728 0 3.287-.141 4.676-.424 1.388-.282 2.608-.658 3.657-1.126Zm37.717 0c1.421 0 2.645.218 3.67.654 1.026.436 1.886 1.03 2.58 1.78a8.78 8.78 0 0 1 1.672 2.664c.42 1.026.742 2.124.969 3.294a27.59 27.59 0 0 1 .448 3.646c.072 1.259.109 2.51.109 3.754 0 1.518.06 2.934.181 4.25.122 1.316.336 2.459.642 3.428.307.968.71 1.731 1.212 2.288.5.558 1.138.836 1.913.836v.29h-12.306v-.29a2.47 2.47 0 0 0 1.902-.836c.509-.557.912-1.32 1.211-2.288.299-.97.509-2.112.63-3.428.121-1.316.182-2.732.182-4.25 0-.808-.008-1.736-.024-2.786a45.569 45.569 0 0 0-.17-3.245 26.344 26.344 0 0 0-.497-3.294c-.234-1.082-.565-2.047-.993-2.894-.428-.848-.98-1.534-1.66-2.06-.677-.524-1.517-.786-2.518-.786a4.67 4.67 0 0 0-2.047.484 8.023 8.023 0 0 0-1.902 1.296c-.598.54-1.155 1.17-1.671 1.889a20.813 20.813 0 0 0-1.405 2.24c.403 1.39.666 2.87.787 4.445.12 1.574.181 3.144.181 4.71 0 1.519.061 2.935.182 4.251.121 1.316.335 2.459.642 3.428.307.968.71 1.731 1.211 2.288.5.558 1.139.836 1.914.836v.29h-12.33v-.29c.775 0 1.413-.278 1.914-.836.5-.557.904-1.32 1.21-2.288.308-.97.522-2.112.643-3.428.12-1.316.181-2.732.181-4.25 0-.808-.008-1.736-.024-2.786a45.57 45.57 0 0 0-.17-3.245 26.344 26.344 0 0 0-.496-3.294c-.234-1.082-.565-2.047-.993-2.894-.428-.848-.981-1.534-1.66-2.06-.678-.524-1.517-.786-2.519-.786-.42 0-.88.097-1.38.29a8.31 8.31 0 0 0-1.502.775c-.501.323-.99.695-1.466 1.114-.476.42-.896.848-1.26 1.284a6.652 6.652 0 0 0-.872 1.32c-.218.444-.327.844-.327 1.2v9.47l.012.484c.008.306.025.706.049 1.199a27.884 27.884 0 0 0 .436 3.573c.121.645.274 1.279.46 1.9.186.622.416 1.175.69 1.66.275.484.602.871.982 1.162.38.29.811.436 1.296.436v.29h-12.306v-.29c.759 0 1.389-.266 1.89-.8.5-.532.9-1.263 1.198-2.191.3-.929.513-2.03.642-3.306.13-1.276.202-2.648.218-4.118v-6.636c0-1.437-.076-2.648-.23-3.633-.153-.985-.395-1.78-.727-2.386-.33-.605-.742-1.041-1.235-1.308-.493-.266-1.078-.4-1.756-.4v-.266c1.728 0 3.29-.141 4.687-.424 1.397-.282 2.612-.658 3.646-1.126 0 .678.004 1.292.012 1.84.008.55.012 1.058.012 1.527a12.581 12.581 0 0 1 3.464-2.459c1.292-.621 2.697-.924 4.215-.908 1.001 0 1.898.109 2.689.327a7.76 7.76 0 0 1 2.12.92 7.251 7.251 0 0 1 1.635 1.417 9.077 9.077 0 0 1 1.21 1.841 14.466 14.466 0 0 1 1.757-1.829 11.179 11.179 0 0 1 2.06-1.429c.734-.395 1.51-.702 2.325-.92a9.856 9.856 0 0 1 2.555-.327Zm-65.502 0v2.35c0 .678.004 1.275.013 1.792.008.516.012.98.012 1.392v10.645l.012.485c.008.306.024.706.048 1.199a27.884 27.884 0 0 0 .436 3.573c.121.645.279 1.279.473 1.9.193.622.428 1.175.702 1.66.275.484.598.871.97 1.162.37.29.807.436 1.307.436v.29H69.42v-.29c.743 0 1.365-.266 1.866-.8.5-.532.904-1.263 1.21-2.191.308-.929.526-2.03.655-3.306.13-1.276.194-2.648.194-4.118v-6.636c0-1.437-.077-2.648-.23-3.633-.154-.985-.392-1.78-.715-2.386-.323-.605-.73-1.041-1.223-1.308-.493-.266-1.078-.4-1.757-.4v-.266c1.712 0 3.267-.141 4.664-.424 1.396-.282 2.62-.658 3.67-1.126Zm-16.98-8.622c.952 0 1.8.048 2.543.145.743.097 1.421.23 2.035.4.613.17 1.183.375 1.708.617.524.242 1.03.509 1.514.8l.024 5.691h-.121a.399.399 0 0 1-.121-.024c-.291-.856-.768-1.712-1.43-2.567a12.798 12.798 0 0 0-2.289-2.29 11.92 11.92 0 0 0-2.761-1.61c-.977-.404-1.918-.581-2.823-.533-.904.049-1.639.347-2.204.896a4.025 4.025 0 0 0-1.126 2.023c-.186.8-.182 1.655.012 2.567.194.913.605 1.756 1.235 2.531.63.775 1.478 1.421 2.544 1.938 1.066.517 2.374.775 3.924.775h3.391l.025 1.114h-3.27c-1.099 0-2.007.19-2.726.57a4.43 4.43 0 0 0-1.708 1.561c-.42.663-.726 1.446-.92 2.35a17.943 17.943 0 0 0-.364 2.93 44.397 44.397 0 0 0-.024 3.295c.033 1.146.057 2.3.073 3.463.032 1.518.117 2.822.254 3.912.138 1.09.364 1.978.679 2.664.314.686.726 1.19 1.235 1.514.509.323 1.143.484 1.902.484v.29H49.677v-.29c.759 0 1.389-.161 1.89-.484.5-.323.896-.828 1.186-1.514.29-.686.493-1.574.606-2.664.113-1.09.161-2.394.145-3.912 0-.226-.004-.565-.012-1.017a87.038 87.038 0 0 1-.012-1.538v-1.805c0-.63-.008-1.235-.024-1.816a9.642 9.642 0 0 1 .339-2.7 9.078 9.078 0 0 1 1.09-2.495 8.218 8.218 0 0 1 1.853-2.047c.751-.598 1.627-1.058 2.628-1.38-2.115-.372-3.803-.917-5.062-1.636-1.26-.718-2.14-1.517-2.64-2.397-.501-.88-.647-1.78-.437-2.7.21-.921.719-1.76 1.526-2.52.808-.759 1.894-1.38 3.258-1.865 1.365-.484 2.952-.726 4.76-.726Zm-47.48-.025c1.647 0 3.15.226 4.506.679 1.356.452 2.511 1.061 3.464 1.828.953.767 1.692 1.655 2.216 2.664A6.81 6.81 0 0 1 24.266 93c0 1.098-.226 2.095-.679 2.992a10.54 10.54 0 0 1-1.78 2.506 17.041 17.041 0 0 1-2.52 2.168 87.1 87.1 0 0 1-2.906 1.974c-.993.646-1.962 1.296-2.907 1.95a19.315 19.315 0 0 0-2.52 2.059 10.024 10.024 0 0 0-1.78 2.3c-.452.816-.678 1.724-.678 2.725 0 2.665.307 4.7.92 6.104.614 1.405 1.615 2.107 3.004 2.107v.266H.114v-.266a2.47 2.47 0 0 0 1.902-.836c.509-.557.916-1.32 1.223-2.288.307-.97.521-2.112.642-3.428.121-1.316.182-2.732.182-4.25V95.47c0-1.437-.077-2.798-.23-4.081-.154-1.284-.396-2.402-.727-3.355-.331-.952-.743-1.707-1.235-2.264-.493-.557-1.078-.836-1.757-.836v-.29h13.178Zm156.003 8.647c1.26 0 2.48.157 3.658.472 1.179.315 2.213.731 3.1 1.248.889.516 1.587 1.106 2.096 1.768.509.662.73 1.332.666 2.01-.032.436-.202.787-.508 1.054-.307.266-.67.472-1.09.617-.42.146-.856.242-1.309.29-.452.05-.847.074-1.187.074a42.685 42.685 0 0 1-2.713-.146 34.994 34.994 0 0 0-2.907-.12c-.969 0-1.901.072-2.797.217-.897.145-1.688.436-2.374.872-.687.436-1.236 1.054-1.648 1.853-.411.8-.61 1.853-.593 3.16.016 2.277.33 4.28.945 6.007.613 1.728 1.409 3.133 2.386 4.215.977 1.082 2.087 1.816 3.33 2.204 1.244.387 2.508.391 3.792.012 1.283-.38 2.531-1.167 3.742-2.362 1.211-1.194 2.285-2.841 3.222-4.94l1.55 1.695c-.694 1.146-1.477 2.14-2.35 2.979-.871.84-1.792 1.53-2.761 2.07-.969.542-1.97.945-3.004 1.212-1.033.266-2.067.4-3.1.4-1.535 0-3.053-.307-4.555-.92a12.222 12.222 0 0 1-4.02-2.677c-1.18-1.17-2.132-2.608-2.86-4.311-.726-1.704-1.09-3.646-1.09-5.826 0-1.598.178-3.031.534-4.299.355-1.267.835-2.385 1.441-3.354.606-.969 1.312-1.8 2.12-2.495a11.891 11.891 0 0 1 2.592-1.707c.92-.444 1.865-.767 2.834-.97a13.993 13.993 0 0 1 2.858-.302Zm-136.163 0c1.453 0 2.709.246 3.767.739a8.26 8.26 0 0 1 2.725 2.022 11.423 11.423 0 0 1 1.89 2.98c.5 1.13.92 2.333 1.259 3.608a40.69 40.69 0 0 1 .836 3.924c.218 1.34.424 2.648.617 3.924.194 1.275.4 2.478.618 3.608.218 1.13.493 2.124.824 2.98.33.855.743 1.53 1.235 2.022.493.492 1.11.739 1.853.739v.29H44.42c-.985 0-1.792-.355-2.422-1.065-.63-.71-1.139-1.651-1.526-2.822-.388-1.17-.687-2.507-.897-4.009a176.08 176.08 0 0 1-.445-3.433l-.137-1.168-.152.75a37.505 37.505 0 0 1-1.01 3.73c-.484 1.486-1.09 2.822-1.817 4.009-.726 1.187-1.59 2.151-2.592 2.894-1 .743-2.172 1.114-3.512 1.114-.904 0-1.744-.23-2.52-.69a5.976 5.976 0 0 1-1.937-1.853c-.517-.775-.872-1.667-1.066-2.676-.194-1.01-.162-2.071.097-3.185.21-.92.59-1.873 1.138-2.858.55-.985 1.3-1.962 2.253-2.93.953-.97 2.128-1.922 3.525-2.859 1.397-.936 3.048-1.825 4.954-2.664.371-.162.654-.335.847-.52.194-.187.327-.384.4-.594.073-.21.097-.42.073-.63a2.231 2.231 0 0 0-.158-.606c-.161-.5-.367-1.005-.617-1.513a6.762 6.762 0 0 0-.897-1.38 4.197 4.197 0 0 0-1.21-.994c-.461-.25-.99-.375-1.588-.375-.565 0-1.142.133-1.732.4-.59.266-1.195.629-1.816 1.09-.622.46-1.26 1.004-1.914 1.634a96.107 96.107 0 0 0-2.047 2.035l-.34-3.537c.76-.484 1.51-.867 2.254-1.15a14.65 14.65 0 0 1 2.131-.642 13.546 13.546 0 0 1 1.89-.278c.581-.04 1.082-.061 1.502-.061Zm241.432-.605v.163c-2.592 0-3.49.873-2.843 2.768l.063.175 7.685 20.817 7.63-20.272c-.999-2.473-2.05-3.422-3.936-3.485l-.205-.003v-.163h10.246v.163c-2.592 0-3.49.873-2.842 2.768l.063.175 7.685 20.817 7.685-20.49c.848-2.225.098-3.214-2.448-3.268l-.223-.002v-.163h6.16v.163c-1.213 0-2.017 1.018-3.103 3.794l-.114.293-8.666 23.052h-1.362l-8.667-22.943-8.611 22.943h-1.363l-9.266-24.523c-.622-1.661-1.493-2.531-2.516-2.61l-.154-.006v-.163h9.102Zm87.806 0c5.342 0 8.503 2.724 8.503 7.247 0 3.434-1.908 6.268-5.614 7.194.763.163 1.362.436 1.799.817 1.327 1.174 1.812 2.992 2.194 4.854l.094.465.091.466.093.464c.582 2.856 1.356 5.456 5.059 5.573l.263.004h.926v.163h-1.417c-4.743 0-6.516-.833-7.357-3.57l-.055-.19-1.418-5.994c-.42-1.892-1.347-2.67-3.27-2.722l-.218-.003h-3.434v8.283c0 2.798.716 3.96 2.446 4.03l.17.003v.163h-8.557v-.163c1.796 0 2.568-1.074 2.614-3.767l.003-.266V96.881c0-2.798-.716-3.96-2.446-4.03l-.17-.003v-.163h9.701Zm-20.439 0v.163c-1.795 0-2.516 1.074-2.56 3.767l-.002.266v22.507h4.906c3.58 0 5.117-1.467 7.333-7.07l.134-.342h.436l-2.834 7.956h-15.861v-.163c1.795 0 2.516-1.074 2.56-3.767l.002-.266V96.881c0-2.798-.665-3.96-2.392-4.03l-.17-.003v-.163h8.448Zm38.044 0v.163c-2.485 0-1.831 1.465-.745 2.944l.166.221.085.111.172.22.216.271.215.266 5.941 7.357 6.758-8.447c1.482-1.799 1.269-2.878-.54-2.94l-.168-.003v-.163h6.65v.163c-1.717 0-3.385.844-4.765 2.438l-.195.232-7.195 8.938v11.28c0 2.798.716 3.96 2.446 4.03l.17.003v.163h-8.502v-.163c1.795 0 2.516-1.074 2.56-3.767l.001-.266v-9.645l-7.412-9.21c-2.595-3.177-3.595-3.987-5.099-4.031l-.134-.002v-.163h9.375Zm-117.674 0 2.888 7.956h-.436c-2.08-5.334-4.213-7.326-7.982-7.409l-.248-.003h-6.104v12.807h3.815c2.806 0 3.966-.977 4.03-3.48l.003-.226h.436v7.957h-.436c0-2.594-1.08-3.646-3.79-3.703l-.243-.003h-3.815v12.807h7.03c3.575 0 6.21-2.61 8.517-8.29l.15-.375h.436l-3.325 9.21h-18.695v-.164c1.795 0 2.516-1.074 2.56-3.767l.002-.266V96.881c0-2.798-.665-3.96-2.391-4.03l-.17-.003v-.163H262.3Zm-224.203 7.968c-2.067.824-3.755 1.687-5.063 2.592-1.308.904-2.334 1.824-3.077 2.76-.743.937-1.247 1.878-1.514 2.822a9.553 9.553 0 0 0-.375 2.774c.032 1.05.258 1.986.678 2.81.42.823.957 1.44 1.611 1.852.654.412 1.38.57 2.18.472.8-.096 1.583-.545 2.35-1.344.767-.8 1.478-1.998 2.132-3.597.654-1.598 1.166-3.69 1.538-6.273a7.97 7.97 0 0 0-.036-2.434 99.605 99.605 0 0 0-.424-2.434Zm166.262 3.536a3.633 3.633 0 1 1 0 7.267 3.633 3.633 0 0 1 0-7.267ZM13.583 85.2c-.646 0-1.28.182-1.902.545-.621.364-1.166.949-1.635 1.756-.468.808-.848 1.865-1.138 3.173-.291 1.308-.436 2.907-.436 4.796v12.812c.436-.84.936-1.558 1.502-2.155a14.277 14.277 0 0 1 1.78-1.599c.622-.468 1.26-.9 1.914-1.295.654-.396 1.292-.8 1.913-1.212a14.383 14.383 0 0 0 1.745-1.356 7.897 7.897 0 0 0 1.429-1.756c.412-.678.735-1.477.969-2.398.234-.92.35-2.01.35-3.27 0-1.114-.193-2.16-.58-3.136a9.156 9.156 0 0 0-1.502-2.555 7.228 7.228 0 0 0-2.084-1.72c-.775-.42-1.55-.63-2.325-.63Zm348.46 8.084h-3.434v13.624h3.434c3.87 0 5.832-3.052 5.832-6.976 0-4.196-2.18-6.648-5.832-6.648Zm-192.384.781a7.06 7.06 0 0 0-2.023.315c-.703.21-1.38.565-2.035 1.066-.654.5-1.256 1.166-1.805 1.998-.549.831-.993 1.853-1.332 3.064-.08.29-.097.488-.048.593.048.105.133.158.254.158s.266-.045.436-.134c.17-.088.335-.19.497-.302a6.606 6.606 0 0 1 2.616-1.042c.953-.161 1.922-.23 2.907-.206.985.024 1.954.089 2.907.194.952.105 1.824.166 2.616.182.662 0 1.138-.085 1.429-.255.29-.17.436-.4.436-.69.016-.387-.157-.86-.52-1.417-.364-.557-.857-1.098-1.478-1.623a9.12 9.12 0 0 0-2.18-1.344 6.49 6.49 0 0 0-2.677-.557ZM74.82 84.668c.501 0 .97.092 1.405.278a3.614 3.614 0 0 1 1.926 1.926c.186.436.279.904.279 1.404 0 .501-.093.97-.279 1.405a3.614 3.614 0 0 1-1.926 1.926 3.548 3.548 0 0 1-1.405.278c-.5 0-.973-.093-1.417-.278a3.444 3.444 0 0 1-1.15-.775 3.9 3.9 0 0 1-.776-1.15 3.419 3.419 0 0 1-.29-1.406c0-.5.097-.968.29-1.404a3.9 3.9 0 0 1 .776-1.15c.323-.332.706-.59 1.15-.776a3.636 3.636 0 0 1 1.417-.278Zm131.655-30.352.07.033c.161.071.327.134.498.187l.227.064-.387.44a4.657 4.657 0 0 0-.444.564.714.714 0 0 0-.108.372c0 .208.084.376.252.504.168.128.444.208.828.24l4.584.384c2.048.16 3.072 1.08 3.072 2.76 0 .992-.308 1.888-.924 2.688-.616.8-1.436 1.436-2.46 1.908s-2.168.708-3.432.708c-1.36 0-2.452-.272-3.276-.816-.824-.544-1.236-1.248-1.236-2.112 0-.336.092-.716.276-1.14.184-.424.548-.908 1.092-1.452l.97-.971-.083-.017a3.124 3.124 0 0 1-1.019-.44c-.456-.312-.684-.716-.684-1.212 0-.416.144-.76.432-1.032.288-.272.656-.616 1.104-1.032l.648-.628Zm.575 4.489-.096.115a19.47 19.47 0 0 0-.875 1.1c-.296.408-.444.836-.444 1.284 0 .72.348 1.268 1.044 1.644.696.376 1.652.564 2.868.564 1.344 0 2.396-.256 3.156-.768.76-.512 1.14-1.184 1.14-2.016 0-.528-.176-.912-.528-1.152-.352-.24-.992-.392-1.92-.456l-4.345-.315ZM261.46 46.28c1.264 0 2.28.36 3.048 1.08.768.72 1.152 1.768 1.152 3.144v.3c0 .104-.016.244-.048.42l-.048.336h-8.226v.035a8.774 8.774 0 0 0-.006.301c0 1.072.196 2.036.588 2.892.392.856.952 1.528 1.68 2.016s1.588.732 2.58.732a4.74 4.74 0 0 0 1.632-.288c.528-.192 1.088-.512 1.68-.96l.48.456c-.768.88-1.544 1.516-2.328 1.908a5.661 5.661 0 0 1-2.568.588c-1.184 0-2.224-.276-3.12-.828a5.613 5.613 0 0 1-2.076-2.244c-.488-.944-.732-2.008-.732-3.192 0-1.296.284-2.448.852-3.456a6.35 6.35 0 0 1 2.292-2.376 6.042 6.042 0 0 1 3.168-.864Zm40.44-1.776v2.016h-1.056v1.44h1.055l.001 7.368c0 .624.104 1.096.312 1.416.208.32.492.532.852.636.36.104.748.156 1.164.156.544 0 1.016-.08 1.416-.24.4-.16.776-.344 1.128-.552l.432.504a8.231 8.231 0 0 1-1.8 1.38c-.704.408-1.512.612-2.424.612-.992 0-1.784-.256-2.376-.768-.592-.512-.888-1.344-.888-2.496V47.96h-1.512v-.72c1.248-.688 2.24-1.6 2.976-2.736h.72Zm-221.52 0v2.016h-1.056v1.44h1.055l.001 7.368c0 .624.104 1.096.312 1.416.208.32.492.532.852.636.36.104.748.156 1.164.156.544 0 1.016-.08 1.416-.24.4-.16.776-.344 1.128-.552l.432.504a8.231 8.231 0 0 1-1.8 1.38c-.704.408-1.512.612-2.424.612-.992 0-1.784-.256-2.376-.768-.592-.512-.888-1.344-.888-2.496V47.96h-1.512v-.72c1.248-.688 2.24-1.6 2.976-2.736h.72Zm169.248 1.776c.832 0 1.556.112 2.172.336.616.224 1.096.496 1.44.816.344.32.516.624.516.912 0 .256-.128.468-.384.636a1.866 1.866 0 0 1-.84.3c-.304.032-.536-.016-.696-.144l-1.536-1.368a1.808 1.808 0 0 0-.624-.396 2.457 2.457 0 0 0-.792-.108c-.736 0-1.376.216-1.92.648-.544.432-.964 1.012-1.26 1.74-.296.728-.444 1.54-.444 2.436 0 1.056.204 1.992.612 2.808.408.816.976 1.46 1.704 1.932s1.556.708 2.484.708c.56 0 1.112-.096 1.656-.288.544-.192 1.112-.512 1.704-.96l.48.456c-.752.88-1.52 1.516-2.304 1.908a5.558 5.558 0 0 1-2.52.588c-1.168 0-2.204-.276-3.108-.828a5.824 5.824 0 0 1-2.124-2.256c-.512-.952-.768-2.028-.768-3.228 0-1.28.284-2.42.852-3.42a6.263 6.263 0 0 1 2.34-2.364c.992-.576 2.112-.864 3.36-.864Zm-98.088 0c.592 0 1.148.064 1.668.192s.988.288 1.404.48v2.784h-.696a4.19 4.19 0 0 0-.48-1.272 2.724 2.724 0 0 0-.9-.936c-.376-.24-.852-.36-1.428-.36-.72 0-1.272.184-1.656.552a1.819 1.819 0 0 0-.576 1.368c0 .448.14.84.42 1.176.28.336.74.672 1.38 1.008l1.584.816c.896.448 1.572.912 2.028 1.392.456.48.684 1.12.684 1.92 0 .832-.216 1.532-.648 2.1-.432.568-.996 1-1.692 1.296a5.613 5.613 0 0 1-2.22.444 9.339 9.339 0 0 1-1.932-.216c-.68-.144-1.236-.336-1.668-.576v-3.24h.696c.176 1.12.564 1.924 1.164 2.412s1.284.732 2.052.732c.736 0 1.312-.192 1.728-.576.416-.384.624-.888.624-1.512 0-.56-.164-.996-.492-1.308-.328-.312-.772-.612-1.332-.9l-1.728-.912c-1.024-.544-1.704-1.088-2.04-1.632-.336-.544-.504-1.088-.504-1.632 0-.72.196-1.348.588-1.884.392-.536.932-.956 1.62-1.26.688-.304 1.472-.456 2.352-.456Zm46.32 0c1.264 0 2.28.36 3.048 1.08.768.72 1.152 1.768 1.152 3.144v.3c0 .104-.016.244-.048.42l-.048.336h-8.226v.035a8.774 8.774 0 0 0-.006.301c0 1.072.196 2.036.588 2.892.392.856.952 1.528 1.68 2.016s1.588.732 2.58.732a4.74 4.74 0 0 0 1.632-.288c.528-.192 1.088-.512 1.68-.96l.48.456c-.768.88-1.544 1.516-2.328 1.908a5.661 5.661 0 0 1-2.568.588c-1.184 0-2.224-.276-3.12-.828a5.613 5.613 0 0 1-2.076-2.244c-.488-.944-.732-2.008-.732-3.192 0-1.296.284-2.448.852-3.456a6.35 6.35 0 0 1 2.292-2.376 6.042 6.042 0 0 1 3.168-.864Zm-19.08 0c1.264 0 2.28.36 3.048 1.08.768.72 1.152 1.768 1.152 3.144v.3c0 .104-.016.244-.048.42l-.048.336h-8.226v.035a8.774 8.774 0 0 0-.006.301c0 1.072.196 2.036.588 2.892.392.856.952 1.528 1.68 2.016s1.588.732 2.58.732a4.74 4.74 0 0 0 1.632-.288c.528-.192 1.088-.512 1.68-.96l.48.456c-.768.88-1.544 1.516-2.328 1.908a5.661 5.661 0 0 1-2.568.588c-1.184 0-2.224-.276-3.12-.828a5.613 5.613 0 0 1-2.076-2.244c-.488-.944-.732-2.008-.732-3.192 0-1.296.284-2.448.852-3.456a6.35 6.35 0 0 1 2.292-2.376 6.042 6.042 0 0 1 3.168-.864Zm-57.456 0c1.264 0 2.28.36 3.048 1.08.768.72 1.152 1.768 1.152 3.144v.3c0 .104-.016.244-.048.42l-.048.336h-8.226v.035a8.774 8.774 0 0 0-.006.301c0 1.072.196 2.036.588 2.892.392.856.952 1.528 1.68 2.016s1.588.732 2.58.732a4.74 4.74 0 0 0 1.632-.288c.528-.192 1.088-.512 1.68-.96l.48.456c-.768.88-1.544 1.516-2.328 1.908a5.661 5.661 0 0 1-2.568.588c-1.184 0-2.224-.276-3.12-.828a5.613 5.613 0 0 1-2.076-2.244c-.488-.944-.732-2.008-.732-3.192 0-1.296.284-2.448.852-3.456a6.35 6.35 0 0 1 2.292-2.376 6.042 6.042 0 0 1 3.168-.864Zm19.08 0c1.264 0 2.28.36 3.048 1.08.768.72 1.152 1.768 1.152 3.144v.3c0 .104-.016.244-.048.42l-.048.336h-8.226v.035a8.774 8.774 0 0 0-.006.301c0 1.072.196 2.036.588 2.892.392.856.952 1.528 1.68 2.016s1.588.732 2.58.732a4.74 4.74 0 0 0 1.632-.288c.528-.192 1.088-.512 1.68-.96l.48.456c-.768.88-1.544 1.516-2.328 1.908a5.661 5.661 0 0 1-2.568.588c-1.184 0-2.224-.276-3.12-.828a5.613 5.613 0 0 1-2.076-2.244c-.488-.944-.732-2.008-.732-3.192 0-1.296.284-2.448.852-3.456a6.35 6.35 0 0 1 2.292-2.376 6.042 6.042 0 0 1 3.168-.864Zm81.192 0c1.04 0 1.892.248 2.556.744.664.496.98 1.192.948 2.088l-.24 7.32c-.016.624.14 1.024.468 1.2.328.176.956.296 1.884.36v.552l-.84.216c-.512.16-.916.268-1.212.324a3.97 3.97 0 0 1-.684.084c-.432 0-.756-.096-.972-.288a1.576 1.576 0 0 1-.456-.672 5.094 5.094 0 0 1-.18-.624h-.192c-.688.672-1.332 1.116-1.932 1.332-.6.216-1.212.324-1.836.324-.72 0-1.284-.116-1.692-.348-.408-.232-.696-.528-.864-.888a2.56 2.56 0 0 1-.252-1.092c0-.544.196-1.092.588-1.644.392-.552 1.04-1.108 1.944-1.668.904-.56 2.124-1.112 3.66-1.656l.6-.216.072-2.376c.016-.592-.168-1.084-.552-1.476-.384-.392-.92-.588-1.608-.588-.544 0-1.024.184-1.44.552-.416.368-.712.944-.888 1.728-.032.16-.196.308-.492.444s-.684.204-1.164.204c-.272 0-.48-.032-.624-.096-.144-.064-.184-.208-.12-.432.256-.624.68-1.192 1.272-1.704a7.382 7.382 0 0 1 2.016-1.236 5.792 5.792 0 0 1 2.232-.468Zm-59.712 0c.592 0 1.148.064 1.668.192s.988.288 1.404.48v2.784h-.696a4.19 4.19 0 0 0-.48-1.272 2.724 2.724 0 0 0-.9-.936c-.376-.24-.852-.36-1.428-.36-.72 0-1.272.184-1.656.552a1.819 1.819 0 0 0-.576 1.368c0 .448.14.84.42 1.176.28.336.74.672 1.38 1.008l1.584.816c.896.448 1.572.912 2.028 1.392.456.48.684 1.12.684 1.92 0 .832-.216 1.532-.648 2.1-.432.568-.996 1-1.692 1.296a5.613 5.613 0 0 1-2.22.444 9.339 9.339 0 0 1-1.932-.216c-.68-.144-1.236-.336-1.668-.576v-3.24h.696c.176 1.12.564 1.924 1.164 2.412s1.284.732 2.052.732c.736 0 1.312-.192 1.728-.576.416-.384.624-.888.624-1.512 0-.56-.164-.996-.492-1.308-.328-.312-.772-.612-1.332-.9l-1.728-.912c-1.024-.544-1.704-1.088-2.04-1.632-.336-.544-.504-1.088-.504-1.632 0-.72.196-1.348.588-1.884.392-.536.932-.956 1.62-1.26.688-.304 1.472-.456 2.352-.456Zm115.176.24v.72l-.528.048c-.464.048-.792.236-.984.564-.192.328-.208.748-.048 1.26l2.535 8.006 2.63-7.989-.057-.179a9.632 9.632 0 0 0-.128-.366c-.168-.448-.356-.776-.564-.984-.208-.208-.488-.32-.84-.336l-.384-.024v-.72h5.64v.72l-.552.048c-1.12.096-1.528.64-1.224 1.632l2.408 8.125 2.536-7.933c.192-.608.212-1.048.06-1.32s-.516-.44-1.092-.504l-.504-.048v-.72h5.04v.72c-.672.096-1.172.276-1.5.54-.328.264-.604.708-.828 1.332l-3.552 10.08h-1.416l-2.558-8.35-2.986 8.35h-1.392l-3.432-10.08c-.208-.64-.436-1.096-.684-1.368a1.392 1.392 0 0 0-.948-.456l-.48-.048v-.72h5.832Zm-88.632-6.72v16.944c0 .496.08.836.24 1.02.16.184.48.316.96.396l.72.12V59h-6v-.72l.72-.12c.48-.08.8-.212.96-.396.16-.184.24-.524.24-1.02V43.016c0-.512-.112-.876-.336-1.092-.224-.216-.736-.372-1.536-.468v-.6l3.696-1.056h.336Zm-79.704 6.48c.592 0 1.128.092 1.608.276.48.184.864.488 1.152.912.288.424.432 1.012.432 1.764v7.512c0 .496.08.836.24 1.02.16.184.48.316.96.396l.72.12V59h-6v-.72l.72-.12c.48-.08.8-.212.96-.396.16-.184.24-.524.24-1.02v-6.792c0-.64-.092-1.12-.276-1.44a1.333 1.333 0 0 0-.756-.636 3.571 3.571 0 0 0-1.104-.156c-.592 0-1.128.108-1.608.324-.48.216-.992.556-1.536 1.02v7.68c0 .496.08.836.24 1.02.16.184.48.316.96.396l.72.12V59h-6v-.72l.72-.12c.48-.08.8-.212.96-.396.16-.184.24-.524.24-1.02v-6.792c0-.64-.092-1.12-.276-1.44a1.333 1.333 0 0 0-.756-.636 3.571 3.571 0 0 0-1.104-.156c-.592 0-1.136.108-1.632.324-.496.216-1 .556-1.512 1.02v7.68c0 .496.08.836.24 1.02.16.184.48.316.96.396l.72.12V59h-6v-.72l.72-.12c.48-.08.8-.212.96-.396.16-.184.24-.524.24-1.02v-7.152c0-.512-.112-.876-.336-1.092-.224-.216-.736-.372-1.536-.468v-.6l3.624-1.056h.336v1.752h.144c.768-.672 1.472-1.148 2.112-1.428.64-.28 1.328-.42 2.064-.42.704 0 1.332.14 1.884.42.552.28.932.78 1.14 1.5h.12c.832-.704 1.572-1.2 2.22-1.488a5.054 5.054 0 0 1 2.076-.432Zm22.248-6.48v16.944c0 .496.08.836.24 1.02.16.184.48.316.96.396l.72.12V59h-6v-.72l.72-.12c.48-.08.8-.212.96-.396.16-.184.24-.524.24-1.02V43.016c0-.512-.112-.876-.336-1.092-.224-.216-.736-.372-1.536-.468v-.6l3.696-1.056h.336Zm164.424 6.576v10.368c0 .496.08.836.24 1.02.16.184.48.316.96.396l.72.12V59h-6v-.72l.72-.12c.48-.08.8-.212.96-.396.16-.184.24-.524.24-1.02v-7.152c0-.512-.112-.876-.336-1.092-.224-.216-.736-.372-1.536-.468v-.6l3.696-1.056h.336Zm-59.04-.096c1.136 0 2.028.284 2.676.852.648.568.972 1.372.972 2.412v7.2c0 .496.08.836.24 1.02.16.184.48.316.96.396l.72.12V59h-6v-.72l.72-.12c.48-.08.8-.212.96-.396.16-.184.24-.524.24-1.02v-6.48c0-.592-.104-1.072-.312-1.44a1.947 1.947 0 0 0-.924-.828c-.408-.184-.932-.276-1.572-.276-.624 0-1.184.108-1.68.324-.496.216-1 .556-1.512 1.02v7.68c0 .496.08.836.24 1.02.16.184.48.316.96.396l.72.12V59h-6v-.72l.72-.12c.48-.08.8-.212.96-.396.16-.184.24-.524.24-1.02v-7.152c0-.512-.112-.876-.336-1.092-.224-.216-.736-.372-1.536-.468v-.6l3.624-1.056h.336v1.752h.144c.768-.672 1.48-1.148 2.136-1.428.656-.28 1.424-.42 2.304-.42Zm-146.208.096v10.368c0 .496.08.836.24 1.02.16.184.48.316.96.396l.72.12V59h-6v-.72l.72-.12c.48-.08.8-.212.96-.396.16-.184.24-.524.24-1.02v-7.152c0-.512-.112-.876-.336-1.092-.224-.216-.736-.372-1.536-.468v-.6l3.696-1.056h.336ZM311.476 39.8v8.256h.144c.496-.432.96-.776 1.392-1.032a5.127 5.127 0 0 1 1.356-.564 6.6 6.6 0 0 1 1.62-.18c1.136 0 2.028.284 2.676.852.648.568.972 1.372.972 2.412v7.2c0 .496.08.836.24 1.02.16.184.48.316.96.396l.72.12V59h-6v-.72l.72-.12c.48-.08.8-.212.96-.396.16-.184.24-.524.24-1.02v-6.48c0-.592-.104-1.072-.312-1.44a1.947 1.947 0 0 0-.924-.828c-.408-.184-.932-.276-1.572-.276-.624 0-1.184.108-1.68.324-.496.216-1 .556-1.512 1.02v7.68c0 .496.08.836.24 1.02.16.184.48.316.96.396l.72.12V59h-6v-.72l.72-.12c.48-.08.8-.212.96-.396.16-.184.24-.524.24-1.02V43.016c0-.512-.112-.876-.336-1.092-.224-.216-.736-.372-1.536-.468v-.6l3.696-1.056h.336ZM206.428 58.328l-.35.349.16.036c.083.015.169.03.257.041l.269.03.287.021.09-.104.199-.229-.912-.144Zm71.607-1.21-.231.706h.456l-.225-.706Zm6.93-.073-.249.779h.48l-.232-.779Zm-62.097-4.501-.192.072c-1.152.432-2.032.856-2.64 1.272-.608.416-1.02.816-1.236 1.2-.216.384-.324.736-.324 1.056 0 1.008.6 1.512 1.8 1.512.576 0 1.052-.092 1.428-.276.376-.184.716-.38 1.02-.588l.144-4.248Zm-7.656-7.416v1.512h-4.39l.22.094a4.331 4.331 0 0 1 1.398 1.01c.68.736 1.02 1.64 1.02 2.712 0 .832-.204 1.572-.612 2.22a4.31 4.31 0 0 1-1.692 1.536c-.72.376-1.536.564-2.448.564-.498 0-.966-.056-1.404-.167l-.033-.009.333-.376h-1.032l-.096.092-.168-.08a4.12 4.12 0 0 1-1.656-1.5c-.4-.64-.6-1.368-.6-2.184 0-.832.204-1.568.612-2.208a4.255 4.255 0 0 1 1.692-1.512c.72-.368 1.536-.552 2.448-.552l5.952-1.152h.456Zm-6.648 2.088c-.768 0-1.36.26-1.776.78-.416.52-.624 1.268-.624 2.244 0 .736.112 1.372.336 1.908.224.536.548.952.972 1.248.424.296.916.444 1.476.444.768 0 1.36-.26 1.776-.78.416-.52.624-1.268.624-2.244 0-.736-.112-1.372-.336-1.908-.224-.536-.544-.952-.96-1.248-.416-.296-.912-.444-1.488-.444Zm-91.27 3.432h-.482v.912h.39l.014-.257c.014-.191.034-.377.061-.557l.016-.098Zm140.135 0h-.481v.912h.39l.014-.257c.014-.191.034-.377.061-.557l.016-.098Zm-63.6 0h-.481v.912h.39l.014-.257c.014-.191.034-.377.061-.557l.016-.098Zm-57.456 0h-.481v.912h.39l.014-.257c.014-.191.034-.377.061-.557l.016-.098Zm38.376 0h-.481v.912h.39l.014-.257c.014-.191.034-.377.061-.557l.016-.098ZM281.452 50l-.45.02.018.388-.071-.28-.029-.105-.02.001.25.818.302-.842Zm-103.2-2.784c-1.072 0-1.94.424-2.604 1.272-.427.545-.717 1.21-.869 1.992l-.03.168h5.855c.048-.32.072-.616.072-.888 0-.8-.208-1.424-.624-1.872-.416-.448-1.016-.672-1.8-.672Zm-57.456 0c-1.072 0-1.94.424-2.604 1.272-.427.545-.717 1.21-.869 1.992l-.03.168h5.855c.048-.32.072-.616.072-.888 0-.8-.208-1.424-.624-1.872-.416-.448-1.016-.672-1.8-.672Zm19.08 0c-1.072 0-1.94.424-2.604 1.272-.427.545-.717 1.21-.869 1.992l-.03.168h5.855c.048-.32.072-.616.072-.888 0-.8-.208-1.424-.624-1.872-.416-.448-1.016-.672-1.8-.672Zm121.056 0c-1.072 0-1.94.424-2.604 1.272-.427.545-.717 1.21-.869 1.992l-.03.168h5.855c.048-.32.072-.616.072-.888 0-.8-.208-1.424-.624-1.872-.416-.448-1.016-.672-1.8-.672Zm-63.6 0c-1.072 0-1.94.424-2.604 1.272-.427.545-.717 1.21-.869 1.992l-.03.168h5.855c.048-.32.072-.616.072-.888 0-.8-.208-1.424-.624-1.872-.416-.448-1.016-.672-1.8-.672Zm83.592 1.128-.259.785.01.027c.065.212.133.448.203.706l.042.161.081-.003-.077-1.676ZM85.396 46.52v.36l-.624 1.08h-4.393v-1.44h5.017Zm221.52 0v.36l-.624 1.08h-4.393v-1.44h5.017Zm-98.112-.24v.36h2.017l-.013-.005a5.165 5.165 0 0 0-.752-.23l-.268-.053-.984-.072Zm85.272-4.56c.384 0 .712.128.984.384s.408.592.408 1.008c0 .416-.136.756-.408 1.02-.272.264-.6.396-.984.396-.4 0-.736-.132-1.008-.396s-.408-.604-.408-1.02c0-.416.136-.752.408-1.008a1.415 1.415 0 0 1 1.008-.384Zm-205.248 0c.384 0 .712.128.984.384s.408.592.408 1.008c0 .416-.136.756-.408 1.02-.272.264-.6.396-.984.396-.4 0-.736-.132-1.008-.396s-.408-.604-.408-1.02c0-.416.136-.752.408-1.008a1.415 1.415 0 0 1 1.008-.384ZM121.24 7.28c1.104 0 2.076.26 2.916.78a5.376 5.376 0 0 1 1.968 2.148c.472.912.708 1.976.708 3.192 0 1.328-.292 2.508-.876 3.54a6.376 6.376 0 0 1-2.388 2.424c-1.008.584-2.152.876-3.432.876-.544 0-1.072-.06-1.584-.18s-1-.292-1.464-.516v3.888c0 .544.096.936.288 1.176.192.24.536.392 1.032.456l1.08.144v.72h-6.48v-.72l.72-.12c.496-.08.82-.212.972-.396.152-.184.228-.524.228-1.02v-13.08c0-.512-.112-.876-.336-1.092-.224-.216-.736-.372-1.536-.468v-.6l3.624-1.056h.336v1.752h.144a8.288 8.288 0 0 1 1.32-1.056 5.112 5.112 0 0 1 1.32-.6 5.22 5.22 0 0 1 1.44-.192Zm-25.8-1.776V7.52h-1.056v1.44h1.055l.001 7.368c0 .624.104 1.096.312 1.416.208.32.492.532.852.636.36.104.748.156 1.164.156.544 0 1.016-.08 1.416-.24.4-.16.776-.344 1.128-.552l.432.504a8.231 8.231 0 0 1-1.8 1.38c-.704.408-1.512.612-2.424.612-.992 0-1.784-.256-2.376-.768-.592-.512-.888-1.344-.888-2.496V8.96h-1.512v-.72c1.248-.688 2.24-1.6 2.976-2.736h.72Zm75.84 1.776c1.296 0 2.432.272 3.408.816a5.81 5.81 0 0 1 2.28 2.268c.544.968.816 2.092.816 3.372 0 1.216-.272 2.316-.816 3.3a6.126 6.126 0 0 1-2.268 2.34c-.968.576-2.108.864-3.42.864-1.28 0-2.408-.272-3.384-.816a5.787 5.787 0 0 1-2.28-2.28c-.544-.976-.816-2.104-.816-3.384 0-1.216.272-2.312.816-3.288a6.15 6.15 0 0 1 2.268-2.328c.968-.576 2.1-.864 3.396-.864Zm-12.216-1.776V7.52h-1.056v1.44h1.055l.001 7.368c0 .624.104 1.096.312 1.416.208.32.492.532.852.636.36.104.748.156 1.164.156.544 0 1.016-.08 1.416-.24.4-.16.776-.344 1.128-.552l.432.504a8.231 8.231 0 0 1-1.8 1.38c-.704.408-1.512.612-2.424.612-.992 0-1.784-.256-2.376-.768-.592-.512-.888-1.344-.888-2.496V8.96h-1.512v-.72c1.248-.688 2.24-1.6 2.976-2.736h.72Zm29.088 0V7.52h-1.056v1.44h1.055l.001 7.368c0 .624.104 1.096.312 1.416.208.32.492.532.852.636.36.104.748.156 1.164.156.544 0 1.016-.08 1.416-.24.4-.16.776-.344 1.128-.552l.432.504a8.231 8.231 0 0 1-1.8 1.38c-.704.408-1.512.612-2.424.612-.992 0-1.784-.256-2.376-.768-.592-.512-.888-1.344-.888-2.496V8.96h-1.512v-.72c1.248-.688 2.24-1.6 2.976-2.736h.72ZM303.16 7.28c1.296 0 2.432.272 3.408.816a5.81 5.81 0 0 1 2.28 2.268c.544.968.816 2.092.816 3.372 0 1.216-.272 2.316-.816 3.3a6.126 6.126 0 0 1-2.268 2.34c-.968.576-2.108.864-3.42.864-1.28 0-2.408-.272-3.384-.816a5.787 5.787 0 0 1-2.28-2.28c-.544-.976-.816-2.104-.816-3.384 0-1.216.272-2.312.816-3.288a6.15 6.15 0 0 1 2.268-2.328c.968-.576 2.1-.864 3.396-.864Zm-87.888 0c1.264 0 2.28.36 3.048 1.08.768.72 1.152 1.768 1.152 3.144v.3c0 .104-.016.244-.048.42l-.048.336h-8.226v.035a8.774 8.774 0 0 0-.006.301c0 1.072.196 2.036.588 2.892.392.856.952 1.528 1.68 2.016s1.588.732 2.58.732a4.74 4.74 0 0 0 1.632-.288c.528-.192 1.088-.512 1.68-.96l.48.456c-.768.88-1.544 1.516-2.328 1.908a5.661 5.661 0 0 1-2.568.588c-1.184 0-2.224-.276-3.12-.828a5.613 5.613 0 0 1-2.076-2.244c-.488-.944-.732-2.008-.732-3.192 0-1.296.284-2.448.852-3.456a6.35 6.35 0 0 1 2.292-2.376 6.042 6.042 0 0 1 3.168-.864Zm36.216 0c1.296 0 2.432.272 3.408.816a5.81 5.81 0 0 1 2.28 2.268c.544.968.816 2.092.816 3.372 0 1.216-.272 2.316-.816 3.3a6.126 6.126 0 0 1-2.268 2.34c-.968.576-2.108.864-3.42.864-1.28 0-2.408-.272-3.384-.816a5.787 5.787 0 0 1-2.28-2.28c-.544-.976-.816-2.104-.816-3.384 0-1.216.272-2.312.816-3.288a6.15 6.15 0 0 1 2.268-2.328c.968-.576 2.1-.864 3.396-.864Zm-144 0c1.264 0 2.28.36 3.048 1.08.768.72 1.152 1.768 1.152 3.144v.3c0 .104-.016.244-.048.42l-.048.336h-8.226v.035a8.774 8.774 0 0 0-.006.301c0 1.072.196 2.036.588 2.892.392.856.952 1.528 1.68 2.016s1.588.732 2.58.732a4.74 4.74 0 0 0 1.632-.288c.528-.192 1.088-.512 1.68-.96l.48.456c-.768.88-1.544 1.516-2.328 1.908a5.661 5.661 0 0 1-2.568.588c-1.184 0-2.224-.276-3.12-.828a5.613 5.613 0 0 1-2.076-2.244c-.488-.944-.732-2.008-.732-3.192 0-1.296.284-2.448.852-3.456a6.35 6.35 0 0 1 2.292-2.376 6.042 6.042 0 0 1 3.168-.864ZM85.84 2.96a8.51 8.51 0 0 1 1.92.216 8.537 8.537 0 0 1 1.896.696v3.024h-.72c-.16-.96-.544-1.692-1.152-2.196-.608-.504-1.416-.756-2.424-.756-1.024 0-1.836.248-2.436.744-.6.496-.9 1.136-.9 1.92 0 .592.184 1.128.552 1.608.368.48.912.912 1.632 1.296l2.784 1.512c.864.464 1.544.916 2.04 1.356.496.44.844.892 1.044 1.356.2.464.3.976.3 1.536 0 .976-.256 1.836-.768 2.58s-1.22 1.328-2.124 1.752c-.904.424-1.948.636-3.132.636a8.442 8.442 0 0 1-2.184-.288 8.355 8.355 0 0 1-2.184-.96v-4.008h.72c.128 1.376.552 2.432 1.272 3.168.72.736 1.664 1.104 2.832 1.104 1.056 0 1.904-.288 2.544-.864.64-.576.96-1.32.96-2.232 0-.624-.184-1.172-.552-1.644-.368-.472-1-.956-1.896-1.452L83.2 11.6c-1.104-.608-1.892-1.22-2.364-1.836-.472-.616-.708-1.34-.708-2.172 0-.896.248-1.692.744-2.388S82.044 3.96 82.9 3.56c.856-.4 1.836-.6 2.94-.6ZM288.304.8v16.176c0 .496.112.856.336 1.08.204.204.659.354 1.365.452l.219.028v.648l-3.672.864h-.336v-1.656H286c-.448.48-.9.856-1.356 1.128-.456.272-.904.46-1.344.564-.44.104-.876.156-1.308.156-1.088 0-2.056-.264-2.904-.792a5.395 5.395 0 0 1-1.98-2.184c-.472-.928-.708-1.984-.708-3.168 0-1.312.284-2.48.852-3.504a6.424 6.424 0 0 1 2.316-2.424c.976-.592 2.072-.888 3.288-.888.56 0 1.12.064 1.68.192.56.128 1.096.36 1.608.696V4.016c0-.512-.112-.876-.336-1.092-.224-.216-.736-.372-1.536-.468v-.6L287.968.8h.336Zm-57.432 6.72v.72l-.528.048c-.464.048-.792.236-.984.564-.192.328-.208.748-.048 1.26l2.535 8.006 2.63-7.989.01.027c.065.213.133.448.203.706l.042.161-.02.001.25.818-2.986 8.35h-1.392l-3.432-10.08c-.208-.64-.436-1.096-.684-1.368a1.392 1.392 0 0 0-.948-.456l-.48-.048v-.72h5.832Zm7.272 0v.72l-.552.048c-1.12.096-1.528.64-1.224 1.632l2.408 8.125 2.536-7.933c.192-.608.212-1.048.06-1.32s-.516-.44-1.092-.504l-.504-.048v-.72h5.04v.72c-.672.096-1.172.276-1.5.54-.328.264-.604.708-.828 1.332l-3.552 10.08h-1.416l-2.558-8.35.302-.842-.45.02-.078-1.676-.259.785-.057-.179a9.632 9.632 0 0 0-.128-.366c-.168-.448-.356-.776-.564-.984-.208-.208-.488-.32-.84-.336l-.384-.024v-.72h5.64ZM197.728.8v8.256h.144c.496-.432.96-.776 1.392-1.032a5.127 5.127 0 0 1 1.356-.564 6.6 6.6 0 0 1 1.62-.18c1.136 0 2.028.284 2.676.852.648.568.972 1.372.972 2.412v7.2c0 .496.08.836.24 1.02.16.184.48.316.96.396l.72.12V20h-6v-.72l.72-.12c.48-.08.8-.212.96-.396.16-.184.24-.524.24-1.02v-6.48c0-.592-.104-1.072-.312-1.44a1.947 1.947 0 0 0-.924-.828c-.408-.184-.932-.276-1.572-.276-.624 0-1.184.108-1.68.324-.496.216-1 .556-1.512 1.02v7.68c0 .496.08.836.24 1.02.16.184.48.316.96.396l.72.12V20h-6v-.72l.72-.12c.48-.08.8-.212.96-.396.16-.184.24-.524.24-1.02V4.016c0-.512-.112-.876-.336-1.092-.224-.216-.736-.372-1.536-.468v-.6L197.392.8h.336Zm-48.744 6.48c1.136 0 2.028.284 2.676.852.648.568.972 1.372.972 2.412v7.2c0 .496.08.836.24 1.02.16.184.48.316.96.396l.72.12V20h-6v-.72l.72-.12c.48-.08.8-.212.96-.396.16-.184.24-.524.24-1.02v-6.48c0-.592-.104-1.072-.312-1.44a1.947 1.947 0 0 0-.924-.828c-.408-.184-.932-.276-1.572-.276-.624 0-1.184.108-1.68.324-.496.216-1 .556-1.512 1.02v7.68c0 .496.08.836.24 1.02.16.184.48.316.96.396l.72.12V20h-6v-.72l.72-.12c.48-.08.8-.212.96-.396.16-.184.24-.524.24-1.02v-7.152c0-.512-.112-.876-.336-1.092-.224-.216-.736-.372-1.536-.468v-.6l3.624-1.056h.336v1.752h.144c.768-.672 1.48-1.148 2.136-1.428.656-.28 1.424-.42 2.304-.42Zm-11.4.096v10.368c0 .496.08.836.24 1.02.16.184.48.316.96.396l.72.12V20h-6v-.72l.72-.12c.48-.08.8-.212.96-.396.16-.184.24-.524.24-1.02v-7.152c0-.512-.112-.876-.336-1.092-.224-.216-.736-.372-1.536-.468v-.6l3.696-1.056h.336ZM319.528.704c.624 0 1.188.12 1.692.36s.756.56.756.96c0 .272-.14.512-.42.72-.28.208-.58.232-.9.072l-1.848-.864a1.434 1.434 0 0 0-.552-.12c-.4 0-.832.188-1.296.564-.464.376-.86.896-1.188 1.56-.328.664-.492 1.428-.492 2.292V7.52h4.08v.36l-.624 1.08h-3.456v8.544c0 .544.096.936.288 1.176.192.24.536.392 1.032.456l1.08.144V20h-6.48v-.72l.72-.12c.496-.08.82-.212.972-.396.152-.184.228-.524.228-1.02V8.96h-2.136V8.6l.624-1.08h1.512v-.384c0-.864.18-1.684.54-2.46a6.93 6.93 0 0 1 1.464-2.064 6.996 6.996 0 0 1 2.064-1.404 5.732 5.732 0 0 1 2.34-.504Zm-52.44 6.624c.576 0 1.012.12 1.308.36.296.24.444.552.444.936 0 .256-.1.488-.3.696-.2.208-.436.348-.708.42a1.026 1.026 0 0 1-.792-.108l-1.152-.672c-.192-.112-.424-.096-.696.048-.272.144-.54.332-.804.564a5.725 5.725 0 0 0-.66.672c-.176.216-.264.34-.264.372v7.128c0 .496.08.836.24 1.02.16.184.48.308.96.372l1.2.144V20h-6.48v-.72l.72-.12c.496-.08.82-.212.972-.396.152-.184.228-.524.228-1.02v-7.152c0-.544-.124-.916-.372-1.116-.248-.2-.748-.348-1.5-.444v-.6l3.624-1.056h.336v1.92h.216c.4-.576.892-1.048 1.476-1.416.584-.368 1.252-.552 2.004-.552ZM273.28.8v16.944c0 .496.08.836.24 1.02.16.184.48.316.96.396l.72.12V20h-6v-.72l.72-.12c.48-.08.8-.212.96-.396.16-.184.24-.524.24-1.02V4.016c0-.512-.112-.876-.336-1.092-.224-.216-.736-.372-1.536-.468v-.6L272.944.8h.336Zm-153 8.04a4.73 4.73 0 0 0-1.704.312c-.544.208-1.04.52-1.488.936v5.52c0 .768.128 1.428.384 1.98s.636.98 1.14 1.284c.504.304 1.132.456 1.884.456 1.28 0 2.28-.436 3-1.308.72-.872 1.08-2.1 1.08-3.684 0-1.104-.172-2.068-.516-2.892-.344-.824-.836-1.464-1.476-1.92-.64-.456-1.408-.684-2.304-.684Zm50.64-.624c-1.088 0-1.992.408-2.712 1.224-.72.816-1.08 2.056-1.08 3.72 0 1.072.172 2.076.516 3.012.344.936.852 1.692 1.524 2.268.672.576 1.504.864 2.496.864 1.088 0 1.992-.408 2.712-1.224.72-.816 1.08-2.048 1.08-3.696 0-1.088-.172-2.1-.516-3.036-.344-.936-.852-1.692-1.524-2.268-.672-.576-1.504-.864-2.496-.864Zm80.208 0c-1.088 0-1.992.408-2.712 1.224-.72.816-1.08 2.056-1.08 3.72 0 1.072.172 2.076.516 3.012.344.936.852 1.692 1.524 2.268.672.576 1.504.864 2.496.864 1.088 0 1.992-.408 2.712-1.224.72-.816 1.08-2.048 1.08-3.696 0-1.088-.172-2.1-.516-3.036-.344-.936-.852-1.692-1.524-2.268-.672-.576-1.504-.864-2.496-.864Zm51.672 0c-1.088 0-1.992.408-2.712 1.224-.72.816-1.08 2.056-1.08 3.72 0 1.072.172 2.076.516 3.012.344.936.852 1.692 1.524 2.268.672.576 1.504.864 2.496.864 1.088 0 1.992-.408 2.712-1.224.72-.816 1.08-2.048 1.08-3.696 0-1.088-.172-2.1-.516-3.036-.344-.936-.852-1.692-1.524-2.268-.672-.576-1.504-.864-2.496-.864Zm-70.953 9.902-.231.706h.456l-.225-.706Zm6.93-.073-.249.779h.48l-.232-.779Zm43.911-9.853c-1.312 0-2.312.416-3 1.248-.688.832-1.032 2.032-1.032 3.6 0 1.136.184 2.128.552 2.976.368.848.888 1.504 1.56 1.968.672.464 1.456.696 2.352.696.496 0 1-.092 1.512-.276.512-.184 1.016-.532 1.512-1.044v-5.568c0-.848-.168-1.536-.504-2.064-.336-.528-.764-.916-1.284-1.164a3.826 3.826 0 0 0-1.668-.372Zm-179.23 3.456h-.482v.912h.39l.014-.257c.014-.191.034-.377.061-.557l.016-.098Zm107.783 0h-.481v.912h.39l.014-.257c.014-.191.034-.377.061-.557l.016-.098ZM106.96 8.216c-1.072 0-1.94.424-2.604 1.272-.427.545-.717 1.21-.869 1.992l-.03.168h5.855c.048-.32.072-.616.072-.888 0-.8-.208-1.424-.624-1.872-.416-.448-1.016-.672-1.8-.672Zm107.784 0c-1.072 0-1.94.424-2.604 1.272-.427.545-.717 1.21-.869 1.992l-.03.168h5.855c.048-.32.072-.616.072-.888 0-.8-.208-1.424-.624-1.872-.416-.448-1.016-.672-1.8-.672Zm-21.576-.696v.36l-.624 1.08h-4.393V7.52h5.017Zm-29.088 0v.36l-.624 1.08h-4.393V7.52h5.017Zm-63.624 0v.36l-.624 1.08h-4.393V7.52h5.017Zm35.808-4.8c.384 0 .712.128.984.384s.408.592.408 1.008c0 .416-.136.756-.408 1.02-.272.264-.6.396-.984.396-.4 0-.736-.132-1.008-.396s-.408-.604-.408-1.02c0-.416.136-.752.408-1.008a1.415 1.415 0 0 1 1.008-.384Z" />
  </svg>