<svg xmlns="http://www.w3.org/2000/svg" xmlns:xlink="http://www.w3.org/1999/xlink" width="214" height="150">
  <defs>
    <path id="a" d="M0 0h214v150H0z" />
  </defs>
  <g fill="none" fill-rule="evenodd">
    <mask id="b" fill="#fff">
      <use xlink:href="#a" />
    </mask>
    <path fill="#D09431" fill-rule="nonzero" opacity="0.3" mask="url(#b)"
      d="m205.463-22.258.24.207.192.17.234.208.166.15.266.243.139.128.282.262.288.272.147.14.298.284c.25.242.507.493.77.753l.317.317.323.325.329.335a91.037 91.037 0 0 1 8.776 10.459c7.25 10.096 11.887 20.945 12.657 32.189.971 14.167-4.307 28.012-17.049 41.184l-.388.399c-4.873 4.972-7.35 10.063-7.762 15.456-.336 4.389.677 8.941 2.944 14.068l.175.39.18.393.183.395c.185.392.368.773.554 1.15l.21.425.2.395.202.395.206.396.211.399.217.402.11.204.285.514.235.42.183.322.315.549.197.338.271.462.283.477.371.619.312.514.58.948.626 1.013.779 1.25.632 1.006 1.152 1.825 1.15 1.82.915 1.46.581.936.613.995.427.703.338.56.323.542.248.421.301.516.29.505.167.29.107.19.37.662.104.188c.208.378.414.757.62 1.143 2.116 3.96 3.59 7.5 4.466 10.916 2.074 8.094.71 15.434-4.861 22.655-7.07 9.162-18.724 12.77-35.516 12.055l-.256-.011-.516-.025-.259-.013-.52-.028-.524-.031-.527-.034-.53-.036-.534-.04-.537-.04-.27-.022-.543-.046-.546-.048-.55-.05-.554-.054-.558-.056-.28-.029-.564-.06-.567-.062-.572-.065-.576-.068-.58-.07-.584-.073-.588-.076-.593-.078-.597-.08-.602-.084-.606-.086-.61-.089-.616-.091-.62-.094-.312-.048-.628-.098-.315-.05-.954-.153-.642-.106-.647-.108-.326-.055-.984-.17-.663-.115-.668-.119-.336-.06-.676-.123-.681-.125-.687-.128-.77-.145-.838-.16-.823-.157-.812-.158-.808-.159-1.05-.209-1.141-.23-1.676-.347-1.4-.294-1.288-.275-1.356-.294-1.654-.361-2.248-.497-3.556-.794-3.497-.788-8.855-2.001-3.653-.816-1.452-.32-1.773-.389-1.385-.3-1.02-.22-1.005-.214-1.641-.346-.646-.135-.956-.199-.944-.194-.93-.19-.919-.184-.605-.12-.6-.12-.891-.174-1.171-.226-.867-.165-.856-.161-.847-.157-.839-.153-.554-.1-.825-.146-.545-.095-.542-.094-.54-.093-.803-.135-.797-.132-.792-.128-.524-.084-.783-.123-.779-.12-.774-.116-.771-.113-.768-.11-.51-.072-.717-.099-.712-.095-.707-.092-.702-.09-.699-.086-.347-.041-.692-.082c-.345-.04-.688-.078-1.03-.116l-.68-.073-.677-.07-.673-.067-.668-.064-.664-.06-.66-.058-.329-.028-.653-.052a145.34 145.34 0 0 0-.326-.025l-.648-.048-.643-.044-.32-.021-.639-.04-.633-.036-.63-.033c-4.605-.23-8.897-.193-12.929.124-11.971.944-22.738 4.427-32.36 10.097-8.217 4.84-15.41 11.16-21.637 18.601-5.302 6.335-9.617 13.123-13.02 19.911a98.153 98.153 0 0 0-1.64 3.429l-.21.467-.204.46-.198.454-.192.448a81.69 81.69 0 0 0-.187.44l-.18.435-.089.215-.146.36-.115.288-.163.412-.15.39-.14.368-.141.386-.13.364L.24 207l-.099-.033.058-.167.092-.26.125-.34.135-.361.096-.253.102-.264.108-.273.112-.283.118-.292c.086-.213.175-.428.265-.645l.184-.438c.125-.295.253-.594.385-.897l.202-.458.103-.23.21-.468.327-.712.226-.482.23-.488.238-.493c.2-.414.407-.833.62-1.258 3.407-6.794 7.726-13.589 13.033-19.93 6.236-7.452 13.437-13.778 21.664-18.625 9.636-5.678 20.418-9.166 32.406-10.11 3.394-.268 6.971-.336 10.764-.215l.617.022.621.024.625.028c.209.01.418.02.628.032l.633.034.636.038.64.041c.535.036 1.075.075 1.618.117l.655.053.658.056c.33.028.662.058.996.09l.668.063.673.067.338.035.68.072.683.075.688.078.693.082.696.084.701.088.706.09.71.095.714.097.87.121.768.11.513.076.516.076.776.118.78.12.785.124.526.085.793.13.8.132.536.091.54.092.542.094.546.096.55.097.552.1.835.15.845.156.568.106.572.108 1.158.22.88.171.593.116.899.178.91.182.922.186 1.25.255.953.197.966.202 1.31.276 1.337.285 1.71.369 1.399.304 1.43.314 1.55.344 2.764.617 5.32 1.201 3.795.858 4.201.946 2.877.642 2.118.47 2.35.513 1.765.379 1.474.312 1.409.293 1.365.278 1.342.268 1.118.22 1.148.222.778.148 1.14.215.686.128.681.125 1.011.183.668.119.332.058.66.115.654.112.65.11.644.106.64.104.158.026.79.126.628.098.622.095.617.092.613.09.608.088.604.084.3.042.597.08.592.078.589.076.583.073.29.035.578.07.573.066.57.063.565.062.561.058.557.056.554.053.275.026.548.05.544.046.54.044.538.041.533.04.53.036.526.033.523.031.52.028.517.026.514.023c16.761.714 28.383-2.884 35.428-12.014 5.551-7.195 6.909-14.501 4.843-22.566-.856-3.337-2.286-6.795-4.329-10.65l-.128-.242-.103-.192-.155-.287-.155-.285-.103-.189-.31-.562-.262-.466-.267-.47-.164-.285-.222-.384-.228-.391-.295-.5-.307-.513-.386-.64-.622-1.017-.523-.847-.648-1.038-1.081-1.72-1.535-2.428-.74-1.177-.575-.919-.745-1.2-.589-.956-.368-.604-.264-.437-.338-.563-.243-.409-.234-.398-.3-.515-.288-.5-.207-.365-.202-.36-.196-.353-.19-.348-.187-.344-.182-.342-.178-.338-.117-.226-.173-.337-.114-.224-.17-.338-.167-.339-.222-.456-.166-.346-.166-.35c-2.65-5.628-3.855-10.556-3.493-15.3.41-5.364 2.853-10.429 7.646-15.37l.146-.15c13.002-13.27 18.387-27.223 17.408-41.503-.769-11.222-5.399-22.054-12.638-32.135a90.933 90.933 0 0 0-8.766-10.447l-.328-.334-.162-.164-.32-.32-.315-.312a77.724 77.724 0 0 0-.155-.153l-.306-.298-.3-.29-.295-.28a67.75 67.75 0 0 0-.145-.137l-.284-.267-.279-.257-.265-.242-.166-.15-.233-.208-.28-.246-.15-.128.067-.08Zm-18.352-4.77.188.157.167.142.246.213.177.155.285.252.285.256.292.266.298.275.152.142.309.29.314.298.321.309c.162.156.326.317.492.48l.335.332a85.996 85.996 0 0 1 8.492 9.844c6.968 9.447 11.443 19.609 12.231 30.159 1.003 13.418-4.07 26.563-16.409 39.1-6.858 6.982-8.669 14.198-6.478 22.473.68 2.568 1.737 5.235 3.202 8.177l.222.444.23.448c.154.3.313.602.476.908l.232.435.202.372.15.277.278.503.283.507.292.514.26.452.318.546.49.827.482.806.594.98.736 1.206 1.34 2.18 1.15 1.866.626 1.021.656 1.078.38.63.43.718.337.57.385.655.423.732.288.506.278.495.324.586.203.37c.15.278.3.556.447.836l.247.469.05.095c1.96 3.759 3.326 7.116 4.138 10.353 1.923 7.669.664 14.596-4.491 21.373-6.546 8.573-17.332 11.944-32.896 11.27l-.507-.024-.51-.026-.257-.014-.516-.03-.519-.033-.26-.018-.525-.037-.528-.04-.532-.042-.535-.046-.54-.048-.271-.025-.545-.053-.55-.055-.554-.058-.557-.061-.28-.031-.565-.065-.569-.068-.286-.035-.575-.072-.58-.075-.584-.077-.589-.08-.594-.083-.598-.086-.301-.044-.606-.09-.305-.046-.614-.094-.308-.048-.621-.099-.626-.1-.632-.104-.637-.107-.642-.11-.647-.112c-.109-.018-.217-.038-.326-.057l-.656-.116-.662-.119-.667-.122-.673-.125-.679-.127-1.509-.288-1.133-.22-1.115-.22-.927-.186-1.31-.268-1.155-.24-1.403-.297-1.053-.226-1.334-.29-1.182-.26-2.315-.514-1.997-.449-4.983-1.127-8.375-1.904-3.727-.836-1.618-.358-.982-.215-1.606-.349-.631-.136-.936-.2-.924-.196-1.211-.255-1.19-.247-1.17-.24-.865-.174-1.136-.227-.56-.111-1.11-.216-.82-.158-.543-.103-.806-.151-1.062-.196-.787-.143-.52-.093-.775-.137-.768-.133-.508-.087-.757-.127-.502-.083-.747-.122-.99-.157-.98-.152-.73-.11-.726-.106-.723-.104-.48-.068-.479-.066c-.37-.05-.738-.1-1.104-.148l-.729-.094-.363-.046-.722-.09a145.547 145.547 0 0 0-9.944-.879l-.651-.032c-4.002-.185-7.759-.156-11.311.099-11.125.795-21.144 3.973-30.11 9.2-7.65 4.459-14.356 10.301-20.17 17.194-4.908 5.817-8.914 12.05-12.083 18.284a90.977 90.977 0 0 0-1.527 3.149l-.211.461-.205.455-.198.447-.097.222-.189.437-.182.43-.09.213-.146.356-.116.284-.11.273-.103.262-.146.374-.132.35-.122.33-.085.237-.01.029-.098-.034.053-.154.111-.304.096-.255.09-.236.095-.247.102-.258.107-.268.112-.28.119-.288c.52-1.26 1.124-2.62 1.815-4.062l.234-.484c.237-.487.483-.982.74-1.487 3.173-6.24 7.182-12.48 12.095-18.304 5.823-6.9 12.537-12.751 20.197-17.216 8.98-5.235 19.015-8.418 30.157-9.215 4.901-.351 10.192-.273 15.974.204l.683.058.687.062.692.065c1.157.112 2.333.24 3.53.382l.72.087c.722.089 1.452.183 2.19.283l.609.083.48.067.722.103.483.07.728.108.732.111.736.115.989.157.998.163.756.126.761.13.768.133 1.035.183.523.094.79.144.797.148.807.151.815.155.824.16.834.162.843.167.569.113 1.15.233.582.119 1.479.305.903.189 1.223.258.932.2 1.583.34 1.294.283 2.14.472 2.951.66 3.242.734 7.455 1.696 3.697.835 2.308.518 2.468.546 1.674.366 1.218.262 1.32.28 1.266.264 1.078.22 1.064.215.523.104.993.195.672.13.682.132 1.039.197.678.128.673.124.334.061.664.12.658.118.653.115.647.112.642.11.637.106.316.052.628.103.623.1.619.096.613.094.608.092.603.088c.1.015.2.03.3.043l.595.085.296.04.589.081.293.04.581.075.577.073.573.07.568.069.564.065.56.062.555.06.276.028.549.055.273.026.543.052.27.024.537.047.533.044.53.041.526.039.522.036.518.033.516.03.511.027.508.025.253.011c15.534.673 26.288-2.687 32.809-11.229 5.134-6.75 6.388-13.645 4.473-21.284-.81-3.227-2.174-6.577-4.13-10.33a97.537 97.537 0 0 0-.395-.75l-.248-.463-.303-.555-.205-.373-.317-.566-.217-.384-.224-.39-.29-.502-.302-.517-.188-.32-.393-.66-.562-.937-.534-.88-.75-1.226-2.601-4.226-.825-1.351-.489-.808-.5-.835-.36-.605-.382-.654-.183-.315-.35-.613-.132-.234-.308-.55-.216-.393-.215-.395-.13-.24-.262-.489c-1.958-3.678-3.32-6.909-4.138-10-2.179-8.226-.416-15.419 6.3-22.361l.205-.21c12.317-12.518 17.379-25.633 16.379-39.02-.787-10.528-5.254-20.673-12.212-30.105a85.892 85.892 0 0 0-8.48-9.832l-.335-.331-.165-.163-.327-.317a76.25 76.25 0 0 0-.16-.155l-.318-.304-.156-.148-.308-.289-.302-.28-.295-.27a61.746 61.746 0 0 0-.145-.131l-.284-.256-.192-.17-.269-.237-.245-.212-.123-.104-.23-.193.066-.081Zm-18.365-4.77.224.18.196.163.245.206.268.229.094.081c.144.124.29.253.44.385l.303.27.154.138.314.284.32.294.328.304.333.314a80.964 80.964 0 0 1 8.716 9.714c6.686 8.794 10.998 18.269 11.803 28.126 1.014 12.402-3.63 24.592-15.027 36.275l-.348.354c-1.347 1.366-2.485 2.75-3.425 4.153-3.69 5.51-4.316 11.27-2.411 17.831.804 2.769 2.048 5.672 3.791 8.985l.207.391.217.406.076.142c.127.236.254.47.383.705l.156.283.327.585.305.539.374.65.46.79.51.87.78 1.313 1.34 2.238.729 1.218.828 1.39.525.89.485.828.45.778.362.632.286.506.22.394.214.385.259.473.201.373.246.461.194.368.24.46.285.558.048.093c1.803 3.56 3.062 6.737 3.809 9.796 1.77 7.246.61 13.764-4.135 20.102-6.024 7.989-15.947 11.123-30.29 10.488a89.582 89.582 0 0 1-.5-.024l-.503-.026-.507-.03-.51-.032-.514-.035-.518-.039-.26-.02-.524-.043-.528-.045-.532-.05c-.089-.007-.178-.016-.267-.025l-.539-.053-.542-.056-.547-.059-.552-.062c-.185-.02-.37-.042-.556-.065l-.56-.067a138.72 138.72 0 0 1-.566-.071l-.57-.074-.576-.077-.58-.08-.291-.04-.588-.085-.593-.087-.298-.045-.6-.091-.303-.047-.609-.096-.614-.099-.62-.102-.312-.052-.628-.106-.316-.054-.637-.111-.643-.114-.648-.117-.655-.12-.66-.122-.668-.125-1.035-.199-1.06-.205-1.197-.237-1.012-.203-.845-.172-1.204-.25-.887-.188-1.492-.321-1.403-.307-1.296-.287-2.14-.48-3.005-.681-5.697-1.303-5.184-1.187-2.283-.518-2.363-.53-1.138-.252-.717-.158-1.197-.261-1.18-.256c-.979-.21-1.941-.413-2.888-.61l-1.13-.234c-16.648-3.418-28.602-4.79-39.468-4.103-10.273.648-19.539 3.52-27.846 8.305-7.08 4.079-13.296 9.446-18.695 15.791-4.513 5.303-8.207 10.984-11.142 16.665l-.363.71-.233.466-.227.46c-.224.457-.439.906-.644 1.344l-.202.436-.195.429c-.096.212-.19.423-.281.63l-.18.412c-.06.136-.117.271-.174.405l-.14.332-.107.259-.102.248-.143.356-.09.224-.123.319-.082.217-.12.326-.098-.034.072-.2.102-.27.11-.287.086-.22.14-.349.15-.37.164-.392c.196-.464.404-.944.625-1.437l.193-.426.098-.216.202-.436.209-.442.214-.449.222-.455c.261-.534.536-1.08.824-1.638 2.938-5.688 6.637-11.375 11.155-16.684 5.407-6.354 11.632-11.73 18.723-15.814 8.32-4.793 17.602-7.67 27.891-8.32 10.755-.679 22.57.655 38.935 3.99l1.123.231 1.137.237c.954.2 1.923.406 2.908.619l1.189.258 1.318.29 2.003.445 3.101.7 4.096.936 5.159 1.183 3.84.874 3.018.68 1.93.429 1.438.314 1.342.289.994.21 1.372.285.81.165.506.101.64.128.972.191 1.002.195.68.13.669.127.663.124.658.121.65.118.646.115.64.112.633.11.628.106.622.103.616.1.611.098.606.094.6.092c.2.03.398.06.595.088l.59.086.585.083.58.08.287.038.573.075.567.073.563.069.558.066.553.064.549.06.544.058.27.027.539.053.533.05.266.024.527.046.262.022.522.041.517.038.514.036.255.016.508.031.252.014.503.027.499.023c14.313.634 24.203-2.49 30.203-10.446 4.725-6.312 5.88-12.798 4.116-20.015-.745-3.05-2-6.22-3.8-9.772-.096-.188-.19-.374-.286-.558l-.239-.46-.243-.464-.31-.578-.158-.292-.326-.594-.341-.612-.238-.421-.374-.655-.33-.572-.421-.722-.53-.9-.49-.827-.901-1.51-1.703-2.843-.651-1.096-.574-.974-.51-.875-.46-.8-.38-.675-.28-.504-.232-.423-.077-.14a98.642 98.642 0 0 1-.28-.52l-.217-.409-.156-.294c-1.746-3.319-2.993-6.228-3.799-9.005-1.913-6.589-1.283-12.38 2.425-17.918.902-1.348 1.987-2.677 3.263-3.99l.175-.179c11.63-11.77 16.366-24.05 15.345-36.547-.804-9.834-5.108-19.291-11.782-28.07a80.86 80.86 0 0 0-8.872-9.86l-.33-.308c-.163-.152-.324-.3-.482-.445l-.314-.284-.154-.138-.302-.269-.149-.13-.29-.254-.186-.16-.26-.22-.16-.135-.238-.196-.18-.146.065-.082Zm-18.352-4.772.175.137.23.183.237.192.17.14.18.149.14.117.285.241.292.25.3.26.306.27.155.138.316.284.16.145.325.297a76.005 76.005 0 0 1 8.252 8.907c6.404 8.142 10.553 16.93 11.377 26.094 1.045 11.64-3.381 23.116-14.348 34.16-5.624 5.686-7.346 11.685-5.942 18.568.593 2.906 1.732 5.963 3.448 9.458l.21.426.105.21.18.357.19.373.23.447.306.581.322.6.254.467.41.742.558.993.394.692.826 1.44 2.103 3.631.638 1.11.647 1.136.458.813.364.657.344.625.164.303.213.396.307.58.248.475.142.277.186.364.207.41.25.507.047.093c1.649 3.361 2.8 6.357 3.483 9.236 1.618 6.819.556 12.918-3.786 18.8-5.482 7.423-14.53 10.328-27.648 9.731a80.86 80.86 0 0 1-.484-.023l-.487-.027-.245-.014-.492-.031-.497-.035-.5-.037-.252-.02-.507-.042-.255-.022-.513-.046-.517-.05-.26-.026-.524-.054-.529-.057-.533-.06-.537-.064-.543-.067-.548-.07-.275-.035-.555-.074-.28-.039-.562-.079-.283-.04-.571-.084a151.16 151.16 0 0 1-.576-.086l-.581-.09-.293-.046-.59-.094-.595-.097-.3-.05-.604-.102-.61-.105-.308-.054-.619-.11-.312-.056-.628-.114-.634-.117-.641-.12-.648-.124-.653-.127-.871-.17-1.113-.222-1.219-.247-1.12-.232-1.148-.243-1.346-.29-1.304-.288-1.931-.433-2.82-.642-4.417-1.018-7.045-1.631-2.97-.68-1.735-.392-2.085-.463-.905-.199-1.11-.241-1.008-.217a398.31 398.31 0 0 0-.997-.211l-.986-.207-.488-.101-.969-.199a315.588 315.588 0 0 0-3.308-.656l-.922-.176-.457-.086-.907-.168-.45-.083-.892-.16c-11.098-1.978-19.978-2.762-28.158-2.321-9.425.506-17.942 3.075-25.593 7.416-6.514 3.696-12.245 8.585-17.233 14.377-4.123 4.789-7.512 9.92-10.214 15.05-.124.234-.244.466-.363.695l-.232.457-.226.45c-.186.373-.364.738-.535 1.097l-.202.427-.196.42c-.191.416-.373.822-.545 1.216l-.14.326-.108.252-.101.242-.096.231-.09.222-.084.21-.093.236-.134.357-.099-.036.067-.18.094-.244.068-.17.129-.322.141-.344.155-.368.11-.257.172-.395.179-.402c.182-.406.374-.824.576-1.251l.206-.431c.383-.797.801-1.627 1.254-2.487 2.706-5.137 6.1-10.274 10.228-15.069 4.995-5.8 10.735-10.698 17.26-14.4 7.665-4.35 16.198-6.922 25.64-7.43 8.407-.453 17.55.386 29.072 2.483l.902.166c1.362.253 2.756.522 4.186.81l.959.193.97.2.98.203.991.21 1.003.213.505.11 1.262.274.906.199 1.794.399 2.214.5 2.265.518 3.69.854 6.2 1.434 3.29.755 2.424.548 1.56.347 1.546.338 1.204.257 1.046.219.814.167.772.156.522.104.8.159.829.162.653.127.647.123.64.12.635.118.627.114.312.056.619.11.612.106.607.104.6.1.299.05.592.095.587.093.58.09.576.086.286.042.567.082.563.079.557.075.552.073.547.07.542.066.537.063.267.03.53.06.264.028.523.054.26.026.517.05.257.023.51.045.254.022.504.04.5.037.496.034.492.031.489.028.484.025.241.012c13.088.595 22.102-2.3 27.56-9.69 4.323-5.855 5.38-11.923 3.768-18.713-.681-2.87-1.83-5.86-3.475-9.214a88.763 88.763 0 0 0-.411-.827l-.138-.273-.19-.372-.199-.383-.306-.581-.264-.496-.333-.614-.293-.532-.308-.554-.259-.462-.556-.982-.614-1.072-.953-1.649-1.293-2.231-.549-.954-.671-1.173-.538-.951-.388-.697-.227-.412-.342-.629-.242-.453-.234-.443-.156-.3-.134-.26-.21-.411-.227-.453-.178-.359-.09-.182c-1.72-3.502-2.861-6.567-3.456-9.483-1.412-6.917.32-12.952 5.97-18.662 10.945-11.023 15.36-22.47 14.318-34.077-.822-9.143-4.963-17.912-11.355-26.04a75.9 75.9 0 0 0-7.91-8.589l-.166-.154-.328-.3a69.8 69.8 0 0 0-.321-.293l-.315-.283a65.402 65.402 0 0 0-.156-.137l-.305-.27c-.1-.087-.2-.174-.3-.259l-.291-.25-.285-.241-.23-.192-.174-.144-.244-.199-.222-.178-.257-.201.063-.084Zm-18.352-4.787.209.156.256.197.235.184.256.203.135.109.275.223.282.232.436.365.298.253.305.263.31.27.316.28.16.143c2.604 2.329 5.208 5 7.638 7.975 6.123 7.492 10.11 15.593 10.951 24.065 1.067 10.748-3.038 21.388-13.322 31.676-5.179 5.22-6.782 10.795-5.525 17.247.531 2.724 1.561 5.598 3.12 8.892l.162.34.183.383.137.282.207.42.14.282.18.355.19.37.195.38.206.391.26.49.374.697.412.758.457.83.575 1.04.573 1.028.99 1.775.716 1.289.5.91.583 1.07.24.445.338.639.32.61.302.587.194.383.19.379.186.376.18.37.09.185.09.186.177.375c1.494 3.16 2.537 5.974 3.155 8.672 1.466 6.39.502 12.074-3.434 17.51-4.955 6.844-13.134 9.514-25.029 8.957l-.465-.023-.47-.027-.472-.03-.477-.032-.481-.036-.242-.02-.488-.04-.492-.045a90.691 90.691 0 0 1-.746-.072l-.502-.052a99.267 99.267 0 0 1-1.02-.114l-.518-.061-.785-.099-.53-.07-.535-.072-.27-.038-.543-.078-.548-.08-.555-.085-.56-.087-.565-.09-.285-.047-.574-.096-.58-.098-.587-.102-.593-.105-.6-.108-.301-.056-.609-.113-.615-.116-.31-.06-.626-.12-.881-.174-1.192-.239-.907-.184-1.023-.212-.945-.2-1.093-.237-1.295-.286-1.438-.325-1.63-.372-2.808-.65-9.672-2.26-1.95-.452-1.626-.372-1.692-.382-1.447-.323-1.093-.24-.928-.2-1.245-.267-.83-.175-.823-.17c-.136-.03-.272-.057-.408-.085l-.811-.165a284.84 284.84 0 0 0-.803-.162l-.796-.157-.788-.153-.78-.15-.388-.073-.77-.144-.763-.14-.757-.135-.749-.132-1.111-.19-.733-.122c-8.632-1.417-15.912-1.998-22.66-1.706-8.566.37-16.327 2.639-23.317 6.536-5.943 3.314-11.185 7.723-15.76 12.958-3.736 4.277-6.82 8.86-9.292 13.443a69.164 69.164 0 0 0-1.293 2.516l-.192.396c-.157.328-.307.649-.45.962l-.168.372-.138.31-.107.244-.149.346-.091.218-.085.206-.098.242-.115.295-.098-.036.043-.113.1-.254.07-.173.131-.315.145-.34.104-.24.11-.25c.406-.912.873-1.896 1.404-2.939l.216-.42.222-.426c.113-.215.229-.432.347-.651 2.475-4.59 5.564-9.178 9.306-13.461 4.582-5.245 9.833-9.661 15.787-12.981 7.004-3.905 14.78-6.178 23.364-6.55 5.803-.251 12 .143 19.107 1.159l.702.101c.47.07.945.142 1.423.216l.72.114.727.118.733.122.74.126c.124.02.248.042.372.064l.75.132.377.067.76.138.767.142.775.145.78.15.79.153.397.079.8.159.807.163.815.168.41.085.827.173.728.154 1.09.234 1.256.273 1.778.394 1.354.305 1.796.41 1.944.448 2.352.548 6.304 1.475 3.418.794 1.434.33 1.631.372 1.44.322 1.166.256.691.149.941.199 1.202.248.683.139 1.44.288.632.124.625.121.618.118.612.114.605.112.599.108.297.053.589.103.583.1.577.097.57.094.284.046.562.088.557.086.55.083.274.04.543.077.537.075.532.07.527.069.522.065.517.061.511.059.255.028.504.054.5.05c.25.024.497.048.742.07l.49.042.484.04.48.035.477.033c.238.016.473.03.708.044l.466.024.232.012c11.863.555 20.008-2.104 24.939-8.915 3.918-5.41 4.876-11.062 3.417-17.425-.616-2.69-1.656-5.496-3.147-8.65l-.178-.375-.179-.37-.09-.185a80.59 80.59 0 0 0-.32-.648l-.234-.467-.243-.476-.305-.587-.212-.404-.279-.524-.234-.436-.308-.57-.327-.6-.645-1.168-.556-1-1.474-2.644-.754-1.363-.494-.9-.347-.64-.407-.759-.29-.552-.312-.6-.294-.578-.07-.141a75.954 75.954 0 0 1-.347-.703l-.069-.141c-.126-.26-.252-.523-.38-.795-1.562-3.3-2.595-6.182-3.128-8.916-1.264-6.486.35-12.095 5.554-17.34C150.97 14.896 155.064 4.287 154-6.43c-.838-8.449-4.817-16.531-10.928-24.01a71.078 71.078 0 0 0-7.626-7.962l-.319-.283-.313-.275a64.282 64.282 0 0 0-.458-.396l-.298-.253-.291-.245-.285-.236-.278-.227-.271-.219-.256-.203-.234-.183-.295-.226-.167-.126.061-.084Zm-18.352-4.77.163.115.231.169.25.186.182.137.233.178.282.218c.238.186.484.382.737.586l.307.25.156.129.317.263.16.136.326.276a66.4 66.4 0 0 1 7.355 7.343c5.839 6.841 9.663 14.256 10.521 22.038 1.088 9.863-2.694 19.672-12.292 29.216-4.738 4.745-6.226 9.89-5.115 15.91.469 2.541 1.392 5.232 2.792 8.327l.098.215.193.421.193.413.194.412.202.419.208.426.333.668.364.716.311.602.604 1.153.71 1.342 1.419 2.659.61 1.151.35.666.391.751.364.705.172.337.274.543.31.623.196.402.143.295.14.292.225.479.176.38.128.28.168.372.083.187.166.377.041.095c1.423 3.266 2.345 6.17 2.773 8.945.813 5.275-.194 10.031-3.383 14.545-4.43 6.27-11.742 8.706-22.418 8.186l-.215-.01-.433-.025-.218-.013-.438-.029c-.147-.01-.295-.02-.443-.032l-.446-.034-.45-.039-.455-.04a78.254 78.254 0 0 1-.229-.022l-.46-.046-.466-.05a85.22 85.22 0 0 1-.235-.025l-.472-.054-.477-.056-.482-.06-.486-.063-.492-.067-.497-.069-.25-.036-.504-.074-.51-.077-.516-.08-.52-.084-.527-.086-.532-.09-.539-.093-.544-.096-.55-.099-.556-.102-.563-.106-.284-.054-.572-.11-.579-.113-.585-.117-1.569-.318-1.003-.208-.731-.154-.731-.157-1.236-.272-1.178-.267-1.59-.366-2.677-.627-9.27-2.195-1.943-.455-1.611-.374-.96-.22-1.289-.293-1.235-.276-.857-.189-1.004-.218-1.147-.246-.81-.17-.772-.16-.617-.126-.308-.062-.658-.133-.652-.129-.325-.063-.645-.125-.32-.061-.638-.12-.317-.06-.631-.116-.314-.057-.623-.111-.62-.11-.613-.105-.61-.103-.606-.1-.601-.096-.597-.094-.593-.091-.295-.045-.586-.086a145.32 145.32 0 0 0-.582-.084l-.579-.08-.288-.04-.572-.075a132.8 132.8 0 0 0-.285-.037l-.567-.072-.563-.068c-.093-.012-.187-.023-.28-.033l-.557-.064-.554-.061-.276-.03-.548-.056a110.88 110.88 0 0 0-.817-.08l-.54-.048-.269-.023-.535-.045-.267-.02-.53-.04c-.265-.02-.528-.037-.79-.054l-.523-.032a91.264 91.264 0 0 0-1.552-.078l-.511-.02a79.403 79.403 0 0 0-5.221-.018c-7.715.235-14.724 2.2-21.057 5.653C4.086 84.525-.67 88.453-4.834 93.131a66.141 66.141 0 0 0-8.373 11.839l-.231.42a57.024 57.024 0 0 0-1.754 3.48l-.11.242-.104.23-.096.219-.09.207-.136.32-.105.26-.098-.037.083-.205.076-.184.084-.196.09-.207.096-.22.104-.23.11-.242c.163-.354.336-.72.52-1.097l.189-.38a66.245 66.245 0 0 1 9.668-14.287c4.17-4.689 8.936-8.624 14.324-11.562 6.347-3.46 13.372-5.43 21.103-5.666a80.85 80.85 0 0 1 6.254.062l.518.025.52.03.524.031.263.018.528.036.53.04.535.043.268.022.54.048.27.024.544.052.822.084.553.06.278.03.558.064.561.067.566.07.284.037.57.074.288.039.577.079.58.082.585.085.294.044.591.09.596.092.6.095.603.099.303.05.61.103.308.052.617.108.155.027.78.14.628.114.633.117.638.12.643.124.324.063.65.128.656.13.33.067.771.157.463.096c.308.063.617.128.928.193l.941.2.817.176 1.339.293 1.39.31 1.643.373 1.351.311 1.848.43 2.456.58 7.307 1.73 3.004.706 1.596.369 1.107.251.999.223.934.203.796.169.922.192 1.496.305.723.145.581.115.575.112.569.108.562.106.279.051.553.1.546.098.272.048.537.093.532.09.264.043.523.085.518.082.512.078.507.076.501.072.496.07.246.033.489.065.484.061.24.03.476.056.237.028.47.052.464.049.46.045c.153.015.305.03.457.043l.452.04.224.018.446.035.442.032.437.029.218.013.432.024.215.01c10.644.52 17.922-1.906 22.327-8.141 3.173-4.491 4.175-9.22 3.366-14.47-.427-2.765-1.346-5.66-2.766-8.919l-.124-.283-.082-.187c-.111-.25-.223-.497-.336-.745l-.13-.28-.222-.477-.184-.386-.19-.393-.246-.504-.26-.52-.273-.543-.35-.684-.312-.602-.333-.636-.503-.955-.804-1.511-1.273-2.388-.733-1.39-.344-.66-.44-.858-.28-.553-.225-.451-.142-.288-.135-.279-.166-.344a79.56 79.56 0 0 1-.678-1.462c-1.404-3.102-2.33-5.8-2.8-8.352-1.117-6.053.381-11.232 5.144-16.002 9.577-9.522 13.346-19.3 12.262-29.13-.855-7.758-4.67-15.155-10.497-21.982a66.296 66.296 0 0 0-7.987-7.875l-.314-.259-.306-.25-.3-.24-.292-.232-.285-.222-.14-.108-.232-.178-.267-.2-.242-.18-.188-.136-.126-.09.06-.085ZM95.338-50.9l.098.065.206.141.152.106.25.176.178.13.286.207.293.217.302.226.31.236.157.121.32.25a61.506 61.506 0 0 1 7.727 7.22c5.55 6.18 9.208 12.903 10.083 19.996 1.098 8.89-2.277 17.793-10.98 26.533l-.265.264c-4.301 4.265-5.674 8.978-4.711 14.566.407 2.36 1.221 4.869 2.465 7.765l.082.19.162.373.198.448.163.362.226.494.186.4.146.309.257.538.223.458.302.615.333.672.572 1.14 1.571 3.111.455.909.216.434.344.695.196.4.313.644.237.495.17.359.165.35.212.455.202.442.193.43.14.315.135.31.13.305.17.4.122.298.12.294.154.389.113.29.147.386.108.29.106.29.139.39.103.294c2.54 7.353 2.28 13.362-1.576 18.982-3.905 5.699-10.352 7.902-19.814 7.418l-.408-.023-.412-.025-.415-.03-.42-.031-.424-.036a64.544 64.544 0 0 1-.214-.019l-.43-.04a68.66 68.66 0 0 1-.435-.043l-.439-.047a73.2 73.2 0 0 1-.221-.024l-.446-.052-.225-.027-.454-.056-.228-.03-.461-.06-.233-.033-.469-.066a93.025 93.025 0 0 1-.236-.034l-.477-.071-.24-.037-.486-.076-.49-.08-.498-.082-.25-.042-.506-.088-.512-.09-.258-.047-.521-.095-.528-.1a146.68 146.68 0 0 1-.266-.05l-.538-.104-.544-.107-.55-.11-.279-.057-1.464-.302-1.173-.247-.766-.164-.483-.107-.811-.182-1.01-.233-1.663-.392-2.018-.482-8.426-2.027-1.658-.395-1.57-.37-1.283-.298-1.23-.283-.99-.223-.96-.215-.75-.164-.734-.16-.9-.192-1.057-.22-.865-.178-.514-.103-.49-.097-.326-.064c-.433-.084-.864-.167-1.296-.248l-.323-.06-.81-.15-.705-.126-.699-.123c-.464-.08-.924-.158-1.381-.233l-.683-.11c-6.12-.974-11.591-1.445-16.704-1.372-6.852.105-13.102 1.77-18.772 4.771-4.806 2.545-9.075 5.984-12.826 10.096a58.755 58.755 0 0 0-7.458 10.226 52.609 52.609 0 0 0-1.534 2.852l-.17.348-.14.287-.106.225-.098.213-.092.2-.108.244-.12.278-.096-.04.075-.177.07-.159.084-.188.091-.201.1-.214.106-.226.057-.117a51.312 51.312 0 0 1 1.79-3.377A58.858 58.858 0 0 1-9.3 76.058c3.759-4.12 8.037-7.567 12.854-10.117 5.685-3.01 11.95-4.678 18.82-4.783 5.119-.074 10.596.397 16.72 1.372l.684.11.344.058.691.116c.463.08.93.161 1.4.246l.353.064.324.059.972.18.643.124.803.156.484.096.65.13.656.134.497.103.839.177.855.183 1.052.23 1.268.282.937.212 1.56.358 1.435.335 1.73.409 2.555.612 8.225 1.978 1.955.463 1.42.329 1.116.25.443.096.666.143 1.768.369.44.09.557.114.276.056.547.108.54.106.534.102.527.099.261.048.518.094.511.09.505.088.5.084.493.08.488.078.241.037.48.073c.476.071.944.137 1.404.198l.458.06.453.056c.225.028.449.054.67.079l.441.048.437.045.432.042.214.02.425.036.422.034.417.03.207.014.411.026.408.022c9.429.483 15.84-1.708 19.722-7.372 3.835-5.59 4.093-11.564 1.563-18.888-.091-.263-.183-.522-.277-.78l-.106-.29-.108-.289-.148-.385-.113-.29-.078-.195-.118-.293-.121-.295-.125-.298-.128-.303-.133-.306-.183-.416-.142-.319-.147-.325-.204-.444-.106-.227-.162-.348-.227-.476-.297-.62-.316-.65-.267-.541-.424-.854-.455-.909-.321-.637-1.45-2.872-.648-1.298-.423-.863-.339-.7-.14-.295-.264-.566-.218-.476-.119-.264-.176-.396-.147-.335-.178-.413c-1.247-2.903-2.064-5.42-2.472-7.789-.96-5.564.387-10.272 4.611-14.528l.129-.129c8.878-8.802 12.32-17.763 11.215-26.71-.872-7.069-4.52-13.775-10.057-19.94a61.403 61.403 0 0 0-7.387-6.948l-.327-.259a51.88 51.88 0 0 0-1.523-1.153l-.32-.23-.168-.12-.232-.162-.301-.204.057-.088Zm-18.352-4.77.176.11.187.121.314.208.172.115.274.187.282.196.29.204c.195.139.396.283.601.433l.311.23c.157.117.317.236.479.36a57.052 57.052 0 0 1 6.787 6.05c5.269 5.532 8.764 11.574 9.657 17.98 1.117 8.018-1.943 16.1-9.98 24.098l-.245.243c-3.858 3.793-5.113 8.08-4.297 13.24.345 2.18 1.051 4.51 2.137 7.208l.216.53.213.515.218.513.2.46.274.618.269.594.298.649.564 1.209 1.8 3.806.365.78.39.841.256.56.24.532.182.408.216.491.165.382.198.465.19.458.118.288.078.192c.103.255.204.511.306.771 3.159 8.118 3.326 14.255-.437 19.955-3.383 5.127-8.964 7.095-17.212 6.646l-.184-.01-.37-.023a49.065 49.065 0 0 1-.187-.013l-.375-.028-.38-.03-.383-.035a55.377 55.377 0 0 1-.194-.018l-.39-.038-.196-.02-.396-.044c-.133-.015-.266-.03-.4-.047l-.406-.05a68.063 68.063 0 0 1-.41-.052l-.414-.056-.42-.059-.424-.062-.43-.065-.436-.069-.44-.071-.446-.075-.452-.078-.228-.04-.461-.083-.467-.086-.473-.09-.479-.092-.485-.095-.492-.099-.499-.102-.505-.105-.512-.108-.553-.12-.561-.122-.764-.17-.987-.223-1.027-.237-.857-.201-1.12-.267-2.31-.56-6.296-1.547-1.273-.31-1.23-.296-1.189-.283-.695-.164-.907-.212-1.102-.254-1.07-.243-.627-.14-.821-.181-.605-.131-.595-.128-.586-.124-.579-.12-.76-.155-.747-.15-.737-.143-.546-.104-.72-.133-.535-.097-.354-.064-.53-.092-.525-.09-.524-.087-.521-.084-.347-.055-.52-.08-.519-.08-.518-.075-.542-.078-.184-.025-.37-.051c-4.035-.549-7.811-.84-11.408-.856-5.988-.028-11.48 1.333-16.49 3.883-4.238 2.157-8.022 5.107-11.364 8.651a51.428 51.428 0 0 0-6.544 8.62 44.534 44.534 0 0 0-1.589 2.84l-.145.289-.089.18-.12.249-.099.21-.067.148-.096-.042.088-.191.118-.251.082-.17.09-.18.145-.29c.437-.858.968-1.815 1.592-2.846a51.532 51.532 0 0 1 6.557-8.638c3.35-3.552 7.144-6.51 11.393-8.672 5.025-2.558 10.533-3.922 16.538-3.895 3.602.016 7.383.308 11.423.857.616.084 1.23.172 1.843.264l.539.083.513.08.342.055.515.085.69.116.521.09.524.094.528.096.71.132.538.102.727.142.551.11.558.112.755.156.383.08.776.165.592.128 1.007.22.825.185.844.192 1.083.249 1.117.26 1.152.274 1.19.285 1.23.297 8.306 2.038 1.263.303 1.108.263.64.15.825.191.6.137.587.133.575.128.564.123.739.16.511.108.505.105.25.051.495.1.488.097.482.094.475.09.47.088.462.084.23.041.454.08.225.038.446.075.44.072.434.068.43.065.424.062c.21.03.42.06.627.088l.411.054.204.026.405.05.598.068.393.041.39.04.384.035.381.032.377.03.187.013.372.024.367.022c8.215.447 13.76-1.509 17.12-6.6 3.74-5.666 3.574-11.77.426-19.859l-.076-.194-.152-.385-.112-.278-.113-.278-.154-.372-.159-.377-.122-.286-.126-.292-.174-.397-.182-.41-.24-.535-.204-.447-.384-.834-.49-1.047-.623-1.32-1.17-2.473-.5-1.072-.279-.603-.252-.554-.263-.586-.183-.416-.174-.403-.14-.327-.196-.47-.151-.37-.136-.335c-1.088-2.705-1.797-5.042-2.144-7.23-.813-5.14.42-9.427 4.212-13.217l.116-.115c8.197-8.055 11.318-16.187 10.194-24.252-.889-6.38-4.374-12.404-9.629-17.922a56.948 56.948 0 0 0-7.095-6.28l-.313-.234-.307-.224a48.95 48.95 0 0 0-.878-.624l-.278-.19-.223-.152-.246-.164-.223-.146-.29-.184.056-.089ZM58.62-60.442l.213.125.135.08.222.136.244.152.282.178c.239.152.486.313.742.483l.311.209a52.746 52.746 0 0 1 7.318 5.957c4.986 4.883 8.318 10.243 9.227 15.963 1.137 7.15-1.608 14.417-8.975 21.68l-.225.22c-3.419 3.327-4.56 7.193-3.892 11.93.273 1.942.845 4.025 1.727 6.434l.146.394.127.34.12.312.222.571.21.524.138.34.178.43.331.785.65 1.508 1.37 3.142.209.482.422.984.211.5.236.564.22.538.21.523.07.172c.08.202.158.403.237.607l.16.418c.236.623.455 1.227.656 1.816l.131.39c.902 2.713 1.42 5.088 1.56 7.359.217 3.515-.507 6.671-2.333 9.58-2.865 4.569-7.588 6.303-14.64 5.884l-.333-.022a40.429 40.429 0 0 1-.336-.024l-.34-.027-.172-.015-.345-.032a46.105 46.105 0 0 1-.35-.035l-.354-.038-.358-.042-.362-.044-.367-.048-.372-.05-.377-.054-.19-.028-.384-.059-.194-.03-.392-.064-.198-.033-.4-.068-.406-.07a82.123 82.123 0 0 1-.205-.038l-.414-.076-.42-.079-.427-.082-.433-.086-.44-.089-.445-.092-.452-.095-.229-.049-.463-.1-.632-.14-.66-.148-.848-.196-.883-.207-.925-.222-1.178-.288-2.85-.711-4.665-1.177-1.075-.268-.701-.174-.691-.17-.681-.165-.672-.162-.99-.236-.648-.152-.64-.149-.63-.145-.624-.142a226.28 226.28 0 0 0-.308-.07l-.611-.136-.603-.132-.596-.13-.588-.125-.292-.061-.578-.12-.571-.117-.565-.113-.28-.056-.555-.108-.276-.052-.547-.103-.541-.1-.536-.096-.267-.047-.528-.091-.524-.088-.52-.085-.258-.041-.513-.08-.51-.076-.505-.074a95.32 95.32 0 0 0-.752-.104l-.498-.065-.495-.063-.492-.059-.49-.056-.488-.053-.486-.05a81.19 81.19 0 0 0-5.047-.349l-.48-.016-.242-.008c-9.538-.28-17.552 3.585-24.09 10.202a44.192 44.192 0 0 0-5.637 7.026 38.355 38.355 0 0 0-1.312 2.174l-.128.23-.137.256-.083.157-.075.145-.114.229-.095-.045.069-.139.084-.164.079-.152.087-.163.093-.173.05-.091.158-.284.167-.293a44.295 44.295 0 0 1 6.719-8.786C-11.51 35.416-3.47 31.538 6.101 31.82c1.462.042 2.908.123 4.368.244l.487.042.489.044.49.048.49.051.494.054.496.058.498.06c.167.02.334.042.5.064l.505.066c.505.069 1.015.142 1.53.22l.518.08.522.083.526.086.531.09.536.093.27.048.543.098.549.102.276.052.558.107.563.11.57.114.287.058.58.12.292.06.59.125.598.128.301.065.609.134.616.137.625.14.633.145.641.149.65.152.66.156 1.007.24 1.028.25 1.051.258.714.177 6.972 1.756 1.062.263 1.192.292.751.181.544.13.703.164.68.157.663.15.326.073.47.104.462.1.455.096.448.094.442.09.435.087.216.043.426.082.42.08.207.038.411.074.405.071.4.068.394.065.195.031.386.06.191.029.379.055.373.052.37.05.363.045.18.022.358.042.177.019.351.037.174.017.345.032.341.029.337.025.168.012.332.021c7.018.418 11.704-1.303 14.546-5.834 1.813-2.89 2.532-6.024 2.317-9.519-.16-2.584-.812-5.307-1.964-8.515l-.147-.404c-.1-.27-.203-.545-.31-.823l-.181-.47-.136-.345-.208-.52-.216-.531-.19-.46-.288-.682-.178-.417-.39-.906-1.7-3.903-.393-.915-.305-.721-.241-.58-.22-.541-.18-.454-.168-.435-.114-.296L66 3.542a90.1 90.1 0 0 1-.067-.18c-.93-2.51-1.53-4.667-1.814-6.676-.666-4.72.456-8.59 3.82-11.919l.103-.1c7.513-7.314 10.313-14.622 9.17-21.809-.906-5.694-4.226-11.035-9.197-15.904a52.643 52.643 0 0 0-6.986-5.729l-.317-.217-.31-.208-.303-.2-.294-.19a41.9 41.9 0 0 0-.286-.182l-.223-.14-.236-.146-.145-.088-.257-.153-.09-.051.053-.09Zm-18.353-4.788.162.086.27.148.256.143.226.129.274.159.14.082.287.17.444.271.305.19.155.098.315.201a48.773 48.773 0 0 1 6.234 4.738c4.704 4.236 7.873 8.915 8.8 13.95 1.156 6.283-1.277 12.73-7.98 19.25l-.205.198c-2.974 2.857-3.998 6.304-3.478 10.621l.037.292.026.193.027.191.029.191.03.19.047.285.034.19.072.38.039.19.04.192.042.192.045.195.046.195.048.198.05.2.053.2.055.205.057.207.09.316.064.215.1.329.07.224.072.228.113.35.08.24.124.369.087.252.136.39.192.538.102.28.158.43.165.446.174.463.245.643.327.85.351.904.377.962.562 1.431.323.832.249.65.227.605.151.406.149.406.074.206.145.407.14.4c.3.862.567 1.68.8 2.466l.105.36c.104.357.2.708.289 1.052l.087.343c.381 1.532.623 2.947.733 4.32.268 3.361-.306 6.324-1.873 9.003-2.354 4.022-6.223 5.52-12.1 5.122l-.146-.01-.295-.023-.149-.013-.3-.027-.305-.03-.308-.034-.313-.037-.158-.02-.318-.04a42.862 42.862 0 0 1-.162-.022l-.325-.046-.33-.049-.336-.052-.34-.055-.346-.059-.351-.061-.357-.065-.362-.068-.369-.071-.374-.074-.38-.078-.388-.08-.393-.085-.4-.087-.408-.09-.414-.095-.422-.097-.613-.144-.821-.198-.715-.175-.753-.188-1.134-.288-6.665-1.734-.843-.216-1.1-.278-.81-.202-.793-.195-.522-.127-.772-.185-.508-.12-.502-.117-.743-.171-.49-.111-.484-.108-.48-.106-.475-.103a147.54 147.54 0 0 0-.236-.05l-.469-.1a138.87 138.87 0 0 0-.232-.049l-.463-.095-.23-.047-.456-.092-.453-.089-.45-.087-.446-.084-.443-.082-.44-.08-.438-.076-.434-.075-.216-.037-.431-.07-.429-.07-.213-.033-.426-.066-.423-.063-.422-.06-.21-.03-.42-.057-.418-.056a85.99 85.99 0 0 0-.21-.026l-.416-.052-.208-.025-.415-.049-.208-.023-.414-.046-.414-.043-.414-.04-.413-.04-.414-.036-.414-.035-.415-.033-.415-.03-.623-.042-.209-.014c-7.895-.47-14.675 2.55-20.325 7.877a37.056 37.056 0 0 0-4.745 5.45c-.463.65-.86 1.253-1.192 1.795l-.096.157-.087.146-.08.136-.135.24-.092-.05.05-.092.087-.15.08-.137.135-.225.049-.08c.333-.544.732-1.15 1.196-1.801a37.16 37.16 0 0 1 4.758-5.465c5.67-5.345 12.477-8.377 20.403-7.905l.21.013.416.028.416.03.415.031.414.034.207.017.415.037.414.04.207.02.414.042.415.044.415.046.416.049.416.05.418.054.21.027.419.056.21.03.421.059.423.062.425.064.427.067.43.069.43.071.217.037.435.074.437.077.22.04.442.08.445.084.224.042.45.087.453.09.228.045.46.093.462.096.467.098.471.1.476.103.48.106.242.054.487.11.74.169.752.175.508.12.513.123.52.125.525.129.531.13.538.134.818.206.834.212 6.35 1.652 1.214.312.953.241.743.185.57.14.685.165.535.127.424.098.418.096.612.137.4.087.393.084.386.08.38.078.374.074.185.036.364.07.18.033.357.065.35.061.173.03.343.056.337.054.332.05.164.024.325.046.32.043.317.04.156.018.31.035.153.016.304.03.3.028.296.024.293.021c5.84.397 9.67-1.087 12.002-5.07 1.556-2.66 2.125-5.6 1.859-8.941-.118-1.47-.388-2.988-.818-4.648l-.091-.346a43.663 43.663 0 0 0-.412-1.427l-.114-.368-.12-.374-.123-.38a61.7 61.7 0 0 0-.129-.385l-.133-.39a69.648 69.648 0 0 0-.068-.198l-.14-.4-.072-.202-.148-.409-.148-.405-.254-.683-.243-.64-.354-.916-.474-1.21-.416-1.059-.432-1.107-.267-.693-.253-.66-.12-.319-.23-.614-.164-.442-.155-.426-.196-.546-.094-.264-.133-.386-.127-.373-.12-.361-.077-.236-.074-.23-.071-.227-.069-.223-.066-.218-.063-.216-.061-.212-.087-.312-.028-.103-.053-.203-.077-.301-.049-.198-.046-.196-.044-.195-.043-.193-.04-.192-.039-.192-.019-.095-.036-.19-.051-.286-.032-.19-.031-.19-.043-.288-.028-.192-.026-.193-.024-.195-.012-.098c-.519-4.303.488-7.755 3.415-10.619l.094-.09c6.834-6.565 9.315-13.045 8.153-19.355-.846-4.599-3.577-8.905-7.65-12.847l-.273-.263a42.719 42.719 0 0 0-.843-.78 48.67 48.67 0 0 0-6.535-4.929l-.308-.193a46.415 46.415 0 0 0-.449-.275l-.29-.175-.28-.166a40.287 40.287 0 0 0-.139-.08l-.269-.155-.264-.15-.237-.13-.275-.147.048-.093ZM21.913-70l.196.092.143.07.154.076.254.127.422.217.292.155.15.08.305.166c.258.142.524.292.798.45a45.354 45.354 0 0 1 5.967 4.076l.143.117.281.233c.234.195.463.39.687.588l.268.237c.31.278.61.558.904.84l.248.242c3.041 2.994 5.1 6.239 5.85 9.702 1.187 5.478-.995 11.165-7.189 16.993-2.531 2.4-3.44 5.44-3.07 9.35l.026.263.02.175.02.174.02.173.03.236.045.313.036.236.026.157.04.238.029.159.03.16.031.161.05.245.034.164.055.25.058.255.062.26.066.264.069.271.073.277.104.38.111.395.12.41.062.21.098.324.137.448.147.466.155.488.208.64.27.816.192.575.308.914.74 2.173.322.961.182.551.105.323.128.399.124.392.12.385.116.378.112.372.107.366c.036.12.07.24.104.359l.1.354.095.347.09.343.088.337.042.167.081.33.078.326.073.32c.239 1.064.412 2.059.524 3.023l.032.288c.016.144.03.287.042.43.27 3.13-.16 5.835-1.422 8.228-1.852 3.521-4.878 4.785-9.633 4.386l-.248-.022-.25-.024a26.327 26.327 0 0 1-.254-.028l-.257-.03-.13-.017-.264-.035a30.878 30.878 0 0 1-.133-.019l-.27-.04-.273-.042-.28-.045a37.737 37.737 0 0 1-.14-.024l-.286-.05-.291-.053-.297-.056-.302-.059-.307-.062-.314-.066-.32-.068-.326-.072-.333-.075-.339-.078-.346-.082-.534-.128-.181-.044-.368-.092-.606-.153-.835-.22-3.1-.832-4.856-1.318-.322-.085-.64-.168-.316-.082-.626-.162-.618-.157-.61-.153-.604-.149-.3-.072-.593-.143-.294-.07-.584-.137-.29-.067-.576-.13-.57-.128-.565-.123c-.375-.08-.748-.16-1.117-.235l-.553-.112-.55-.108-.273-.053-.545-.102c-.272-.05-.542-.1-.812-.148l-.54-.093c-.358-.062-.716-.12-1.073-.178l-.535-.083-.535-.08-.534-.077c-.98-.138-1.96-.259-2.951-.364-6.244-.663-11.802 1.498-16.581 5.509a30.095 30.095 0 0 0-3.84 3.868c-.38.462-.711.89-.989 1.275l-.092.13-.084.118-.151.223-.007.011-.088-.057.068-.102.054-.078.122-.176.094-.13c.278-.387.61-.817.993-1.28a30.2 30.2 0 0 1 3.852-3.883c4.8-4.027 10.384-6.198 16.66-5.532 1.263.134 2.508.294 3.757.48l.535.083c.893.139 1.789.292 2.695.46l.546.103.548.107.275.055.554.111C-.6 3.981.056 4.122.72 4.27l.574.129.578.133.292.068.587.139.594.143.6.147.304.075.61.153.62.157.626.161.317.083.64.168.826.22L14.3 7.785l1.537.408.567.147.376.095.549.135.356.087.522.123.338.078.332.075.326.071.32.069.312.065.307.062.301.06.296.055.146.027.288.051.142.025.28.047c.093.015.185.03.276.043l.27.041.267.038.132.018.26.033.257.03.253.029.126.012.248.024.122.01c4.717.396 7.702-.85 9.532-4.33 1.253-2.375 1.68-5.06 1.41-8.17a26.972 26.972 0 0 0-.46-3.101l-.066-.312a35.367 35.367 0 0 0-.034-.158l-.072-.318-.075-.323-.079-.326-.04-.166-.086-.334-.089-.339a50.5 50.5 0 0 0-.046-.171l-.095-.347-.1-.353a61.184 61.184 0 0 0-.103-.359l-.107-.364a69.69 69.69 0 0 0-.055-.185l-.114-.374-.058-.19-.12-.384-.187-.59-.17-.522-.237-.719-.403-1.195-.577-1.692-.34-1.008-.21-.63-.294-.891-.18-.559-.129-.402-.16-.514-.152-.49-.071-.238-.136-.46-.126-.44-.088-.32-.056-.207-.055-.204-.051-.2-.074-.295-.07-.288-.065-.282-.061-.277-.039-.181-.036-.18-.052-.267-.033-.176-.046-.263-.029-.174-.027-.173-.039-.26a23.853 23.853 0 0 1-.012-.086l-.035-.26-.032-.26-.03-.262-.027-.264-.008-.09c-.373-3.939.545-7.01 3.102-9.434 6.169-5.804 8.338-11.456 7.16-16.895-.827-3.814-3.254-7.366-6.84-10.61l-.265-.237c-.4-.355-.814-.706-1.24-1.053a45.251 45.251 0 0 0-5.954-4.067 45.118 45.118 0 0 0-1.25-.694l-.292-.154a38.2 38.2 0 0 0-.282-.146l-.31-.157-.235-.117-.305-.146-.031-.014.043-.095Z"
    />
  </g>
</svg>
