<svg xmlns="http://www.w3.org/2000/svg" width="27" height="40">
  <path fill="#FFF" fill-rule="nonzero"
    d="M13.5 0c1.287 0 2.385.81 2.811 1.95a3 3 0 0 1 5.184 1.874L21.5 4v1.764a3 3 0 0 1 4.995 2.06L26.5 8v6c0 5.51-2.094 10.891-5 11.452v3.218a3 3 0 1 1 0 5.659V39a.5.5 0 0 1-.41.492L21 39.5H9a.5.5 0 0 1-.492-.41L8.5 39v-4.67a3 3 0 1 1 .001-5.658v-3.205C4.826 24.992.5 19.431.5 14l.004-1.104.01-.741.012-.454.017-.424.023-.394.03-.366.038-.339.023-.159.051-.3c.265-1.34.86-1.873 2.197-2.083l.298-.04.322-.032.346-.024.371-.017.607-.016L5.5 7.5V4a3 3 0 0 1 5.19-2.05A2.999 2.999 0 0 1 13.5 0Zm6.499 33.157a2.997 2.997 0 0 1-5 0 2.997 2.997 0 0 1-5 0c-.141.213-.309.407-.498.577L9.5 38.5h11l-.001-4.765a3.016 3.016 0 0 1-.5-.578ZM12.5 29.5a2 2 0 1 0 0 4 1.999 1.999 0 0 0 1.995-1.837l.005-.147-.004-.148A2 2 0 0 0 12.5 29.5Zm5 0a2 2 0 1 0 0 4 2 2 0 0 0 0-4Zm-10 0a2 2 0 1 0 0 4 2 2 0 0 0 0-4Zm15 0a2 2 0 1 0 0 4 2 2 0 0 0 0-4ZM13.5 1a2 2 0 0 0-1.995 1.85L11.5 3v10a.5.5 0 0 1-.992.09L10.5 13V4a2 2 0 0 0-3.995-.15L6.5 4v13a.5.5 0 0 1-.992.09L5.5 17V8.5h-.924l-.53.008-.317.013-.29.02a6.47 6.47 0 0 0-.135.012l-.25.033c-.995.158-1.355.6-1.484 1.814l-.027.307-.02.338-.012.37-.011.846V14c0 5.077 4.182 10.313 7.332 10.495L9 24.5a.5.5 0 0 1 .492.41L9.5 25l.001 4.265c.19.17.359.365.5.578a2.993 2.993 0 0 1 4.998 0 2.997 2.997 0 0 1 5.002 0c.141-.213.309-.407.498-.577L20.5 25l.008-.09a.5.5 0 0 1 .402-.402L21 24.5c1.666 0 3.216-2.565 3.988-5.939l.115-.54c.236-1.18.376-2.446.395-3.726L25.5 14V8a2 2 0 0 0-3.995-.15L21.5 8v5a.5.5 0 0 1-.41.492L21 13.5a.5.5 0 0 1-.492-.41L20.5 13V4a2 2 0 0 0-3.995-.15L16.5 4v9a.5.5 0 0 1-.992.09L15.5 13V3a2 2 0 0 0-2-2Z" />
  </svg>