<svg xmlns="http://www.w3.org/2000/svg" width="36" height="40">
  <path fill="#FFF" fill-rule="nonzero"
    d="M9 0c.716 0 1.322.504 1.47 1.21l.022.145.008.145v9.354a4 4 0 1 1 3.2 6.64l-.2.006h-3v7.65a7.503 7.503 0 0 1 5.996 7.107l.004.243a7.5 7.5 0 1 1-9-7.35V17.5h-3a4 4 0 1 1 3-6.645V1.471l.01-.145A1.5 1.5 0 0 1 9 0Zm0 26a6.5 6.5 0 1 0 0 13 6.5 6.5 0 0 0 0-13Zm.5-8.5h-1v7.516c.086-.005.171-.01.257-.012L9 25c.168 0 .335.006.5.016V17.5Zm4-7a3 3 0 0 0-2.995 2.824l-.005.176a.5.5 0 0 0 .992.09l.008-.09a2 2 0 1 1 2.15 1.995l-.15.005h-9a2 2 0 1 1 1.995-2.15l.005.15a.5.5 0 0 0 .992.09l.008-.09a3 3 0 1 0-3.176 2.995l.176.005h9a3 3 0 0 0 0-6Zm0 2a1 1 0 0 0-.993.883l-.007.117c0 .385-.145.736-.383 1.001L13.5 14.5a1 1 0 0 0 0-2Zm-9 0a1 1 0 0 0-.117 1.993l.117.007 1.383.001a1.494 1.494 0 0 1-.376-.857L5.5 13.5a1 1 0 0 0-1-1ZM9 1a.505.505 0 0 0-.476.331l-.018.081L8.5 1.5v13.001h1V1.529l-.003-.088A.5.5 0 0 0 9 1Zm18-1c.716 0 1.322.504 1.47 1.21l.022.145.008.145v9.354a4 4 0 1 1 3.2 6.64l-.2.006h-3v7.65a7.503 7.503 0 0 1 5.996 7.107l.004.243a7.5 7.5 0 1 1-9-7.35V17.5h-3a4 4 0 1 1 3-6.645V1.471l.01-.145A1.5 1.5 0 0 1 27 0Zm0 26a6.5 6.5 0 1 0 0 13 6.5 6.5 0 0 0 0-13Zm.5-8.5h-1v7.516c.086-.005.171-.01.257-.012L27 25c.168 0 .335.006.5.016V17.5Zm4-7a3 3 0 0 0-2.995 2.824l-.005.176a.5.5 0 0 0 .992.09l.008-.09a2 2 0 1 1 2.15 1.995l-.15.005h-9a2 2 0 1 1 1.995-2.15l.005.15a.5.5 0 0 0 .992.09l.008-.09a3 3 0 1 0-3.176 2.995l.176.005h9a3 3 0 0 0 0-6Zm0 2a1 1 0 0 0-.993.883l-.007.117c0 .385-.145.736-.383 1.001L31.5 14.5a1 1 0 0 0 0-2Zm-9 0a1 1 0 0 0-.117 1.993l.117.007 1.383.001a1.494 1.494 0 0 1-.376-.857L23.5 13.5a1 1 0 0 0-1-1ZM27 1a.505.505 0 0 0-.476.331l-.018.081-.006.088v13.001h1V1.529l-.003-.088A.5.5 0 0 0 27 1Z" />
  </svg>