<svg xmlns="http://www.w3.org/2000/svg" width="3292" height="374"><g fill="#FFF" fill-rule="evenodd" transform="translate(-9 -46)"><g fill-rule="nonzero"><path d="M1964.625 249.8c0 71.1-4.95 88.2-25.65 88.2-23.85 0-18-41.4-36.45-41.4-8.55 0-13.5 4.95-13.5 13.5 0 18.45 19.8 32.4 46.8 32.4 40.5 0 56.25-26.1 56.25-92.7V147.65c0-22.5 7.2-33.3 21.6-33.3V113h-70.2v1.35c14.4 0 21.15 10.8 21.15 33.3V249.8ZM2027.175 338h154.35l27.45-76.05h-3.6c-19.35 49.05-41.4 71.55-71.55 71.55h-58.05V227.75h31.5c23.85 0 33.3 8.55 33.3 30.6h3.6v-65.7h-3.6c0 22.05-9.45 30.6-33.3 30.6h-31.5V117.5h50.4c32.4 0 50.4 16.2 67.95 61.2h3.6l-23.85-65.7h-146.7v1.35c15.3 0 21.15 9.45 21.15 33.3v155.7c0 23.85-5.85 33.3-21.15 33.3V338ZM2298.525 338.45h11.25l71.1-189.45 71.55 189.45h11.25l71.55-190.35c9.45-24.75 16.2-33.75 26.55-33.75V113h-50.85v1.35c22.5 0 29.25 8.1 22.05 27l-63.45 169.2-63.45-171.9c-6.3-16.65.9-24.3 22.95-24.3V113h-84.6v1.35c16.65 0 25.65 7.65 34.2 28.8l-63 167.4-63.45-171.9c-6.3-16.65.9-24.3 22.95-24.3V113h-75.15v1.35c9 0 16.65 7.2 22.05 21.6l76.5 202.5ZM2577.525 338h24.75c27.45 0 52.65 5.85 85.5 25.2l50.4 29.7c27.9 16.65 54 27 74.7 27 29.25 0 50.85-20.25 61.2-56.7h-2.25c-8.1 24.75-27 40.05-49.5 40.05-30.15 0-47.7-10.35-71.1-24.3l-56.7-33.3c-18.45-10.8-45.9-13.05-68.4-13.05V228.2h31.5c23.85 0 33.3 8.55 33.3 30.6h3.6v-65.7h-3.6c0 22.05-9.45 30.6-33.3 30.6h-31.5V117.5h50.4c32.4 0 50.4 16.2 67.95 61.2h3.6l-23.85-65.7h-146.7v1.35c15.3 0 21.15 9.45 21.15 33.3v155.7c0 23.85-5.85 33.3-21.15 33.3V338Z"/><path d="M2761.575 338h130.95l23.4-65.7h-3.6c-18.9 48.6-31.5 61.2-61.65 61.2h-40.5V147.65c0-23.85 5.85-33.3 21.15-33.3V113h-69.75v1.35c15.3 0 21.15 9.45 21.15 33.3v155.7c0 23.85-5.85 33.3-21.15 33.3V338ZM2997.375 117.95c30.15 0 48.15 20.25 48.15 54.9 0 32.4-16.2 57.6-48.15 57.6h-28.35v-112.5h28.35Zm-6.75 220.05v-1.35c-15.3 0-21.6-9.45-21.6-33.3v-68.4h28.35c17.1 0 25.2 6.3 28.8 22.5l11.7 49.5c6.75 23.85 21.15 31.05 61.2 31.05h11.7v-1.35h-7.65c-58.05 0-33.3-70.2-64.35-97.65-3.6-3.15-8.55-5.4-14.85-6.75 30.6-7.65 46.35-31.05 46.35-59.4 0-37.35-26.1-59.85-70.2-59.85h-80.1v1.35c15.3 0 21.6 9.45 21.6 33.3v155.7c0 23.85-6.3 33.3-21.6 33.3V338h70.65ZM3151.275 338h70.2v-1.35c-15.3 0-21.6-9.45-21.6-33.3V210.2l59.4-73.8c11.7-14.4 26.1-22.05 40.95-22.05V113h-54.9v1.35c16.2 0 18.45 9 5.85 24.3l-55.8 69.75-49.05-60.75c-11.7-14.4-26.55-33.3-.9-33.3V113h-77.4v1.35c13.05 0 21.15 6.3 43.2 33.3l61.2 76.05v79.65c0 23.85-5.85 33.3-21.15 33.3V338Z"/></g><g fill-rule="nonzero"><path d="M118 46.6c13.6 0 26 1.867 37.2 5.6 11.2 3.733 20.733 8.767 28.6 15.1 7.867 6.333 13.967 13.667 18.3 22s6.5 17.1 6.5 26.3c0 9.067-1.867 17.3-5.6 24.7-3.733 7.4-8.633 14.3-14.7 20.7-6.067 6.4-13 12.367-20.8 17.9a719.103 719.103 0 0 1-24 16.3c-8.2 5.333-16.2 10.7-24 16.1-7.8 5.4-14.733 11.067-20.8 17s-10.967 12.267-14.7 19c-3.733 6.733-5.6 14.233-5.6 22.5 0 22 2.533 38.8 7.6 50.4 5.067 11.6 13.333 17.4 24.8 17.4v2.2H9.2v-2.2c6.267 0 11.5-2.3 15.7-6.9 4.2-4.6 7.567-10.9 10.1-18.9 2.533-8 4.3-17.433 5.3-28.3s1.5-22.567 1.5-35.1V136c0-11.867-.633-23.1-1.9-33.7-1.267-10.6-3.267-19.833-6-27.7-2.733-7.867-6.133-14.1-10.2-18.7-4.067-4.6-8.9-6.9-14.5-6.9v-2.4H118ZM78.2 241.8c3.6-6.933 7.733-12.867 12.4-17.8 4.667-4.933 9.567-9.333 14.7-13.2a187.912 187.912 0 0 1 15.8-10.7 456.58 456.58 0 0 0 15.8-10 118.75 118.75 0 0 0 14.4-11.2c4.467-4.067 8.4-8.9 11.8-14.5 3.4-5.6 6.067-12.2 8-19.8 1.933-7.6 2.9-16.6 2.9-27 0-9.2-1.6-17.833-4.8-25.9-3.2-8.067-7.333-15.1-12.4-21.1-5.067-6-10.8-10.733-17.2-14.2-6.4-3.467-12.8-5.2-19.2-5.2-5.333 0-10.567 1.5-15.7 4.5-5.133 3-9.633 7.833-13.5 14.5-3.867 6.667-7 15.4-9.4 26.2-2.4 10.8-3.6 24-3.6 39.6v105.8ZM281.8 118c12 0 22.367 2.033 31.1 6.1s16.233 9.633 22.5 16.7c6.267 7.067 11.467 15.267 15.6 24.6 4.133 9.333 7.6 19.267 10.4 29.8 2.8 10.533 5.1 21.333 6.9 32.4 1.8 11.067 3.5 21.867 5.1 32.4 1.6 10.533 3.3 20.467 5.1 29.8 1.8 9.333 4.067 17.533 6.8 24.6 2.733 7.067 6.133 12.633 10.2 16.7 4.067 4.067 9.167 6.1 15.3 6.1v2.4H375c-8.133 0-14.8-2.933-20-8.8-5.2-5.867-9.4-13.633-12.6-23.3-3.2-9.667-5.667-20.7-7.4-33.1a1475.517 1475.517 0 0 1-4.8-38 308.12 308.12 0 0 1-9.6 37c-4 12.267-9 23.3-15 33.1s-13.133 17.767-21.4 23.9c-8.267 6.133-17.933 9.2-29 9.2-7.467 0-14.4-1.9-20.8-5.7-6.4-3.8-11.733-8.9-16-15.3-4.267-6.4-7.2-13.767-8.8-22.1-1.6-8.333-1.333-17.1.8-26.3 1.733-7.6 4.867-15.467 9.4-23.6 4.533-8.133 10.733-16.2 18.6-24.2 7.867-8 17.567-15.867 29.1-23.6 11.533-7.733 25.167-15.067 40.9-22 3.067-1.333 5.4-2.767 7-4.3 1.6-1.533 2.7-3.167 3.3-4.9.6-1.733.8-3.467.6-5.2-.2-1.733-.633-3.4-1.3-5-1.333-4.133-3.033-8.3-5.1-12.5-2.067-4.2-4.533-8-7.4-11.4-2.867-3.4-6.2-6.133-10-8.2-3.8-2.067-8.167-3.1-13.1-3.1-4.667 0-9.433 1.1-14.3 3.3-4.867 2.2-9.867 5.2-15 9-5.133 3.8-10.4 8.3-15.8 13.5-5.4 5.2-11.033 10.8-16.9 16.8l-2.8-29.2c6.267-4 12.467-7.167 18.6-9.5 6.133-2.333 12-4.1 17.6-5.3 5.6-1.2 10.8-1.967 15.6-2.3 4.8-.333 8.933-.5 12.4-.5Zm44.8 101c.933-6.4.833-13.1-.3-20.1-1.133-7-2.3-13.7-3.5-20.1-17.067 6.8-31 13.933-41.8 21.4-10.8 7.467-19.267 15.067-25.4 22.8-6.133 7.733-10.3 15.5-12.5 23.3-2.2 7.8-3.233 15.433-3.1 22.9.267 8.667 2.133 16.4 5.6 23.2 3.467 6.8 7.9 11.9 13.3 15.3 5.4 3.4 11.4 4.7 18 3.9 6.6-.8 13.067-4.5 19.4-11.1 6.333-6.6 12.2-16.5 17.6-29.7 5.4-13.2 9.633-30.467 12.7-51.8ZM495.8 52c-7.467.4-13.533 2.867-18.2 7.4s-7.767 10.1-9.3 16.7c-1.533 6.6-1.5 13.667.1 21.2 1.6 7.533 5 14.5 10.2 20.9 5.2 6.4 12.2 11.733 21 16 8.8 4.267 19.6 6.4 32.4 6.4h28l.2 9.2h-27c-9.067 0-16.567 1.567-22.5 4.7s-10.633 7.433-14.1 12.9c-3.467 5.467-6 11.933-7.6 19.4-1.6 7.467-2.6 15.533-3 24.2-.4 8.667-.467 17.733-.2 27.2.267 9.467.467 19 .6 28.6.267 12.533.967 23.3 2.1 32.3 1.133 9 3 16.333 5.6 22 2.6 5.667 6 9.833 10.2 12.5 4.2 2.667 9.433 4 15.7 4v2.4H418.4v-2.4c6.267 0 11.467-1.333 15.6-4 4.133-2.667 7.4-6.833 9.8-12.5 2.4-5.667 4.067-13 5-22 .933-9 1.333-19.767 1.2-32.3 0-1.867-.033-4.667-.1-8.4-.067-3.733-.1-7.967-.1-12.7v-14.9c0-5.2-.067-10.2-.2-15-.133-7.467.8-14.9 2.8-22.3 2-7.4 5-14.267 9-20.6 4-6.333 9.1-11.967 15.3-16.9 6.2-4.933 13.433-8.733 21.7-11.4-17.467-3.067-31.4-7.567-41.8-13.5-10.4-5.933-17.667-12.533-21.8-19.8-4.133-7.267-5.333-14.7-3.6-22.3 1.733-7.6 5.933-14.533 12.6-20.8 6.667-6.267 15.633-11.4 26.9-15.4s24.367-6 39.3-6c7.867 0 14.867.4 21 1.2 6.133.8 11.733 1.9 16.8 3.3s9.767 3.1 14.1 5.1c4.333 2 8.5 4.2 12.5 6.6l.2 47h-1c-.267 0-.6-.067-1-.2-2.4-7.067-6.333-14.133-11.8-21.2a105.668 105.668 0 0 0-18.9-18.9c-7.133-5.533-14.733-9.967-22.8-13.3s-15.833-4.8-23.3-4.4ZM626 106.4c-4.133 0-8.033-.767-11.7-2.3s-6.833-3.667-9.5-6.4c-2.667-2.733-4.8-5.9-6.4-9.5-1.6-3.6-2.4-7.467-2.4-11.6s.8-8 2.4-11.6c1.6-3.6 3.733-6.767 6.4-9.5 2.667-2.733 5.833-4.867 9.5-6.4 3.667-1.533 7.567-2.3 11.7-2.3 4.133 0 8 .767 11.6 2.3a29.84 29.84 0 0 1 9.5 6.4 29.84 29.84 0 0 1 6.4 9.5c1.533 3.6 2.3 7.467 2.3 11.6s-.767 8-2.3 11.6a29.84 29.84 0 0 1-6.4 9.5 29.84 29.84 0 0 1-9.5 6.4c-3.6 1.533-7.467 2.3-11.6 2.3Zm24.4 145.2a452.611 452.611 0 0 0 .5 13.9c.2 4.067.6 8.667 1.2 13.8.6 5.133 1.4 10.367 2.4 15.7 1 5.333 2.3 10.567 3.9 15.7 1.6 5.133 3.533 9.7 5.8 13.7s4.933 7.2 8 9.6c3.067 2.4 6.667 3.6 10.8 3.6v2.4H581.4v-2.4c6.133 0 11.267-2.2 15.4-6.6 4.133-4.4 7.467-10.433 10-18.1 2.533-7.667 4.333-16.767 5.4-27.3 1.067-10.533 1.6-21.867 1.6-34v-54.8c0-11.867-.633-21.867-1.9-30s-3.233-14.7-5.9-19.7c-2.667-5-6.033-8.6-10.1-10.8-4.067-2.2-8.9-3.3-14.5-3.3v-2.2c14.133 0 26.967-1.167 38.5-3.5 11.533-2.333 21.633-5.433 30.3-9.3v19.4c0 5.6.033 10.533.1 14.8.067 4.267.1 8.1.1 11.5v87.9ZM880 261c0 11.867.633 21.867 1.9 30s3.267 14.7 6 19.7 6.133 8.6 10.2 10.8c4.067 2.2 8.9 3.3 14.5 3.3v2.4c-14.267 0-27.133 1.167-38.6 3.5-11.467 2.333-21.533 5.433-30.2 9.3v-27.6c-8.8 8.533-18.667 15.333-29.6 20.4-10.933 5.067-22.867 7.467-35.8 7.2-10.4-.267-19.467-1.867-27.2-4.8-7.733-2.933-14.367-6.933-19.9-12-5.533-5.067-10.1-11.033-13.7-17.9-3.6-6.867-6.433-14.333-8.5-22.4-2.067-8.067-3.5-16.6-4.3-25.6-.8-9-1.2-18.167-1.2-27.5V197c0-11.867-.267-21.9-.8-30.1-.533-8.2-1.633-14.8-3.3-19.8-1.667-5-4.167-8.6-7.5-10.8-3.333-2.2-7.8-3.3-13.4-3.3v-2.2c7.067 0 13.467-.3 19.2-.9 5.733-.6 11-1.467 15.8-2.6 4.8-1.133 9.367-2.5 13.7-4.1 4.333-1.6 8.633-3.333 12.9-5.2 0 7.333-.033 13.8-.1 19.4-.067 5.6-.133 10.567-.2 14.9s-.133 8.2-.2 11.6c-.067 3.4-.1 6.633-.1 9.7v62c0 7.067.233 14.367.7 21.9a235.85 235.85 0 0 0 2.4 22.1c1.133 7.2 2.767 14.067 4.9 20.6 2.133 6.533 4.9 12.267 8.3 17.2 3.4 4.933 7.5 8.9 12.3 11.9 4.8 3 10.533 4.567 17.2 4.7 5.733.133 11.3-1 16.7-3.4 5.4-2.4 10.6-5.7 15.6-9.9s9.667-9.1 14-14.7 8.3-11.467 11.9-17.6V184.2c0-9.2-.767-17.033-2.3-23.5-1.533-6.467-3.7-11.767-6.5-15.9-2.8-4.133-6.233-7.133-10.3-9-4.067-1.867-8.633-2.8-13.7-2.8v-2.2c14.267 0 27.133-1.167 38.6-3.5 11.467-2.333 21.533-5.433 30.2-9.3 0 10.933.033 21.867.1 32.8.067 10.933.1 21.933.1 33 0 12.933.033 25.8.1 38.6s.1 25.667.1 38.6ZM1269 248.4c0 12.533.5 24.233 1.5 35.1s2.767 20.3 5.3 28.3 5.867 14.3 10 18.9c4.133 4.6 9.4 6.9 15.8 6.9v2.4H1200v-2.4c6.267 0 11.5-2.3 15.7-6.9 4.2-4.6 7.533-10.9 10-18.9 2.467-8 4.2-17.433 5.2-28.3s1.5-22.567 1.5-35.1c0-6.667-.067-14.333-.2-23s-.6-17.6-1.4-26.8c-.8-9.2-2.167-18.267-4.1-27.2-1.933-8.933-4.667-16.9-8.2-23.9-3.533-7-8.1-12.667-13.7-17s-12.533-6.5-20.8-6.5c-5.733 0-11.367 1.333-16.9 4-5.533 2.667-10.767 6.233-15.7 10.7s-9.533 9.667-13.8 15.6a171.869 171.869 0 0 0-11.6 18.5c3.333 11.467 5.5 23.7 6.5 36.7 1 13 1.5 25.967 1.5 38.9 0 12.533.5 24.233 1.5 35.1s2.767 20.3 5.3 28.3 5.867 14.3 10 18.9c4.133 4.6 9.4 6.9 15.8 6.9v2.4h-101.8v-2.4c6.4 0 11.667-2.3 15.8-6.9 4.133-4.6 7.467-10.9 10-18.9 2.533-8 4.3-17.433 5.3-28.3s1.5-22.567 1.5-35.1c0-6.667-.067-14.333-.2-23s-.6-17.6-1.4-26.8c-.8-9.2-2.167-18.267-4.1-27.2-1.933-8.933-4.667-16.9-8.2-23.9-3.533-7-8.1-12.667-13.7-17s-12.533-6.5-20.8-6.5c-3.467 0-7.267.8-11.4 2.4-4.133 1.6-8.267 3.733-12.4 6.4-4.133 2.667-8.167 5.733-12.1 9.2-3.933 3.467-7.4 7-10.4 10.6-3 3.6-5.4 7.233-7.2 10.9-1.8 3.667-2.7 6.967-2.7 9.9v78.2a452.611 452.611 0 0 0 .5 13.9c.2 4.067.6 8.667 1.2 13.8.6 5.133 1.4 10.367 2.4 15.7 1 5.333 2.267 10.567 3.8 15.7 1.533 5.133 3.433 9.7 5.7 13.7 2.267 4 4.967 7.2 8.1 9.6 3.133 2.4 6.7 3.6 10.7 3.6v2.4H923.6v-2.4c6.267 0 11.467-2.2 15.6-6.6 4.133-4.4 7.433-10.433 9.9-18.1 2.467-7.667 4.233-16.767 5.3-27.3 1.067-10.533 1.667-21.867 1.8-34v-54.8c0-11.867-.633-21.867-1.9-30s-3.267-14.7-6-19.7-6.133-8.6-10.2-10.8c-4.067-2.2-8.9-3.3-14.5-3.3v-2.2c14.267 0 27.167-1.167 38.7-3.5 11.533-2.333 21.567-5.433 30.1-9.3 0 5.6.033 10.667.1 15.2.067 4.533.1 8.733.1 12.6 8.4-8.4 17.933-15.167 28.6-20.3 10.667-5.133 22.267-7.633 34.8-7.5 8.267 0 15.667.9 22.2 2.7 6.533 1.8 12.367 4.333 17.5 7.6 5.133 3.267 9.633 7.167 13.5 11.7 3.867 4.533 7.2 9.6 10 15.2 4.4-5.467 9.233-10.5 14.5-15.1a92.295 92.295 0 0 1 17-11.8 88.633 88.633 0 0 1 19.2-7.6c6.733-1.8 13.767-2.7 21.1-2.7 11.733 0 21.833 1.8 30.3 5.4 8.467 3.6 15.567 8.5 21.3 14.7 5.733 6.2 10.333 13.533 13.8 22 3.467 8.467 6.133 17.533 8 27.2 1.867 9.667 3.1 19.7 3.7 30.1.6 10.4.9 20.733.9 31ZM1499.8 284.8c-5.733 9.467-12.2 17.667-19.4 24.6-7.2 6.933-14.8 12.633-22.8 17.1-8 4.467-16.267 7.8-24.8 10-8.533 2.2-17.067 3.3-25.6 3.3-12.667 0-25.2-2.533-37.6-7.6-12.4-5.067-23.467-12.433-33.2-22.1-9.733-9.667-17.6-21.533-23.6-35.6s-9-30.1-9-48.1c0-13.2 1.467-25.033 4.4-35.5 2.933-10.467 6.9-19.7 11.9-27.7s10.833-14.867 17.5-20.6c6.667-5.733 13.8-10.433 21.4-14.1 7.6-3.667 15.4-6.333 23.4-8 8-1.667 15.867-2.5 23.6-2.5 10.4 0 20.467 1.3 30.2 3.9 9.733 2.6 18.267 6.033 25.6 10.3 7.333 4.267 13.1 9.133 17.3 14.6 4.2 5.467 6.033 11 5.5 16.6-.267 3.6-1.667 6.5-4.2 8.7-2.533 2.2-5.533 3.9-9 5.1-3.467 1.2-7.067 2-10.8 2.4-3.733.4-7 .6-9.8.6-6.933-.133-14.4-.533-22.4-1.2-8-.667-16-1-24-1s-15.7.6-23.1 1.8c-7.4 1.2-13.933 3.6-19.6 7.2-5.667 3.6-10.2 8.7-13.6 15.3-3.4 6.6-5.033 15.3-4.9 26.1.133 18.8 2.733 35.333 7.8 49.6 5.067 14.267 11.633 25.867 19.7 34.8 8.067 8.933 17.233 15 27.5 18.2 10.267 3.2 20.7 3.233 31.3.1 10.6-3.133 20.9-9.633 30.9-19.5s18.867-23.467 26.6-40.8l12.8 14Zm-150.2-107.2c-.667 2.4-.8 4.033-.4 4.9s1.1 1.3 2.1 1.3 2.2-.367 3.6-1.1a37.447 37.447 0 0 0 4.1-2.5c6.533-4.4 13.733-7.267 21.6-8.6a124.913 124.913 0 0 1 24-1.7c8.133.2 16.133.733 24 1.6 7.867.867 15.067 1.367 21.6 1.5 5.467 0 9.4-.7 11.8-2.1 2.4-1.4 3.6-3.3 3.6-5.7.133-3.2-1.3-7.1-4.3-11.7s-7.067-9.067-12.2-13.4c-5.133-4.333-11.133-8.033-18-11.1-6.867-3.067-14.233-4.6-22.1-4.6-5.333 0-10.9.867-16.7 2.6-5.8 1.733-11.4 4.667-16.8 8.8-5.4 4.133-10.367 9.633-14.9 16.5-4.533 6.867-8.2 15.3-11 25.3Z"/></g><circle cx="1695.5" cy="238" r="30"/></g></svg>