<svg xmlns="http://www.w3.org/2000/svg" width="100" height="86"><path fill="#FFF" fill-rule="nonzero" d="M79.713 0v.503c-5.365 0-7.88 4.02-7.88 12.398v38.034c0 26.473 1.844 32.84 9.557 32.84 4.62 0 6.25-4.168 7.714-8.17l.225-.613c1.27-3.464 2.525-6.631 5.641-6.631 3.186 0 5.03 1.843 5.03 5.026 0 6.87-7.377 12.064-17.437 12.064-15.089 0-20.957-9.718-20.957-34.516V12.901c0-6.884-1.812-10.827-5.435-12.013-1.02.283-1.934.883-2.744 1.797-1.175 1.329-2.157 3.128-2.947 5.4-.79 2.271-1.368 4.937-1.734 7.998-.366 3.06-.549 6.304-.549 9.73V58.27c0 3.619.145 6.997.434 10.135.289 3.137.8 5.861 1.531 8.171.732 2.31 1.705 4.13 2.919 5.457 1.213 1.329 2.726 1.993 4.536 1.993v.635H28.26v-.635c3.313 0 5.702-1.675 7.166-5.024 1.464-3.35 2.196-8.2 2.196-14.553 0-2.387-.54-4.553-1.618-6.497-1.08-1.944-2.495-3.773-4.248-5.486-1.753-1.713-3.756-3.35-6.01-4.909a289.176 289.176 0 0 0-6.935-4.649 207.795 207.795 0 0 1-6.935-4.706c-2.254-1.598-4.257-3.32-6.01-5.169-1.753-1.848-3.17-3.84-4.248-5.977C.54 24.92 0 22.541 0 19.923c0-2.656.626-5.187 1.878-7.594C3.13 9.923 4.893 7.806 7.166 5.977c2.273-1.829 5.028-3.282 8.264-4.36C18.666.539 22.25 0 26.18 0h53.533ZM25.486 1.328c-1.85 0-3.699.5-5.548 1.502-1.85 1-3.506 2.367-4.97 4.1-1.464 1.732-2.659 3.763-3.583 6.092-.925 2.33-1.387 4.822-1.387 7.479 0 3.003.28 5.602.838 7.796.558 2.194 1.329 4.1 2.311 5.717.983 1.617 2.12 3.013 3.41 4.187a34.31 34.31 0 0 0 4.161 3.234c1.483.982 3.005 1.944 4.565 2.887a54.3 54.3 0 0 1 4.566 3.09 34.055 34.055 0 0 1 4.247 3.811c1.349 1.425 2.543 3.138 3.584 5.14v-30.55c0-4.504-.347-8.315-1.04-11.434-.694-3.118-1.6-5.64-2.717-7.565-1.117-1.925-2.417-3.32-3.9-4.186-1.484-.867-2.996-1.3-4.537-1.3Z"/></svg>