<svg xmlns="http://www.w3.org/2000/svg" width="38" height="40">
  <path fill="#FFF" fill-rule="nonzero"
    d="M19 0c4.576 0 8.333 1.372 8.495 3.366l.003.097.043.342c.461 3.516 1.888 6.29 4.295 8.34a2.5 2.5 0 0 1 1.2.903c1.092.736 2.346 1.354 3.762 1.854l.36.124.342.114v.36C37.5 27.955 29.904 40 19 40 8.205 40 .652 28.194.502 15.874L.5 15.118l.368-.1c1.42-.388 2.682-.848 3.788-1.384a2.497 2.497 0 0 1 2.596-1.621c2.504-2.023 3.585-4.736 3.281-8.158l-.006-.06A1.655 1.655 0 0 1 10.5 3.5C10.5 1.433 14.322 0 19 0Zm14.5 14.51a2.497 2.497 0 0 1-2.06 2.451 2.5 2.5 0 0 1-1.983 2.997 2.5 2.5 0 0 1-2.997 1.983 2.497 2.497 0 0 1-3.348 1.897c-.348.55-.907.955-1.563 1.102.555 1.124.951 2.315.951 3.06 0 1.68-1.585 3-3.5 3s-3.5-1.32-3.5-3c0-.745.396-1.936.952-3.062a2.5 2.5 0 0 1-1.565-1.102 2.5 2.5 0 0 1-3.348-1.896 2.5 2.5 0 0 1-2.997-1.982 2.5 2.5 0 0 1-1.984-2.998 2.5 2.5 0 0 1-2.04-2.163 22.72 22.72 0 0 1-2.632.968l-.384.113.007.354c.286 11.584 7.32 22.537 17.179 22.764L19 39c10.021 0 17.202-11.063 17.491-22.768l.006-.376-.023-.008A18.661 18.661 0 0 1 33.5 14.51ZM19 23c-.16 0-.431.3-.737.76l-.093.143-.21.342-.052.092-.053.093-.212.389-.208.408-.1.21-.098.21-.185.42-.166.413c-.233.608-.386 1.161-.386 1.52 0 1.082 1.101 2 2.5 2s2.5-.918 2.5-2c0-.314-.117-.777-.302-1.295l-.084-.225-.166-.413-.185-.42-.097-.21-.101-.21-.208-.408-.212-.39-.053-.092-.053-.092-.209-.342c-.343-.54-.654-.903-.83-.903Zm2-2a1.5 1.5 0 0 0-1.469 1.194c.484.317 1.022.997 1.506 1.804L21 24a1.5 1.5 0 0 0 0-3Zm-4 0a1.5 1.5 0 0 0-.037 3c.484-.809 1.022-1.49 1.504-1.807A1.498 1.498 0 0 0 17 21Zm-3-1a1.5 1.5 0 1 0 .534 2.902 2.493 2.493 0 0 1 .733-2.204A1.496 1.496 0 0 0 14 20Zm10 0c-.533 0-1.001.278-1.267.697a2.493 2.493 0 0 1 .735 2.204A1.5 1.5 0 1 0 24 20Zm2.724-14.982-.073.064C25.271 6.262 22.356 7 19 7c-3.18 0-5.964-.662-7.421-1.736-.07 2.88-1.154 5.261-3.234 7.13a2.493 2.493 0 0 1 1.096 2.646c1.021.18 1.829.983 2.017 2.002a2.501 2.501 0 0 1 2.003 2.017 2.498 2.498 0 0 1 2.652 1.104 2.496 2.496 0 0 1 2.888.838A2.49 2.49 0 0 1 21 20c.313 0 .612.058.889.163a2.494 2.494 0 0 1 2.65-1.105 2.5 2.5 0 0 1 2.003-2.016 2.501 2.501 0 0 1 2.018-2.003 2.501 2.501 0 0 1 1.76-2.945c-1.844-1.874-3.045-4.236-3.596-7.076ZM27 18a1.5 1.5 0 0 0-1.5 1.5c.45.338.782.824.924 1.385A1.5 1.5 0 1 0 27 18Zm-16 0a1.5 1.5 0 1 0 .577 2.885c.13-.52.425-.975.825-1.308l.098-.077A1.5 1.5 0 0 0 11 18Zm-2-2a1.5 1.5 0 0 0-.435 2.936 2.502 2.502 0 0 1 1.87-1.872A1.5 1.5 0 0 0 9 16Zm20 0a1.5 1.5 0 0 0-1.436 1.065 2.502 2.502 0 0 1 1.872 1.87A1.5 1.5 0 0 0 29 16ZM7 13a1.5 1.5 0 0 0 0 3l.077-.098a2.5 2.5 0 0 1 1.308-.826A1.5 1.5 0 0 0 7 13Zm24 0a1.5 1.5 0 0 0-1.385 2.077A2.5 2.5 0 0 1 31 16a1.5 1.5 0 0 0 0-3ZM19 1c-4.158 0-7.5 1.253-7.5 2.5l.001-.011.015.163c.25 1.165 3.336 2.29 7.188 2.346L19 6c4.158 0 7.5-1.253 7.5-2.5S23.158 1 19 1Z" />
  </svg>