<svg xmlns="http://www.w3.org/2000/svg" xmlns:xlink="http://www.w3.org/1999/xlink" width="400" height="400">
    <defs>
        <path id="a" d="M0 0h400v400H0z" />
        <path id="c"
            d="m536.323 107.894.54.467.436.383.528.472.376.34.6.548.313.288.637.594.652.614.331.314.673.645c.566.546 1.146 1.113 1.739 1.7l.717.716.73.736.741.756a205.708 205.708 0 0 1 19.823 23.636c16.373 22.817 26.847 47.336 28.587 72.745 2.192 32.017-9.73 63.307-38.507 93.073l-.877.902c-11.005 11.237-16.6 22.742-17.531 34.93-.758 9.918 1.53 20.206 6.65 31.792l.395.883c.133.294.268.59.405.887l.416.893c.416.885.83 1.748 1.25 2.601l.475.959.45.893.457.893.466.895.477.9.489.91.25.459.641 1.163.533.95.412.727.712 1.24.444.764.614 1.044.639 1.078.838 1.398.704 1.163 1.308 2.141 1.415 2.29 1.76 2.824 1.427 2.275 2.602 4.125 2.596 4.113 2.067 3.298 1.314 2.115 1.384 2.25.965 1.587.762 1.267.73 1.224.561.953.68 1.164.656 1.142.374.657.243.429c.282.5.56.997.835 1.494l.236.427c.47.853.933 1.709 1.4 2.582 4.778 8.95 8.11 16.948 10.086 24.669 4.684 18.293 1.605 34.88-10.979 51.2-15.967 20.705-42.288 28.857-80.214 27.242l-.58-.025-1.164-.055-.585-.03-1.175-.064-1.182-.07-1.19-.076-1.198-.082-1.206-.088-1.213-.094-.61-.05-1.226-.102-1.234-.108-1.242-.115-1.25-.12-1.26-.127-.633-.065-1.273-.135-1.282-.142-1.291-.147-1.3-.153-1.31-.159-1.32-.165-1.329-.17-1.339-.177-1.349-.183-1.359-.188-1.369-.195-1.38-.2-1.39-.206-1.4-.212-.704-.109-1.417-.22-.713-.113-2.154-.347-1.45-.239-1.462-.245c-.245-.04-.49-.082-.735-.124l-2.223-.383-1.497-.262-1.509-.268-.758-.136-1.527-.278-1.539-.282-1.551-.29-1.742-.328-1.89-.36-1.858-.356-1.836-.357-1.824-.358-2.37-.472-2.579-.522-3.784-.782-3.165-.667-2.906-.62-3.065-.664-3.734-.816-5.078-1.124-8.031-1.795-7.897-1.78-20-4.523-8.25-1.843-3.28-.725-4.004-.877-3.128-.679-2.304-.495-2.27-.485-3.707-.783-1.458-.305-2.161-.448-2.131-.439-2.102-.427-2.073-.418-1.368-.273-1.355-.269-2.012-.394-2.645-.512-1.957-.372-1.934-.364-1.914-.354-1.894-.345-1.251-.226-1.863-.33-1.232-.217-1.225-.212-1.218-.209-1.814-.306-1.8-.298-1.788-.29-1.185-.19-1.769-.277-1.758-.27-1.75-.263-1.74-.255-1.735-.25-1.153-.162-1.617-.222-1.608-.216-1.597-.209-1.587-.202-1.577-.194a423.2 423.2 0 0 0-.785-.095l-1.562-.183c-.78-.09-1.554-.178-2.326-.263l-1.538-.166-1.528-.158-1.519-.152-1.51-.144-1.5-.137-1.49-.13-.742-.061-1.477-.12-.735-.056-1.463-.107-1.453-.1a310.36 310.36 0 0 0-.724-.048l-1.44-.09-1.432-.081-1.423-.074c-10.4-.519-20.094-.436-29.2.28-27.038 2.132-51.355 10.004-73.089 22.817-18.556 10.94-34.8 25.22-48.867 42.039-11.975 14.316-21.72 29.656-29.406 44.996a221.879 221.879 0 0 0-3.702 7.75l-.474 1.054-.462 1.04-.448 1.027-.434 1.012c-.143.334-.284.667-.422.996l-.408.982-.2.485-.33.814-.26.65-.367.932-.34.882-.314.831-.32.871-.293.824-.103.298-.224-.075.13-.377.208-.586.282-.771.305-.815.218-.573.23-.594.243-.618.254-.639.267-.661c.194-.48.394-.966.598-1.457l.415-.991c.282-.665.572-1.34.87-2.026l.456-1.034.233-.523.475-1.056c.24-.531.487-1.067.738-1.609l.509-1.09.522-1.102.536-1.115c.453-.934.92-1.882 1.4-2.842 7.695-15.355 17.45-30.71 29.437-45.042 14.083-16.838 30.347-31.136 48.928-42.09 21.764-12.831 46.116-20.715 73.19-22.85 7.666-.603 15.746-.757 24.313-.482l1.393.048c.466.017.934.036 1.403.056l1.41.063c.472.022.945.046 1.42.07l1.428.079 1.437.085 1.446.093c1.209.08 2.427.17 3.655.265l1.478.119 1.487.126c.746.065 1.495.132 2.248.203l1.51.144 1.52.151.764.079 1.534.162 1.544.17 1.554.177 1.564.184c.522.062 1.047.126 1.573.19l1.583.199 1.593.205 1.604.213c.536.071 1.074.145 1.613.219l1.964.275 1.735.249 1.16.17 1.165.172 1.752.266 1.763.272 1.772.28 1.188.192 1.793.292 1.805.301 1.212.205 1.218.209 1.225.212 1.233.216 1.24.22 1.248.223 1.888.343 1.907.352 1.283.239 1.292.243 2.615.5 1.988.384 1.34.262 2.029.402 2.056.41 2.083.422 2.822.578 2.152.445 2.182.455 2.96.625 3.018.643 3.861.833 3.162.689 3.229.71 3.502.775 6.241 1.395 12.017 2.715 8.57 1.94 9.489 2.137 6.497 1.451 4.785 1.06 5.308 1.16 3.984.857 3.33.705 3.183.662 3.083.629 3.032.606 2.524.496 2.592.502 1.759.335 2.572.486 1.55.289 1.539.283 2.284.413 1.508.268.75.132 1.49.26 1.478.253 1.466.247 1.456.242 1.444.235c.24.04.478.078.717.116l1.427.227 1.417.22 1.405.216 1.394.209 1.385.203 1.373.197 1.363.191.678.094 1.348.182 1.338.177 1.329.17 1.318.165.656.08 1.304.156 1.295.15 1.285.145 1.277.138 1.268.132 1.258.126 1.25.12.622.059 1.238.111 1.228.106 1.221.1 1.213.093 1.204.088 1.197.082 1.19.076 1.181.07 1.174.064 1.167.058c.388.018.775.036 1.16.052 37.857 1.612 64.106-6.518 80.017-27.151 12.538-16.26 15.604-32.773 10.937-50.997-1.931-7.543-5.16-15.356-9.776-24.07l-.29-.546-.233-.435-.349-.647-.349-.644-.233-.427-.702-1.27-.59-1.055-.604-1.062-.369-.644-.502-.868-.516-.883-.666-1.128-.693-1.162-.872-1.446-1.404-2.298-1.183-1.914-1.461-2.346-2.444-3.888-3.465-5.486-1.672-2.66-1.298-2.076-1.684-2.712-1.33-2.161-.83-1.366-.598-.987-.762-1.273-.549-.923-.53-.899-.677-1.164-.65-1.129-.468-.827-.456-.811-.442-.799-.43-.787-.421-.778-.41-.772-.403-.765-.264-.51-.391-.76-.258-.509-.382-.763-.38-.766-.501-1.03-.375-.783-.375-.792c-5.986-12.717-8.707-23.855-7.888-34.574.926-12.123 6.444-23.57 17.268-34.738l.33-.338c29.366-29.99 41.527-61.522 39.317-93.794-1.737-25.36-12.193-49.839-28.543-72.623a205.473 205.473 0 0 0-19.8-23.61l-.74-.754-.366-.37-.723-.724-.71-.705-.351-.345-.691-.674-.679-.654-.664-.634-.328-.309-.643-.602-.63-.582-.598-.547-.375-.34-.527-.47-.632-.555-.34-.29.153-.182Zm-41.449-10.78.425.354.377.321.556.48.4.351.642.57.644.58.66.6.674.622.343.32.697.654.71.676.725.697c.366.354.736.716 1.111 1.086l.757.75a194.312 194.312 0 0 1 19.178 22.247c15.738 21.348 25.846 44.314 27.626 68.156 2.264 30.325-9.194 60.03-37.06 88.365-15.491 15.777-19.58 32.086-14.633 50.786 1.536 5.803 3.924 11.831 7.232 18.48l.503 1.003.518 1.011c.349.678.708 1.363 1.076 2.054l.525.982.455.842.34.625.627 1.138.64 1.145.66 1.162.587 1.021.718 1.234 1.104 1.869 1.09 1.82 1.34 2.218 1.663 2.723 3.029 4.926 2.598 4.218 1.413 2.308 1.48 2.435.858 1.424.97 1.623.764 1.288.868 1.481.955 1.654.651 1.143.629 1.12.731 1.322.458.839c.34.628.676 1.255 1.011 1.887l.557 1.06.112.215c4.426 8.495 7.514 16.083 9.347 23.398 4.343 17.33 1.498 32.985-10.144 48.3-14.783 19.376-39.145 26.993-74.298 25.47l-1.145-.053-1.152-.059-.58-.032-1.164-.068-1.172-.075-.59-.04-1.183-.083-1.193-.09-1.201-.097-1.21-.103-1.218-.11-.613-.056-1.232-.119-1.24-.125-1.251-.13-1.26-.138-.634-.071-1.274-.147-1.284-.153-.646-.08-1.3-.162-1.309-.169-1.32-.175-1.33-.18-1.34-.189-1.353-.193a410.61 410.61 0 0 1-.68-.1l-1.368-.203-.689-.104-1.385-.213a450.74 450.74 0 0 1-.697-.108l-1.403-.223-1.414-.228-1.426-.235-1.438-.24-1.45-.248-1.464-.253-.736-.13-1.481-.262-1.494-.269-1.507-.275-1.52-.282-1.533-.288-3.409-.65-2.56-.498-2.518-.497-2.092-.42-2.961-.605-2.606-.543-3.17-.672-2.379-.511-3.013-.656-2.668-.587-5.228-1.162-4.51-1.013-11.255-2.548-18.917-4.304-8.417-1.888-3.654-.808-2.218-.487-3.626-.788-1.427-.308-2.114-.453-2.086-.443-2.736-.575-2.689-.559-2.642-.541-1.952-.395-2.565-.513-1.268-.25-2.505-.489-1.854-.356-1.224-.233-1.82-.342-2.399-.443-1.777-.322-1.176-.21-1.75-.31-1.734-.3-1.148-.196-1.71-.288-1.133-.188-1.688-.275-2.233-.355-2.214-.343-1.65-.248-1.64-.242-1.633-.235-1.084-.152-1.082-.15c-.835-.115-1.666-.226-2.492-.335l-1.648-.213c-.274-.035-.547-.07-.82-.103l-1.63-.201c-7.857-.952-15.33-1.618-22.46-1.988l-1.47-.072c-9.038-.42-17.523-.354-25.546.222-25.127 1.799-47.755 8.98-68.007 20.792-17.277 10.077-32.421 23.28-45.555 38.857-11.084 13.147-20.13 27.234-27.289 41.32a205.656 205.656 0 0 0-3.45 7.117l-.476 1.042-.462 1.028-.447 1.012-.219.5-.426.989-.412.972-.201.48-.333.805-.26.64-.248.618-.235.593-.328.845-.3.79-.275.747-.19.536-.023.064-.224-.077.122-.346.25-.69.216-.575.203-.534.216-.558.229-.582.242-.607.254-.63.268-.653a182.1 182.1 0 0 1 4.1-9.18l.528-1.093c.535-1.1 1.091-2.22 1.67-3.36 7.167-14.101 16.223-28.203 27.32-41.365 13.15-15.597 28.314-28.818 45.616-38.91 20.282-11.83 42.945-19.022 68.109-20.823 11.07-.794 23.02-.619 36.08.46l1.542.132 1.552.14 1.562.147c2.613.253 5.27.541 7.972.863l1.626.197c1.633.2 3.281.414 4.947.64l1.375.187 1.084.152 1.63.232 1.092.159 1.644.244 1.653.25 1.663.259 2.234.356 2.255.368 1.706.286 1.72.293 1.735.3 2.337.414 1.18.213 1.784.325 1.802.334 1.821.342 1.84.35 1.862.36 1.883.368 1.906.377 1.283.256 2.598.525 1.316.269 3.339.69 2.04.427 2.761.584 2.106.45 3.575.771 2.923.638 4.835 1.068 6.664 1.49 7.321 1.659 16.839 3.833 8.348 1.888 5.213 1.169 5.574 1.236 3.78.825 2.751.593 2.985.634 2.858.596 2.434.498 2.404.484 1.18.235 2.244.441 1.516.295 1.542.296 2.345.447 1.532.288 1.52.281.754.138 1.5.273 1.487.265 1.474.26 1.462.253 1.45.247 1.437.241.714.118 1.42.231 1.407.226 1.396.218 1.385.213 1.373.206 1.362.2.677.098 1.345.19.67.094 1.329.18.66.09 1.314.17 1.304.166 1.293.16 1.283.153 1.274.147 1.263.14 1.255.134.623.065 1.24.125.617.06 1.226.115.61.055 1.214.106 1.204.1 1.196.093 1.187.088 1.18.08 1.17.075 1.164.068 1.156.062 1.147.056.572.025c35.083 1.52 59.372-6.073 74.1-25.376 11.597-15.257 14.428-30.838 10.101-48.1-1.828-7.295-4.908-14.866-9.327-23.346a220.42 220.42 0 0 0-.891-1.694l-.561-1.047-.683-1.256-.465-.842-.715-1.279-.49-.867-.506-.884-.654-1.132-.683-1.169-.425-.721-.887-1.495-1.27-2.117-1.205-1.988-1.693-2.771-5.877-9.55-1.862-3.053-1.105-1.826-1.13-1.887-.81-1.368-.865-1.478-.412-.712-.792-1.385-.298-.528-.694-1.244-.489-.887-.486-.893-.293-.543-.591-1.104c-4.424-8.312-7.5-15.615-9.348-22.599-4.92-18.591-.94-34.846 14.229-50.536l.463-.475c27.82-28.288 39.252-57.927 36.993-88.182-1.776-23.792-11.866-46.719-27.58-68.034a194.077 194.077 0 0 0-19.155-22.22l-.755-.749-.374-.366-.736-.718-.364-.35-.716-.686a162.97 162.97 0 0 0-.354-.335l-.695-.653-.681-.633-.666-.61-.328-.298-.642-.578-.433-.385-.607-.533-.555-.48-.277-.236-.52-.436.15-.183Zm-41.478-10.782.506.41.442.366.554.467.604.517.213.183c.325.281.657.571.995.87l.684.609.348.312.709.643.724.665c.243.225.49.454.738.687l.754.71a182.936 182.936 0 0 1 19.686 21.952c15.099 19.874 24.837 41.286 26.657 63.562 2.29 28.03-8.199 55.576-33.94 81.98l-.785.799c-3.042 3.088-5.614 6.214-7.737 9.385-8.334 12.454-9.747 25.472-5.445 40.298 1.816 6.257 4.626 12.818 8.563 20.305l.467.885.489.918.172.32c.287.533.574 1.06.865 1.592l.353.64.738 1.322.69 1.218.843 1.47 1.039 1.785 1.154 1.964 1.761 2.968 3.026 5.06 1.646 2.75 1.87 3.143 1.186 2.01 1.096 1.873 1.017 1.758.816 1.428.647 1.143.497.89.482.871.585 1.069.455.842.556 1.043.438.831.541 1.04.645 1.26.107.212c4.074 8.044 6.916 15.225 8.603 22.136 3.998 16.375 1.38 31.107-9.338 45.43-13.605 18.055-36.017 25.137-68.414 23.702l-1.128-.053-1.136-.06c-.38-.021-.761-.043-1.144-.067l-1.152-.073-1.161-.08-1.17-.086-.588-.046-1.183-.097c-.396-.033-.793-.068-1.192-.103l-1.202-.11a256.9 256.9 0 0 1-.604-.058l-1.216-.12c-.407-.04-.815-.083-1.225-.126l-1.236-.134-1.246-.14c-.417-.047-.835-.096-1.256-.146l-1.266-.154c-.424-.052-.85-.105-1.277-.16l-1.288-.167-1.299-.173-1.31-.18-.66-.093-1.326-.19-1.34-.197-.673-.1-1.357-.208-.683-.106-1.374-.217-1.387-.223-1.4-.23-.705-.118-1.419-.24-.714-.123-1.438-.25-1.452-.257-1.465-.264-1.478-.27-1.492-.278-1.507-.283-2.339-.448-2.391-.465-2.705-.534-2.286-.46-1.908-.39-2.72-.565-2.004-.424-3.369-.725-3.17-.694-2.926-.649-4.834-1.084-6.785-1.539-12.867-2.944-11.71-2.684-5.155-1.17-5.337-1.197-2.57-.57-1.62-.357-2.703-.59-2.668-.578c-2.209-.474-4.382-.935-6.521-1.38l-2.551-.528c-37.6-7.724-64.6-10.823-89.141-9.272-23.202 1.464-44.13 7.955-62.892 18.77-15.99 9.216-30.03 21.346-42.225 35.686-10.191 11.983-18.536 24.822-25.164 37.661-.278.54-.551 1.074-.819 1.604l-.527 1.053-.513 1.04c-.506 1.033-.99 2.046-1.453 3.038l-.456.984-.442.969c-.217.48-.429.956-.635 1.425l-.407.931-.392.915-.316.751-.242.584-.23.562-.324.803-.2.508-.28.72-.186.491-.269.736-.223-.078.163-.45.23-.612.248-.647.195-.498.315-.788.342-.837.369-.885c.441-1.05.912-2.134 1.411-3.248l.435-.963.223-.488.456-.985.47-1 .486-1.014.5-1.028a195.18 195.18 0 0 1 1.861-3.701c6.636-12.854 14.99-25.709 25.194-37.706 12.212-14.36 26.272-26.508 42.287-35.739 18.793-10.831 39.756-17.333 62.995-18.8 24.29-1.535 50.975 1.479 87.936 9.017l2.536.521 2.568.535c2.154.452 4.343.918 6.567 1.399l2.686.584 2.976.654 4.525 1.007 7.004 1.58 9.25 2.117 11.651 2.672 8.673 1.977 6.817 1.536 4.358.968 3.25.711 3.03.653 2.246.475 3.1.643 1.828.373 1.142.23 1.444.287 2.198.433 2.261.44 1.535.294 1.513.287 1.498.28 1.485.274 1.47.267 1.458.26 1.444.253 1.43.247 1.419.24 1.405.234 1.392.227 1.38.22 1.368.213 1.356.207c.45.068.898.135 1.344.2l1.332.194 1.32.186 1.31.18.65.088 1.292.17c.43.055.856.11 1.282.163l1.27.157 1.26.15 1.25.143 1.24.137 1.23.13.61.062 1.216.12 1.205.113.599.054 1.191.104.592.049 1.178.093 1.168.086 1.16.08.577.038 1.147.07.57.032 1.136.06 1.127.053c32.327 1.432 54.665-5.627 68.214-23.608 10.673-14.264 13.28-28.923 9.298-45.232-1.683-6.892-4.519-14.056-8.585-22.085-.214-.424-.429-.844-.644-1.262l-.539-1.04-.55-1.047-.699-1.307-.357-.66-.737-1.342-.771-1.383-.537-.951-.845-1.48-.746-1.293-.95-1.632-1.196-2.033-1.107-1.869-2.036-3.412-3.846-6.427-1.47-2.476-1.297-2.2-1.151-1.979-1.038-1.808-.86-1.526-.632-1.137-.524-.957-.173-.318-.632-1.173-.491-.924-.352-.666c-3.943-7.5-6.76-14.075-8.58-20.349-4.32-14.89-2.9-27.98 5.476-40.495 2.038-3.046 4.489-6.049 7.369-9.016l.395-.404c26.266-26.598 36.966-54.352 34.658-82.593-1.815-22.226-11.536-43.598-26.61-63.439a182.702 182.702 0 0 0-20.038-22.28l-.745-.698c-.368-.343-.732-.678-1.09-1.004l-.707-.642-.347-.312-.684-.608a132.9 132.9 0 0 0-.335-.295l-.658-.573-.418-.36-.587-.5-.363-.304-.536-.444-.407-.329.147-.185ZM411.947 75.55l.396.309.52.414.534.434.384.316.405.336.316.264.645.546.66.566.677.588.691.609.351.312.713.64.362.328.734.671a171.725 171.725 0 0 1 18.637 20.129c14.463 18.401 23.836 38.26 25.695 58.973 2.362 26.302-7.636 52.24-32.406 77.2-12.702 12.847-16.59 26.404-13.419 41.96 1.34 6.569 3.912 13.476 7.788 21.374l.475.963.236.473.406.808.429.843.521 1.011.69 1.314.726 1.354.576 1.057.926 1.677 1.26 2.242.889 1.565 1.866 3.253 4.749 8.207 1.442 2.51 1.46 2.566 1.034 1.838.824 1.483.775 1.414.372.685.48.895.695 1.31.559 1.073.322.626.42.824.466.927.567 1.144.103.21c3.725 7.596 6.325 14.367 7.867 20.872 3.655 15.411 1.257 29.195-8.551 42.486-12.382 16.777-32.815 23.342-62.445 21.994-.362-.017-.726-.034-1.091-.053l-1.1-.06-.554-.033-1.112-.07-1.122-.077-1.13-.085c-.19-.014-.379-.03-.569-.045l-1.144-.094-.576-.05-1.158-.105-1.169-.112-.587-.06-1.184-.122c-.396-.042-.794-.085-1.193-.13l-1.204-.136-1.215-.143-1.225-.15-1.237-.158a289.78 289.78 0 0 1-.622-.081l-1.254-.168-.63-.086-1.272-.178-.64-.092-1.288-.189-1.3-.195-1.314-.203-.661-.104-1.332-.213-1.345-.22a399.65 399.65 0 0 1-.677-.113l-1.365-.23-1.378-.238-.694-.12-1.398-.249-.704-.126-1.42-.259-1.432-.265-1.448-.272-1.462-.28-1.477-.286-1.966-.385-2.513-.5-2.753-.558-2.53-.524-2.594-.55-3.038-.657-2.947-.65-4.361-.978-6.367-1.451-9.977-2.301-15.913-3.686-6.708-1.536-3.919-.885-4.707-1.048-2.044-.449-2.509-.546-2.276-.489a899.64 899.64 0 0 0-2.251-.478l-2.226-.466-1.103-.23-2.189-.449a712.412 712.412 0 0 0-7.47-1.482l-2.083-.398-1.033-.194-2.048-.38-1.016-.187-2.016-.363c-25.064-4.469-45.12-6.241-63.595-5.244-21.287 1.143-40.524 6.948-57.805 16.76-14.712 8.352-27.654 19.401-38.92 32.491-9.312 10.821-16.966 22.416-23.07 34.01-.278.53-.551 1.054-.818 1.573l-.526 1.031-.51 1.018c-.42.841-.822 1.668-1.209 2.479l-.456.965-.44.949c-.434.941-.844 1.858-1.232 2.749l-.318.736-.242.569-.229.547-.216.523-.203.5-.191.477-.209.532-.304.806-.222-.08.15-.406.214-.554.151-.385.292-.726.32-.778.349-.83.249-.582c.127-.294.256-.592.388-.892l.404-.91c.41-.917.845-1.86 1.302-2.826l.464-.975c.866-1.8 1.81-3.677 2.833-5.62 6.112-11.61 13.775-23.219 23.1-34.054 11.282-13.11 24.245-24.176 38.983-32.543 17.312-9.829 36.584-15.645 57.908-16.79 18.988-1.025 39.638.872 65.66 5.61l2.04.375c3.074.57 6.223 1.18 9.453 1.83l2.166.437 2.19.45 2.214.46 2.239.473 2.265.484 1.142.246 2.85.62 2.046.45 4.052.902 4.999 1.13 5.116 1.172 8.336 1.928 14.003 3.243 7.428 1.704 5.476 1.24 3.522.784 3.492.763 2.72.581 2.362.495 1.84.378 1.743.352 1.178.236 1.806.358 1.873.367 1.476.286 1.46.28 1.447.272 1.432.265 1.419.258.703.126 1.398.248 1.383.24 1.37.235 1.357.226.674.111 1.337.217 1.325.21 1.312.202 1.3.195.646.095 1.281.185 1.27.178c.421.058.84.116 1.258.171l1.247.165 1.236.157 1.224.15 1.214.143.602.07 1.198.132.595.064 1.182.123.588.058 1.167.112.58.054 1.152.101.573.048 1.139.091c.378.03.754.058 1.129.085l1.12.077 1.112.07c.37.023.737.044 1.103.064l1.095.056.544.026c29.558 1.345 49.918-5.196 62.244-21.898 9.765-13.233 12.151-26.945 8.511-42.291-1.538-6.486-4.131-13.241-7.85-20.823-.308-.63-.616-1.25-.927-1.867l-.312-.618-.43-.841-.447-.865-.691-1.314-.598-1.12-.752-1.388-.66-1.202-.696-1.252-.585-1.044-1.257-2.219-1.386-2.422-2.152-3.727-2.92-5.044-1.24-2.154-1.516-2.652-1.214-2.15-.878-1.574-.512-.93-.772-1.422-.548-1.025-.528-1-.352-.677-.304-.59-.472-.928-.514-1.024-.402-.81-.203-.413c-3.883-7.915-6.462-14.84-7.806-21.43-3.188-15.633.724-29.27 13.482-42.175 24.722-24.911 34.694-50.781 32.339-77.012-1.855-20.661-11.209-40.48-25.646-58.848a171.49 171.49 0 0 0-17.865-19.41l-.374-.348-.74-.68a157.7 157.7 0 0 0-.726-.66l-.712-.64-.35-.311-.69-.608-.676-.587-.66-.565-.643-.545-.52-.434-.393-.325-.55-.449-.5-.402-.583-.456.143-.188Zm-41.449-10.819.471.353.579.445.531.416.578.46.305.244.622.505.637.525c.322.267.65.541.983.823l.674.574c.227.194.457.392.688.593l.701.612.714.63.362.324a160.822 160.822 0 0 1 17.25 18.022c13.829 16.933 22.835 35.24 24.734 54.385 2.41 24.29-6.862 48.336-30.09 71.587-11.695 11.797-15.318 24.395-12.478 38.976 1.2 6.157 3.527 12.651 7.045 20.095l.367.771.414.863.31.638.468.951.316.635.406.804.427.836.443.857.464.885.587 1.107.846 1.575.93 1.712 1.032 1.879 1.3 2.347 1.293 2.325 2.237 4.01 1.616 2.913 1.131 2.057 1.315 2.419.54 1.005.766 1.443.721 1.378.684 1.329.439.866.428.856.42.85.407.835.202.42.202.42c.134.28.268.563.402.847 3.374 7.141 5.729 13.5 7.126 19.596 3.31 14.444 1.133 27.289-7.758 39.571-11.19 15.468-29.662 21.504-56.527 20.244l-1.051-.052-1.06-.06-1.068-.067-1.078-.075-1.086-.081a186.62 186.62 0 0 1-.547-.044l-1.1-.092-1.111-.1c-.558-.052-1.12-.106-1.685-.163l-1.136-.118c-.761-.08-1.529-.166-2.304-.257l-1.168-.14c-.587-.07-1.178-.145-1.774-.222l-1.197-.157-1.208-.165-.61-.085-1.226-.176-1.239-.183-1.251-.19-1.265-.197-1.277-.205-.644-.105-1.297-.216-1.311-.222-1.325-.23-1.339-.238-1.353-.244-.682-.125-1.375-.256-1.39-.263-.7-.134-1.412-.273-1.992-.393-2.692-.54-2.047-.416-2.312-.48-2.134-.452-2.468-.534-2.924-.648-3.248-.733-3.68-.842-6.345-1.47-21.844-5.107-4.406-1.02-3.67-.84-3.821-.865-3.27-.728-2.467-.542-2.096-.455-2.813-.601-1.875-.396-1.858-.386a691.72 691.72 0 0 0-.922-.19l-1.83-.374c-.608-.123-1.213-.244-1.815-.364l-1.796-.356-1.78-.347-1.764-.338-.876-.165-1.739-.325-1.723-.315-1.708-.307-1.692-.297c-.843-.147-1.68-.29-2.51-.43l-1.655-.275c-19.496-3.204-35.94-4.518-51.178-3.857-19.35.838-36.877 5.964-52.663 14.77-13.424 7.49-25.263 17.454-35.594 29.286-8.44 9.666-15.406 20.022-20.989 30.379a156.341 156.341 0 0 0-2.92 5.685l-.433.897c-.354.741-.693 1.466-1.016 2.173l-.38.84-.311.7-.242.553-.336.783-.207.492-.192.466-.22.546-.261.668-.222-.082.098-.256.228-.575.158-.39.295-.711.326-.767.235-.542.25-.566c.915-2.063 1.97-4.286 3.17-6.643l.487-.95.502-.963c.256-.485.517-.976.783-1.47 5.59-10.372 12.567-20.742 21.019-30.422 10.348-11.852 22.208-21.833 35.657-29.337 15.818-8.825 33.381-13.96 52.768-14.8 13.107-.568 27.1.322 43.154 2.617l1.586.23c1.062.157 2.133.32 3.213.488l1.627.257 1.641.267 1.656.275 1.67.284.842.146 1.693.298c.284.05.568.1.853.152l1.716.311 1.733.32 1.748.33c.585.11 1.174.223 1.765.338l1.78.347.898.176 1.806.36 1.823.37 1.841.378.927.192 1.868.392 1.644.348 2.461.528 2.837.618 4.016.89 3.059.69 4.056.925 4.391 1.014 5.312 1.238 14.237 3.333 7.719 1.795 3.24.747 3.684.839 3.253.729 2.632.577 1.562.337 2.125.45 2.714.561 1.541.313 3.255.65 1.427.282 1.411.273 1.397.266 1.38.26 1.367.25 1.352.245.671.12 1.33.233 1.318.227 1.303.219 1.29.211c.213.035.426.07.64.103l1.269.201 1.257.194 1.244.186.618.09 1.225.176c.407.058.811.114 1.214.169l1.201.16 1.19.154c.395.05.788.1 1.179.147l1.167.14 1.156.131.574.064 1.14.12 1.13.115c.562.055 1.12.107 1.675.157l1.105.096 1.095.089 1.085.081 1.076.075c.536.035 1.069.068 1.598.098l1.054.056.524.025c26.793 1.256 45.189-4.755 56.325-20.146 8.849-12.225 11.014-25 7.718-39.38-1.392-6.078-3.741-12.421-7.108-19.548l-.402-.846-.404-.839-.203-.417c-.237-.487-.477-.974-.721-1.464l-.53-1.056-.55-1.074-.688-1.328-.48-.914-.629-1.184-.528-.985-.696-1.286-.74-1.355-1.455-2.642-1.256-2.261-3.33-5.975-1.703-3.079-1.115-2.033-.784-1.446-.92-1.717-.656-1.247-.703-1.356-.664-1.308-.16-.318c-.264-.53-.524-1.056-.782-1.588l-.155-.319c-.285-.587-.57-1.182-.86-1.796-3.526-7.46-5.86-13.972-7.063-20.15-2.855-14.657.79-27.335 12.543-39.188 23.18-23.204 32.424-47.18 30.022-71.397-1.894-19.093-10.88-37.36-24.681-54.26a160.588 160.588 0 0 0-17.226-17.995l-.719-.64-.706-.62c-.35-.306-.695-.605-1.035-.896l-.673-.572-.658-.553-.644-.533-.628-.514-.612-.494-.577-.458-.53-.416-.665-.51-.379-.283.14-.191ZM329.05 53.949l.368.262.522.381.566.422.41.309.525.402.637.494c.538.42 1.093.862 1.665 1.324l.693.566c.117.095.234.192.352.29l.716.595.363.305.737.626c5.662 4.84 11.324 10.398 16.61 16.594 13.188 15.461 21.825 32.218 23.763 49.804 2.457 22.29-6.085 44.458-27.762 66.027-10.702 10.723-14.062 22.349-11.553 35.953 1.059 5.745 3.143 11.827 6.306 18.82l.22.486.437.952.435.934.44.93.454.946.472.964.751 1.508.823 1.619.703 1.362 1.363 2.605 1.605 3.033 3.202 6.008 1.378 2.602.791 1.505.884 1.697.82 1.593.39.762.618 1.226.7 1.409.444.908.323.667.315.66.51 1.082.396.857.29.634.379.843.188.422.375.85.093.215c3.213 7.382 5.296 13.943 6.262 20.215 1.837 11.923-.438 22.671-7.64 32.871-10.005 14.17-26.52 19.676-50.633 18.5l-.486-.024-.977-.054-.492-.03-.99-.065-1-.072-1.008-.079c-.337-.027-.676-.056-1.017-.086l-1.027-.093-.517-.049-1.04-.104-1.052-.11-.53-.058-1.066-.122-1.077-.128-1.088-.135-1.1-.143-1.11-.15-1.122-.156-.565-.081-1.14-.167-1.151-.175-1.164-.181-1.176-.189-1.19-.196-1.202-.202-1.215-.21-1.23-.217-1.242-.224-1.257-.232-1.27-.238c-.214-.04-.427-.08-.641-.122l-1.293-.249-1.307-.256-1.322-.263-3.543-.72-2.266-.469-1.651-.348-1.652-.355-2.79-.616-2.66-.602-3.592-.828-6.045-1.417-20.937-4.96-4.39-1.03-3.639-.844-2.166-.497-2.911-.66-2.792-.626-1.934-.426-2.267-.494-2.593-.555-1.828-.384-1.743-.361-1.393-.285-.698-.142-1.485-.299-1.474-.291a518.81 518.81 0 0 0-.732-.144l-1.457-.282-.724-.138-1.44-.273-.717-.133-1.424-.262-.708-.13-1.409-.251-1.398-.246a410.3 410.3 0 0 0-1.387-.239l-1.378-.232c-.457-.077-.913-.152-1.368-.226l-1.357-.219-1.349-.212-1.338-.206-.666-.1-1.324-.196c-.44-.064-.879-.127-1.316-.188l-1.306-.182-.65-.089-1.293-.172-.643-.083-1.28-.162-1.272-.154-.633-.075-1.259-.145-1.25-.138a263 263 0 0 0-.623-.066l-1.24-.128c-.617-.062-1.232-.121-1.844-.178l-1.22-.11-.607-.053-1.209-.1a230.3 230.3 0 0 0-.602-.048l-1.198-.09a220.47 220.47 0 0 0-1.784-.12l-1.181-.073a206 206 0 0 0-3.504-.176l-1.155-.044a179.227 179.227 0 0 0-11.793-.043c-17.424.531-33.254 4.974-47.557 12.776-12.144 6.625-22.887 15.502-32.29 26.076-7.57 8.512-13.85 17.633-18.911 26.754l-.523.95a128.9 128.9 0 0 0-3.962 7.865l-.249.546-.233.52-.218.494-.203.468-.306.724-.239.588-.22-.085.187-.463.173-.415.188-.442.203-.47.219-.495.234-.522.249-.547c.367-.8.759-1.626 1.175-2.478l.424-.86a139.44 139.44 0 0 1 2.894-5.493c5.069-9.135 11.36-18.27 18.941-26.796 9.42-10.593 20.184-19.487 32.354-26.126 14.334-7.82 30.201-12.273 47.663-12.805 4.574-.138 9.267-.09 14.125.139l1.169.058 1.175.066 1.183.072.593.039 1.193.083c.398.028.798.058 1.199.09l1.206.096.606.051 1.218.107.611.056 1.229.118c.616.06 1.235.123 1.857.188l1.248.135.627.07 1.26.144c.422.05.845.1 1.27.152l1.276.158.642.082 1.29.169.648.086 1.302.18c.436.06.874.122 1.312.185l1.321.192c.221.033.443.065.664.099l1.335.202 1.345.209c.45.07.9.143 1.354.216l1.363.222.686.114 1.379.232.693.12 1.394.242.7.123 1.41.253 1.42.259 1.43.266 1.442.272 1.452.279.73.142 1.47.289 1.48.295.744.15c.582.118 1.163.236 1.743.356l1.045.215c.697.144 1.395.29 2.096.438l2.127.45 1.845.398 3.023.663 3.138.7 3.714.844 3.05.703 4.173.973 5.549 1.308 16.501 3.913 6.786 1.593 3.605.833 2.499.568 2.257.503 2.11.46 1.797.382 2.082.434 3.379.69 1.632.327 1.314.26 1.299.252 1.284.246 1.27.238.63.116 1.248.228 1.235.22.612.108 1.215.21 1.2.202.597.099 1.181.192 1.17.184 1.156.178 1.145.17c.38.057.757.111 1.132.164l1.12.157.557.076 1.103.145 1.093.14.542.066 1.076.128.534.062 1.06.117 1.05.111 1.04.104 1.03.096 1.021.09.507.041 1.007.08.998.071.989.065.491.03.977.054c.162.008.323.017.485.024 24.04 1.173 40.477-4.309 50.427-18.4 7.166-10.148 9.428-20.835 7.6-32.699-.962-6.25-3.04-12.792-6.245-20.156l-.28-.64-.187-.424c-.25-.564-.502-1.123-.758-1.683l-.292-.635-.503-1.076-.415-.873-.428-.888-.557-1.137-.586-1.178-.618-1.225-.791-1.546-.705-1.362-.751-1.437-1.136-2.157-1.817-3.416-2.874-5.396-1.656-3.142-.777-1.491-.996-1.938-.631-1.25-.508-1.021-.32-.65-.306-.63-.373-.778a179.871 179.871 0 0 1-1.532-3.304c-3.171-7.01-5.26-13.108-6.324-18.874-2.522-13.679.86-25.384 11.62-36.163 21.627-21.52 30.142-43.619 27.693-65.834-1.932-17.532-10.548-34.248-23.708-49.677-5.277-6.185-10.93-11.736-16.584-16.568-.495-.422-.98-.832-1.457-1.228l-.707-.585-.692-.564c-.228-.185-.454-.366-.677-.544l-.66-.524-.644-.503-.316-.244-.525-.4-.602-.455-.546-.403-.425-.309-.284-.202.135-.194ZM287.6 43.167l.221.148.466.318.344.24.562.398.405.29.645.47.663.49.68.512.7.533.355.274.723.564c.488.383.986.78 1.494 1.191 5.44 4.402 10.88 9.467 15.958 15.124 12.536 13.966 20.797 29.162 22.774 45.192 2.478 20.092-5.142 40.21-24.8 59.961l-.599.599c-9.713 9.638-12.815 20.288-10.64 32.916.92 5.333 2.76 11.004 5.569 17.55l.185.43.366.842.447 1.012.367.819.51 1.116.421.903.33.698.582 1.217.502 1.035.682 1.39.753 1.517 1.29 2.578 3.55 7.03 1.028 2.054.488.981.775 1.57.444.907.706 1.454.535 1.117.386.812.372.793.477 1.027.456.998.437.97.315.713.305.7.297.69.381.907.277.67.27.665.35.88.255.656.331.872.244.655.239.656.314.88.232.666c5.738 16.617 5.151 30.196-3.56 42.897-8.818 12.88-23.379 17.859-44.75 16.763l-.921-.05-.93-.058c-.312-.02-.625-.042-.94-.065l-.947-.073-.958-.08-.482-.042-.972-.091c-.325-.032-.653-.064-.982-.098l-.992-.106-.5-.055-1.007-.117-.508-.06-1.024-.128-.517-.067-1.041-.138-.525-.072-1.059-.15-.534-.077-1.077-.16-.543-.084-1.096-.171-1.11-.18-1.121-.186a261.33 261.33 0 0 1-.566-.096l-1.142-.197-1.156-.205-.584-.105-1.177-.217-1.192-.223-.601-.115-1.214-.234-1.23-.242-1.244-.25-.628-.127-3.306-.684-2.65-.557-1.73-.372-1.091-.24-1.832-.413-2.28-.527-3.756-.885-4.558-1.089-19.03-4.582-3.746-.892-3.546-.836-2.898-.674-2.779-.638-2.234-.506-2.169-.484-1.692-.372-1.66-.36-2.031-.434-2.387-.5-1.955-.4-1.161-.232-1.107-.22-.735-.144c-.978-.19-1.953-.378-2.927-.56l-.73-.138-1.829-.337-1.592-.286-1.579-.277a351.91 351.91 0 0 0-3.12-.527l-1.542-.25c-13.82-2.2-26.18-3.264-37.728-3.098-15.474.236-29.59 3.997-42.396 10.78-10.855 5.752-20.496 13.524-28.969 22.816-6.704 7.354-12.303 15.233-16.844 23.112a118.916 118.916 0 0 0-3.464 6.445l-.386.785-.313.65-.24.509-.224.481-.206.453-.245.55-.27.627-.218-.09.17-.399.157-.359.19-.426.207-.455.225-.482.24-.51.128-.266a115.986 115.986 0 0 1 4.045-7.631c4.549-7.893 10.157-15.786 16.874-23.153 8.49-9.312 18.151-17.1 29.032-22.865 12.838-6.801 26.99-10.572 42.504-10.809 11.563-.166 23.934.899 37.767 3.102l1.543.25.776.128 1.561.263c1.046.18 2.1.364 3.161.555l.798.145.733.134c.732.134 1.462.27 2.193.409l1.455.277 1.812.353 1.094.217 1.468.295 1.481.303 1.122.232 1.895.4 1.932.413 2.376.52 2.863.637 2.116.479 3.524.81 3.24.756 3.907.925 5.771 1.383 18.577 4.47 4.416 1.046 3.21.744 2.518.565 1.001.218 1.504.322 3.993.834.991.205 1.26.257.623.125 1.236.246 1.22.238 1.206.23 1.19.224.59.109 1.17.212 1.154.204 1.141.198 1.128.19 1.114.182 1.101.175.546.085 1.082.164c1.076.16 2.133.31 3.173.448l1.035.135 1.023.127c.508.062 1.013.121 1.514.178l.996.109.985.101.976.095.484.044.96.083.952.077.942.068.468.032.928.058.92.05c21.297 1.092 35.779-3.86 44.544-16.66 8.663-12.632 9.246-26.135 3.53-42.687-.205-.593-.412-1.179-.624-1.761l-.24-.655-.244-.653-.334-.872-.256-.655-.175-.44-.267-.661-.274-.668-.282-.675-.29-.682-.299-.693-.413-.94-.321-.72-.333-.735-.46-1.004-.239-.513-.367-.785-.511-1.078-.673-1.4-.713-1.467-.602-1.225-.958-1.93-1.027-2.053-.727-1.442-3.275-6.488-1.462-2.934-.957-1.95-.763-1.584-.316-.665-.598-1.28-.492-1.075-.268-.596-.399-.897-.331-.757-.403-.932c-2.815-6.56-4.66-12.248-5.583-17.602-2.166-12.574.874-23.215 10.415-32.833l.29-.291c20.052-19.893 27.826-40.144 25.332-60.363-1.97-15.975-10.209-31.13-22.715-45.063-5.07-5.647-10.5-10.704-15.932-15.098-.253-.205-.504-.407-.753-.605l-.737-.584a117.184 117.184 0 0 0-3.44-2.606l-.723-.52-.38-.27-.524-.366-.68-.463.129-.198ZM246.15 32.385l.399.252.422.273.709.468.389.262.619.423c.209.144.421.29.637.441l.654.461c.442.314.895.64 1.358.98l.702.518c.355.264.716.535 1.082.813 5.225 3.97 10.451 8.55 15.329 13.674 11.9 12.502 19.794 26.156 21.81 40.632 2.523 18.122-4.388 36.386-22.54 54.462l-.553.547c-8.713 8.574-11.55 18.263-9.706 29.924.78 4.926 2.375 10.19 4.828 16.288l.487 1.2.482 1.163.492 1.16.45 1.036.62 1.4.607 1.341.674 1.466 1.274 2.732 4.064 8.602.826 1.765.88 1.9.578 1.265.543 1.202.41.921.488 1.11.373.863.447 1.052.43 1.034.267.65.175.434c.233.578.462 1.156.69 1.744 7.135 18.346 7.513 32.215-.985 45.096-7.641 11.587-20.246 16.035-38.876 15.02l-.415-.024-.836-.052-.421-.028-.849-.063-.857-.07-.866-.076-.437-.041-.88-.088-.443-.046-.895-.098-.905-.105-.915-.112c-.306-.038-.615-.078-.925-.119l-.937-.126c-.314-.044-.63-.088-.948-.134l-.959-.14-.97-.148-.984-.155-.995-.161-1.008-.17-1.02-.176-.516-.09-1.04-.188-1.054-.194-1.068-.201-1.082-.209-1.096-.216-1.111-.223-1.127-.23-1.14-.238-1.158-.245-1.248-.268-1.267-.277-1.726-.384-2.228-.505-2.32-.536-1.936-.454-2.53-.603-5.216-1.265-14.222-3.497-2.873-.7-2.778-.67-2.686-.64-1.57-.37-2.048-.48-2.49-.574-2.416-.548-1.417-.317-1.854-.409-1.365-.296-1.344-.288-1.325-.28-1.307-.272-1.716-.35-1.688-.338-1.664-.324-1.233-.235-1.626-.302-1.209-.22-.8-.142-1.195-.209-1.188-.203-1.182-.196-1.178-.192-.784-.124-1.173-.182-1.172-.177-1.172-.172-1.222-.175-.416-.058-.834-.114c-9.114-1.24-17.644-1.9-25.768-1.935-13.524-.062-25.929 3.013-37.245 8.776-9.57 4.874-18.116 11.54-25.665 19.55-5.843 6.198-10.76 12.84-14.78 19.48a100.66 100.66 0 0 0-3.588 6.42l-.328.651-.2.406-.272.564-.223.476-.151.334-.217-.095.197-.433.268-.566.186-.384.2-.407.33-.654a100.896 100.896 0 0 1 3.596-6.434c4.029-6.654 8.955-13.309 14.81-19.52 7.567-8.028 16.133-14.711 25.73-19.599 11.349-5.78 23.79-8.864 37.353-8.802 8.135.035 16.675.696 25.799 1.937 1.392.19 2.776.388 4.162.597l1.218.187 1.157.182.774.124 1.163.19 1.56.264 1.175.204 1.184.21 1.192.217 1.604.299 1.216.231 1.64.32 1.246.248 1.26.255 1.706.352.864.18 1.752.373 1.337.29 2.274.499 1.864.417 1.906.432 2.446.564 2.522.59 2.602.616 2.688.644 2.779.673 18.759 4.604 2.853.686 2.503.594 1.444.339 1.863.431 1.357.31 1.326.3 1.298.289 1.274.28 1.668.359 1.155.245 1.14.237.565.116 1.117.226 1.103.22 1.088.212 1.073.205 1.06.197 1.046.19.518.093 1.026.18.508.087 1.007.169.994.162.982.154c.325.05.648.1.97.148l.957.14c.476.068.948.134 1.416.197l.93.123.46.058.914.112c.454.054.905.106 1.351.155l.889.094.878.087.87.08.86.073.851.066.423.03.838.056.831.049c18.554 1.01 31.078-3.409 38.666-14.914 8.448-12.805 8.072-26.598.962-44.88l-.171-.44-.345-.87-.252-.627-.256-.628-.348-.842-.357-.85-.277-.648-.284-.659-.393-.898-.41-.927-.543-1.208-.46-1.011-.869-1.885-1.104-2.365-1.408-2.983-2.642-5.589-1.132-2.422-.628-1.363-.57-1.252-.594-1.326-.414-.94-.393-.911-.314-.739c-.15-.353-.297-.706-.444-1.063l-.342-.835-.306-.756c-2.46-6.115-4.06-11.395-4.842-16.34-1.837-11.617.947-21.304 9.512-29.87l.26-.259c18.514-18.204 25.564-36.581 23.026-54.808-2.008-14.42-9.879-28.033-21.748-40.503-4.868-5.114-10.084-9.684-15.3-13.648l-.723-.545-.709-.527-.693-.508a110.56 110.56 0 0 0-1.984-1.409l-.626-.43-.504-.342-.556-.37-.503-.33-.654-.417.124-.2Zm-41.48-10.782.481.282.306.183.5.305.552.343.637.402c.539.344 1.098.708 1.676 1.093l.702.472c.593.4 1.203.822 1.83 1.264 5.01 3.532 10.021 7.615 14.698 12.199 11.26 11.035 18.786 23.148 20.84 36.075 2.568 16.159-3.632 32.58-20.272 48.994l-.507.497c-7.722 7.52-10.3 16.257-8.791 26.96.618 4.39 1.91 9.097 3.901 14.542l.33.89.288.769.268.705.503 1.291.473 1.183.314.77.402.971.748 1.774 1.466 3.409 3.095 7.1.471 1.088.954 2.225.477 1.128.532 1.276.499 1.216.475 1.181.155.39c.18.456.358.91.536 1.372l.362.945a130.357 130.357 0 0 1 1.481 4.103l.297.88c2.036 6.132 3.206 11.5 3.523 16.632.49 7.944-1.146 15.076-5.27 21.652-6.47 10.324-17.137 14.244-33.066 13.295l-.752-.048a91.257 91.257 0 0 1-.759-.055l-.767-.062c-.13-.01-.258-.022-.387-.033l-.781-.072c-.262-.026-.525-.052-.79-.08l-.799-.086-.808-.094-.819-.1-.829-.108-.84-.114-.85-.122-.43-.063-.867-.133-.439-.069-.885-.143-.447-.074-.904-.154-.916-.16a185.03 185.03 0 0 1-.463-.084l-.937-.172-.95-.179-.962-.186-.978-.193-.992-.201-1.006-.208-1.022-.215-.517-.11-1.045-.227-1.428-.316-1.49-.336-1.916-.441-1.993-.47-2.09-.5-2.661-.65-6.437-1.608-10.537-2.66-2.427-.606-1.583-.392-1.56-.383-1.539-.374-1.516-.366-2.236-.533-1.465-.345-1.445-.337-1.425-.328-1.407-.32-.697-.157-1.38-.308-1.362-.3-1.345-.29-1.329-.284-.658-.14-1.306-.27-1.29-.265-1.275-.255-.633-.126-1.255-.244-.622-.119-1.235-.233-1.223-.225-1.211-.217-.601-.106-1.194-.207-1.183-.198-1.174-.192-.583-.093-1.159-.18c-.385-.059-.768-.116-1.15-.173l-1.143-.166c-.569-.08-1.135-.16-1.699-.235l-1.124-.148c-.373-.048-.746-.095-1.117-.14l-1.112-.135-1.107-.127-1.101-.12-1.098-.113c-3.834-.384-7.6-.643-11.398-.787l-1.087-.038-.544-.016c-21.543-.634-39.643 8.101-54.41 23.054a99.86 99.86 0 0 0-12.731 15.878 86.692 86.692 0 0 0-2.964 4.913l-.287.522-.311.577-.187.354-.17.33-.193.385-.064.131-.214-.102.155-.313.19-.371.178-.344.196-.368.212-.392.112-.205c.116-.21.235-.425.358-.643l.377-.66a89.765 89.765 0 0 1 2.413-3.943 100.094 100.094 0 0 1 12.762-15.915c14.81-14.996 32.97-23.76 54.585-23.125 3.303.096 6.57.278 9.867.552l1.1.094 1.103.102 1.106.108c.37.037.74.076 1.11.115l1.115.122 1.12.13 1.124.136 1.131.144 1.138.15c1.141.155 2.293.32 3.458.497l1.169.18 1.179.188 1.188.195 1.199.203 1.21.21.609.108 1.227.222 1.24.23.624.118 1.26.241 1.272.25 1.287.257.649.131 1.309.27.66.137 1.333.282 1.35.29.68.147 1.375.302 1.392.31 1.41.318 1.43.327 1.45.335 1.468.344 1.49.352 2.273.545 2.323.564 2.374.583 1.611.4 15.748 3.968 2.398.596 2.692.658 1.697.41 1.228.292 1.587.373 1.537.355 1.497.339.737.164 1.06.234 1.043.226 1.028.219 1.013.211.998.204.983.197.487.096.962.186.948.179.469.086.928.168.915.161.903.154.89.146.44.07.872.136.432.065.855.126.844.117.832.111.823.104.407.05.807.093.4.044.793.082.393.04.78.071.77.066.761.058.378.026.75.048c15.851.944 26.434-2.945 32.853-13.184 4.095-6.532 5.72-13.616 5.233-21.512-.36-5.84-1.832-11.995-4.436-19.245l-.331-.912c-.225-.612-.458-1.232-.698-1.86l-.411-1.062-.307-.78-.47-1.175-.488-1.2-.43-1.04-.65-1.542-.4-.94-.883-2.05-3.84-8.819-.887-2.068-.689-1.63-.544-1.311-.496-1.222-.406-1.027-.381-.981-.256-.671-.298-.793-.15-.406c-2.102-5.67-3.457-10.546-4.097-15.087-1.503-10.668 1.03-19.412 8.628-26.935l.232-.228c16.968-16.529 23.292-33.043 20.71-49.285-2.044-12.87-9.544-24.94-20.771-35.943-4.667-4.574-9.668-8.65-14.67-12.175a119.55 119.55 0 0 0-1.107-.772l-.718-.49-.7-.47-.684-.451-.664-.431-.645-.412-.504-.316-.533-.329-.327-.199-.582-.346-.2-.116.116-.205Zm-41.452-10.82.366.194.61.333.58.324.509.29.62.36.316.187.647.386c.327.197.662.4 1.002.61l.69.43.35.22.712.456c4.8 3.088 9.6 6.67 14.079 10.707 10.624 9.573 17.782 20.147 19.875 31.524 2.61 14.2-2.884 28.771-18.023 43.507l-.462.447c-6.717 6.456-9.03 14.244-7.855 24.002l.083.659.059.436.061.433.064.431.068.43.107.643.076.428.08.429.083.43.088.43.091.434.096.436.1.438.104.442.11.447.113.45.12.456.123.462.13.468.203.714.143.486.225.743.157.506.164.516.257.792.179.542.281.833.196.57.307.878.435 1.219.228.63.357.974.375 1.008.392 1.046.552 1.454.739 1.92.793 2.044.852 2.173 1.269 3.235.73 1.88.561 1.47.515 1.366.34.918.335.918.168.465.329.92.317.904a128.653 128.653 0 0 1 1.805 5.571l.238.813c.233.808.45 1.6.652 2.38l.196.773c.861 3.463 1.408 6.66 1.656 9.765.606 7.596-.69 14.29-4.23 20.345-5.317 9.09-14.054 12.476-27.327 11.575l-.33-.023-.668-.052-.336-.028-.68-.062-.687-.069-.696-.076-.706-.082a89.823 89.823 0 0 1-.356-.044l-.72-.093-.364-.05-.736-.103c-.247-.036-.496-.072-.746-.11l-.758-.118-.769-.125-.78-.132c-.263-.045-.527-.092-.794-.14l-.805-.145-.819-.154-.832-.16-.845-.169-.86-.175-.874-.183-.889-.19-.904-.197-.92-.205-.935-.212-.952-.22-1.386-.325-1.854-.447-1.615-.397-1.7-.425-2.56-.65-15.055-3.92-1.905-.487-2.485-.63-1.826-.454-1.793-.441-1.179-.287-1.744-.418-1.146-.271-1.134-.266-1.68-.386-1.104-.25-1.094-.245-1.084-.239-1.073-.233-.533-.114-1.058-.225-.526-.11-1.045-.215-.519-.106-1.031-.207-1.024-.202-1.015-.196-1.008-.19-1-.186-.994-.18-.988-.174-.981-.168-.489-.083-.973-.16-.968-.156-.482-.076-.961-.148-.957-.142-.952-.138a201.15 201.15 0 0 0-.476-.067l-.947-.13-.945-.124-.471-.06-.941-.118-.47-.056-.938-.11-.469-.053-.936-.102c-.312-.034-.623-.066-.935-.098l-.934-.093-.935-.088-.934-.083-.935-.078-.936-.074-.937-.07-.47-.032-.94-.062-.47-.03c-17.83-1.063-33.146 5.763-45.906 17.8a83.728 83.728 0 0 0-10.716 12.316 70.838 70.838 0 0 0-2.693 4.057l-.215.355-.198.331-.179.306-.307.544-.208-.112.116-.21.195-.34.18-.308.304-.508.11-.181a71.073 71.073 0 0 1 2.703-4.071 83.963 83.963 0 0 1 10.746-12.35c12.804-12.08 28.18-18.933 46.082-17.865l.472.03.94.062.94.067c.312.023.625.047.937.072l.937.076.468.04.935.083.935.088.468.046.936.095.936.1.938.105.94.11.94.114.943.12.473.062.947.127.475.066.952.135.955.14.96.145.964.15.969.156.974.161.489.083.982.169.988.174.497.09.998.182 1.005.188.505.096 1.017.196 1.024.202.515.103 1.036.21 1.046.216 1.054.222 1.065.227 1.074.233 1.084.24.546.12 1.1.248 1.672.383 1.698.396 1.147.271 1.16.278 1.173.283 1.186.29 1.2.296 1.215.302 1.848.465 1.882.479 14.342 3.733 2.742.705 2.152.545 1.68.42 1.285.315 1.55.373 1.207.286.958.223.943.215 1.383.31.903.197.888.19.872.182.859.175.844.168.417.08.824.158.406.075.805.147.791.138.391.067.774.128c.256.042.51.082.761.121l.75.114.372.055.734.103c.243.033.484.066.724.097l.713.089.354.042.699.079.346.037.686.068.677.062.67.055.66.048c13.192.896 21.842-2.457 27.108-11.459 3.514-6.01 4.8-12.656 4.198-20.207-.264-3.32-.874-6.75-1.846-10.503l-.207-.78a98.722 98.722 0 0 0-.929-3.226l-.259-.833-.269-.845-.28-.858a139.47 139.47 0 0 0-.29-.87l-.3-.882-.155-.447-.317-.903-.162-.457-.333-.925-.335-.916-.574-1.543-.548-1.445-.8-2.07-1.07-2.737-.94-2.392-.974-2.5-.605-1.568-.57-1.493-.272-.72-.52-1.387-.37-.998-.35-.964-.443-1.234-.21-.597-.303-.87-.287-.844-.272-.817-.173-.532-.167-.521-.16-.512-.155-.503-.149-.495-.143-.486-.138-.48-.196-.705a67.345 67.345 0 0 1-.062-.232l-.122-.46-.173-.68-.11-.447-.104-.444-.1-.44-.096-.436-.092-.435-.087-.432a53.967 53.967 0 0 1-.043-.216l-.081-.43-.116-.645-.073-.43-.069-.43-.098-.65-.062-.434-.058-.437-.056-.44-.027-.222c-1.171-9.725 1.102-17.526 7.715-23.997l.21-.204c15.435-14.835 21.038-29.48 18.416-43.74-1.911-10.393-8.08-20.126-17.277-29.035l-.618-.593a96.504 96.504 0 0 0-1.905-1.763c-4.47-4.028-9.26-7.603-14.048-10.685l-.711-.453-.696-.437c-.344-.214-.681-.422-1.013-.623l-.654-.393-.636-.377a90.912 90.912 0 0 0-.311-.181l-.609-.35-.597-.337-.535-.295-.621-.332.108-.21ZM121.766 0l.442.209.322.156.35.172.573.288c.31.157.627.321.952.491l.66.35.338.18.69.376c.582.32 1.184.659 1.802 1.015 4.595 2.644 9.19 5.726 13.478 9.214l.321.262.637.528c.526.44 1.043.883 1.55 1.33l.605.535c.7.627 1.38 1.26 2.041 1.897l.562.547c6.868 6.767 11.518 14.1 13.213 21.926 2.68 12.38-2.249 25.233-16.237 38.403-5.718 5.424-7.771 12.293-6.934 21.129.019.2.038.399.06.597l.042.395.044.393.048.391.069.533.1.708.082.533.058.356.091.536.065.36.067.362.071.364.112.552.078.372.124.566.131.575.14.586.148.599.156.611.165.627.235.86.251.89.27.926.14.476.222.732.31 1.012.332 1.055.351 1.101.469 1.446.608 1.845.435 1.3.696 2.064 1.67 4.913.729 2.17.41 1.247.237.728.29.902.28.886.272.87.261.856.253.84.242.826c.08.273.158.544.234.812l.224.799.216.786.206.774.197.763.095.377.184.746.174.735.166.726c.538 2.403.93 4.65 1.184 6.83l.072.652c.034.325.065.648.093.97.613 7.072-.358 13.187-3.21 18.596-4.184 7.957-11.018 10.814-21.758 9.912l-.558-.05-.566-.056c-.19-.02-.38-.04-.573-.062l-.582-.07a64.666 64.666 0 0 1-.294-.037l-.594-.079-.301-.042-.609-.089c-.204-.03-.41-.062-.619-.096l-.629-.102a84.946 84.946 0 0 1-.319-.054l-.645-.113-.658-.12-.67-.126-.681-.134-.695-.14-.709-.148-.722-.155-.737-.163-.751-.169-.767-.177-.782-.184-1.204-.29-.41-.1-.832-.207-1.368-.347-1.885-.495-7-1.882-10.97-2.978-.728-.193-1.443-.38-.714-.185-1.415-.365-1.396-.355-1.38-.345-1.363-.337-.676-.165-1.34-.322-.664-.158-1.32-.31-.654-.15-1.3-.297-1.287-.287-1.277-.278c-.848-.183-1.689-.36-2.524-.53l-1.248-.254-1.241-.244-.618-.12-1.23-.231a221.21 221.21 0 0 0-1.835-.333l-1.218-.212c-.81-.139-1.618-.272-2.425-.4l-1.208-.19-1.208-.18-1.207-.174a200.3 200.3 0 0 0-6.664-.823c-14.103-1.498-26.656 3.386-37.45 12.45a67.993 67.993 0 0 0-8.671 8.743 56.219 56.219 0 0 0-2.234 2.88l-.209.292-.189.27-.342.504-.015.024-.199-.128.153-.231.122-.178.277-.397.21-.294a56.454 56.454 0 0 1 2.244-2.893 68.228 68.228 0 0 1 8.701-8.774c10.84-9.102 23.453-14.008 37.627-12.503 2.851.304 5.664.665 8.484 1.087l1.21.185c2.016.315 4.04.662 6.087 1.042l1.232.232 1.238.24.622.124 1.25.253c1.462.3 2.942.618 4.446.953l1.295.291 1.307.3.658.154 1.327.314 1.341.323 1.357.332.684.17 1.38.346 1.398.355 1.415.365.715.186 1.444.38 1.866.5 14.482 3.925 3.47.923 1.281.332.849.214 1.24.306.805.195 1.177.278.766.177.75.169.735.162.72.155.707.147.694.14.68.134.668.126.33.061.65.116.32.055.634.106.622.1.612.091.602.086.298.04.588.076.58.069.572.062.282.029.56.053.278.024c10.653.894 17.394-1.924 21.528-9.787 2.83-5.366 3.794-11.436 3.185-18.465a60.99 60.99 0 0 0-1.041-7.006l-.148-.706a79.81 79.81 0 0 0-.077-.356l-.161-.72-.17-.728-.179-.738-.093-.374-.192-.755-.2-.766-.105-.388-.215-.784-.224-.797a138.29 138.29 0 0 0-.233-.81l-.242-.825-.125-.417-.256-.846-.132-.429-.27-.868-.424-1.333-.382-1.18-.536-1.624-.91-2.7-1.303-3.825-.768-2.277-.476-1.426-.662-2.013-.409-1.262-.29-.908-.363-1.162-.341-1.11-.162-.536-.306-1.038-.285-.996-.2-.722-.126-.47-.122-.46-.118-.454-.167-.665-.157-.65-.147-.638-.138-.625-.087-.41-.082-.407-.118-.603-.074-.398-.104-.593-.065-.393-.062-.392-.087-.586-.028-.195-.078-.587-.072-.589-.067-.592-.061-.597-.02-.201c-.843-8.903 1.231-15.844 7.008-21.323 13.932-13.117 18.83-25.889 16.168-38.181-1.866-8.619-7.348-16.646-15.449-23.979l-.597-.535a85.741 85.741 0 0 0-2.801-2.378c-4.278-3.48-8.862-6.554-13.447-9.193a101.884 101.884 0 0 0-2.822-1.567l-.66-.348a86.253 86.253 0 0 0-.637-.331l-.7-.354-.532-.264-.688-.33-.07-.032.098-.215Z" />
    </defs>
    <g fill="none" fill-rule="evenodd">
        <mask id="b" fill="#fff">
            <use xlink:href="#a" />
        </mask>
        <use xlink:href="#a" fill="#BBB" />
        <g mask="url(#b)">
            <use xlink:href="#c" fill="#FFF" fill-rule="nonzero" stroke="#FFF" transform="translate(-127 -112)" />
        </g>
    </g>
</svg>